Lateef-Regular.ufo
<glyph name="space" format="1">
  <advance width="465"/>
  <unicode hex="0020"/>
  <outline>
    <contour>
      <point x="321" y="1060" type="move" name="diaA"/>
    </contour>
    <contour>
      <point x="321" y="-49" type="move" name="diaB"/>
    </contour>
  </outline>
</glyph>
<glyph name="quotesingle" format="1">
  <advance width="279"/>
  <unicode hex="0027"/>
  <outline>
    <contour>
      <point x="215" y="965" type="curve"/>
      <point x="215" y="985"/>
      <point x="209" y="1004"/>
      <point x="195" y="1020" type="curve" smooth="yes"/>
      <point x="180" y="1036"/>
      <point x="162" y="1044"/>
      <point x="135" y="1044" type="curve" smooth="yes"/>
      <point x="88" y="1044"/>
      <point x="63" y="1016"/>
      <point x="63" y="954" type="curve" smooth="yes"/>
      <point x="63" y="932"/>
      <point x="72" y="873"/>
      <point x="80" y="829" type="curve" smooth="yes"/>
      <point x="121" y="606" type="line"/>
      <point x="154" y="606" type="line"/>
      <point x="195" y="827" type="line" smooth="yes"/>
      <point x="209" y="903"/>
      <point x="215" y="950"/>
    </contour>
  </outline>
</glyph>
<glyph name="parenright.arab" format="2">
  <advance width="707"/>
  <unicode hex="0029"/>
  <outline>
    <contour>
      <point x="207" y="1001" type="line"/>
      <point x="347" y="816"/>
      <point x="400" y="642"/>
      <point x="400" y="414" type="curve" smooth="yes"/>
      <point x="400" y="137"/>
      <point x="299" y="-25"/>
      <point x="260" y="-84" type="curve"/>
      <point x="297" y="-119" type="line"/>
      <point x="356" y="-43"/>
      <point x="502" y="153"/>
      <point x="502" y="473" type="curve" smooth="yes"/>
      <point x="502" y="809"/>
      <point x="383" y="973"/>
      <point x="281" y="1100" type="curve"/>
    </contour>
  </outline>
</glyph>
<glyph name="asterisk.arab" format="2">
  <advance width="854"/>
  <unicode hex="002A"/>
  <outline>
    <contour>
      <point x="406" y="705" type="curve"/>
      <point x="343" y="705"/>
      <point x="325" y="665"/>
      <point x="325" y="610" type="curve" smooth="yes"/>
      <point x="325" y="534"/>
      <point x="360" y="435"/>
      <point x="360" y="392" type="curve" smooth="yes"/>
      <point x="360" y="379"/>
      <point x="357" y="371"/>
      <point x="348" y="371" type="curve" smooth="yes"/>
      <point x="307" y="371"/>
      <point x="176" y="533"/>
      <point x="93" y="533" type="curve" smooth="yes"/>
      <point x="57" y="533"/>
      <point x="27" y="488"/>
      <point x="27" y="440" type="curve" smooth="yes"/>
      <point x="27" y="318"/>
      <point x="281" y="330"/>
      <point x="281" y="265" type="curve" smooth="yes"/>
      <point x="281" y="229"/>
      <point x="24" y="145"/>
      <point x="24" y="59" type="curve" smooth="yes"/>
      <point x="24" y="22"/>
      <point x="74" y="-7"/>
      <point x="105" y="-7" type="curve" smooth="yes"/>
      <point x="199" y="-7"/>
      <point x="298" y="152"/>
      <point x="334" y="152" type="curve" smooth="yes"/>
      <point x="344" y="152"/>
      <point x="347" y="142"/>
      <point x="347" y="125" type="curve" smooth="yes"/>
      <point x="347" y="82"/>
      <point x="324" y="-5"/>
      <point x="324" y="-76" type="curve" smooth="yes"/>
      <point x="324" y="-142"/>
      <point x="342" y="-190"/>
      <point x="410" y="-190" type="curve" smooth="yes"/>
      <point x="474" y="-190"/>
      <point x="492" y="-135"/>
      <point x="492" y="-74" type="curve" smooth="yes"/>
      <point x="492" y="1"/>
      <point x="467" y="90"/>
      <point x="467" y="127" type="curve" smooth="yes"/>
      <point x="467" y="140"/>
      <point x="470" y="145"/>
      <point x="477" y="145" type="curve" smooth="yes"/>
      <point x="515" y="145"/>
      <point x="642" y="-8"/>
      <point x="728" y="-8" type="curve" smooth="yes"/>
      <point x="755" y="-8"/>
      <point x="800" y="18"/>
      <point x="800" y="81" type="curve" smooth="yes"/>
      <point x="800" y="199"/>
      <point x="535" y="216"/>
      <point x="535" y="256" type="curve" smooth="yes"/>
      <point x="535" y="295"/>
      <point x="812" y="338"/>
      <point x="812" y="443" type="curve" smooth="yes"/>
      <point x="812" y="485"/>
      <point x="765" y="529"/>
      <point x="726" y="529" type="curve" smooth="yes"/>
      <point x="634" y="529"/>
      <point x="522" y="372"/>
      <point x="477" y="372" type="curve" smooth="yes"/>
      <point x="461" y="372"/>
      <point x="456" y="388"/>
      <point x="456" y="410" type="curve" smooth="yes"/>
      <point x="456" y="458"/>
      <point x="479" y="541"/>
      <point x="479" y="606" type="curve" smooth="yes"/>
      <point x="479" y="661"/>
      <point x="463" y="703"/>
    </contour>
    <contour>
      <point x="334" y="264" type="curve" smooth="yes"/>
      <point x="334" y="303"/>
      <point x="371" y="342"/>
      <point x="410" y="342" type="curve" smooth="yes"/>
      <point x="453" y="342"/>
      <point x="489" y="301"/>
      <point x="489" y="258" type="curve" smooth="yes"/>
      <point x="489" y="218"/>
      <point x="453" y="182"/>
      <point x="413" y="182" type="curve" smooth="yes"/>
      <point x="371" y="182"/>
      <point x="334" y="222"/>
    </contour>
  </outline>
</glyph>
<glyph name="comma" format="1">
  <advance width="387"/>
  <unicode hex="002C"/>
  <outline>
    <contour>
      <point x="307" y="-8" type="curve"/>
      <point x="307" y="41"/>
      <point x="293" y="80"/>
      <point x="266" y="111" type="curve" smooth="yes"/>
      <point x="242" y="137"/>
      <point x="213" y="150"/>
      <point x="180" y="150" type="curve" smooth="yes"/>
      <point x="154" y="150"/>
      <point x="131" y="141"/>
      <point x="113" y="125" type="curve" smooth="yes"/>
      <point x="92" y="109"/>
      <point x="84" y="88"/>
      <point x="84" y="61" type="curve" smooth="yes"/>
      <point x="84" y="6"/>
      <point x="111" y="-23"/>
      <point x="164" y="-23" type="curve" smooth="yes"/>
      <point x="172" y="-23"/>
      <point x="182" y="-18"/>
      <point x="197" y="-10" type="curve" smooth="yes"/>
      <point x="209" y="-4"/>
      <point x="221" y="0"/>
      <point x="229" y="0" type="curve" smooth="yes"/>
      <point x="240" y="0"/>
      <point x="246" y="-10"/>
      <point x="246" y="-31" type="curve" smooth="yes"/>
      <point x="246" y="-76"/>
      <point x="227" y="-119"/>
      <point x="193" y="-156" type="curve" smooth="yes"/>
      <point x="162" y="-188"/>
      <point x="125" y="-211"/>
      <point x="84" y="-223" type="curve"/>
      <point x="84" y="-258" type="line"/>
      <point x="233" y="-207"/>
      <point x="307" y="-123"/>
    </contour>
  </outline>
</glyph>
<glyph name="two" format="1">
  <advance width="772"/>
  <unicode hex="0032"/>
  <outline>
    <contour>
      <point x="709" y="197" type="line"/>
      <point x="680" y="197" type="line"/>
      <point x="619" y="115"/>
      <point x="590" y="115"/>
      <point x="461" y="115" type="curve" smooth="yes"/>
      <point x="195" y="115" type="line"/>
      <point x="276" y="190"/>
      <point x="352" y="275"/>
      <point x="428" y="360" type="curve" smooth="yes"/>
      <point x="525" y="468"/>
      <point x="645" y="623"/>
      <point x="645" y="774" type="curve" smooth="yes"/>
      <point x="645" y="936"/>
      <point x="508" y="1044"/>
      <point x="354" y="1044" type="curve" smooth="yes"/>
      <point x="178" y="1044"/>
      <point x="84" y="920"/>
      <point x="63" y="756" type="curve"/>
      <point x="90" y="756" type="line"/>
      <point x="127" y="862"/>
      <point x="199" y="928"/>
      <point x="315" y="928" type="curve" smooth="yes"/>
      <point x="440" y="928"/>
      <point x="516" y="823"/>
      <point x="516" y="705" type="curve" smooth="yes"/>
      <point x="516" y="461"/>
      <point x="203" y="184"/>
      <point x="35" y="29" type="curve"/>
      <point x="35" y="0" type="line"/>
      <point x="635" y="0" type="line"/>
    </contour>
  </outline>
</glyph>
<glyph name="semicolon" format="1">
  <advance width="430"/>
  <unicode hex="003B"/>
  <outline>
    <contour>
      <point x="319" y="629" type="curve"/>
      <point x="319" y="653"/>
      <point x="311" y="674"/>
      <point x="295" y="688" type="curve" smooth="yes"/>
      <point x="279" y="705"/>
      <point x="258" y="713"/>
      <point x="236" y="713" type="curve" smooth="yes"/>
      <point x="213" y="713"/>
      <point x="193" y="705"/>
      <point x="176" y="688" type="curve" smooth="yes"/>
      <point x="160" y="674"/>
      <point x="152" y="653"/>
      <point x="152" y="629" type="curve" smooth="yes"/>
      <point x="152" y="606"/>
      <point x="160" y="588"/>
      <point x="176" y="571" type="curve" smooth="yes"/>
      <point x="193" y="555"/>
      <point x="213" y="547"/>
      <point x="236" y="547" type="curve" smooth="yes"/>
      <point x="258" y="547"/>
      <point x="276" y="555"/>
      <point x="295" y="569" type="curve"/>
      <point x="311" y="586"/>
      <point x="319" y="606"/>
    </contour>
    <contour>
      <point x="354" y="-8" type="curve"/>
      <point x="354" y="41"/>
      <point x="340" y="80"/>
      <point x="311" y="111" type="curve" smooth="yes"/>
      <point x="287" y="137"/>
      <point x="258" y="150"/>
      <point x="227" y="150" type="curve" smooth="yes"/>
      <point x="201" y="150"/>
      <point x="178" y="141"/>
      <point x="158" y="125" type="curve" smooth="yes"/>
      <point x="139" y="109"/>
      <point x="129" y="88"/>
      <point x="129" y="61" type="curve" smooth="yes"/>
      <point x="129" y="6"/>
      <point x="156" y="-23"/>
      <point x="209" y="-23" type="curve" smooth="yes"/>
      <point x="217" y="-23"/>
      <point x="227" y="-18"/>
      <point x="242" y="-10" type="curve" smooth="yes"/>
      <point x="256" y="-4"/>
      <point x="266" y="0"/>
      <point x="274" y="0" type="curve" smooth="yes"/>
      <point x="285" y="0"/>
      <point x="291" y="-10"/>
      <point x="291" y="-31" type="curve" smooth="yes"/>
      <point x="291" y="-76"/>
      <point x="274" y="-119"/>
      <point x="240" y="-156" type="curve" smooth="yes"/>
      <point x="209" y="-188"/>
      <point x="172" y="-211"/>
      <point x="129" y="-223" type="curve"/>
      <point x="129" y="-258" type="line"/>
      <point x="279" y="-207"/>
      <point x="354" y="-123"/>
    </contour>
  </outline>
</glyph>
<glyph name="grave" format="1">
  <advance width="580"/>
  <unicode hex="0060"/>
  <outline>
    <contour>
      <point x="442" y="786" type="line"/>
      <point x="227" y="1001" type="line" smooth="yes"/>
      <point x="194" y="1034"/>
      <point x="164" y="1051"/>
      <point x="137" y="1051" type="curve" smooth="yes"/>
      <point x="106" y="1051"/>
      <point x="90" y="1032"/>
      <point x="90" y="993" type="curve" smooth="yes"/>
      <point x="90" y="977"/>
      <point x="113" y="954"/>
      <point x="158" y="926" type="curve" smooth="yes"/>
      <point x="379" y="786" type="line"/>
    </contour>
    <contour>
      <point x="294" y="760" type="move" name="_above"/>
    </contour>
  </outline>
</glyph>
<glyph name="acute" format="2">
  <advance width="528"/>
  <unicode hex="00B4"/>
  <anchor x="227" y="760" name="_above"/>
  <outline>
    <contour>
      <point x="434" y="1001" type="curve"/>
      <point x="434" y="1020"/>
      <point x="414" y="1051"/>
      <point x="395" y="1051" type="curve" smooth="yes"/>
      <point x="358" y="1051"/>
      <point x="326" y="1026"/>
      <point x="301" y="1001" type="curve" smooth="yes"/>
      <point x="88" y="786" type="line"/>
      <point x="150" y="786" type="line"/>
      <point x="373" y="926" type="line" smooth="yes"/>
      <point x="397" y="942"/>
      <point x="434" y="969"/>
    </contour>
  </outline>
</glyph>
<glyph name="multiply" format="1">
  <advance width="983"/>
  <unicode hex="00D7"/>
  <outline>
    <contour>
      <point x="438" y="471" type="line"/>
      <point x="96" y="129" type="line"/>
      <point x="152" y="74" type="line"/>
      <point x="494" y="416" type="line"/>
      <point x="838" y="74" type="line"/>
      <point x="893" y="129" type="line"/>
      <point x="551" y="471" type="line"/>
      <point x="893" y="815" type="line"/>
      <point x="838" y="870" type="line"/>
      <point x="494" y="528" type="line"/>
      <point x="152" y="870" type="line"/>
      <point x="96" y="815" type="line"/>
    </contour>
  </outline>
</glyph>
<glyph name="circumflex" format="1">
  <advance width="483"/>
  <unicode hex="02C6"/>
  <outline>
    <contour>
      <point x="483" y="786" type="line"/>
      <point x="291" y="1044" type="line"/>
      <point x="195" y="1044" type="line"/>
      <point x="0" y="786" type="line"/>
      <point x="53" y="786" type="line"/>
      <point x="242" y="946" type="line"/>
      <point x="430" y="786" type="line"/>
    </contour>
    <contour>
      <point x="242" y="770" type="move" name="_above"/>
    </contour>
  </outline>
</glyph>
<glyph name="caron" format="1">
  <advance width="485"/>
  <unicode hex="02C7"/>
  <outline>
    <contour>
      <point x="485" y="1045" type="line"/>
      <point x="431" y="1045" type="line"/>
      <point x="242" y="886" type="line"/>
      <point x="54" y="1045" type="line"/>
      <point x="0" y="1045" type="line"/>
      <point x="194" y="786" type="line"/>
      <point x="291" y="786" type="line"/>
    </contour>
    <contour>
      <point x="242" y="760" type="move" name="_above"/>
    </contour>
  </outline>
</glyph>
<glyph name="number-ar" format="2">
  <advance width="1472"/>
  <unicode hex="0600"/>
  <outline>
    <contour>
      <point x="1347" y="346" type="curve" smooth="yes"/>
      <point x="1292" y="372"/>
      <point x="1281" y="380"/>
      <point x="1281" y="433" type="curve" smooth="yes"/>
      <point x="1281" y="483"/>
      <point x="1323" y="645"/>
      <point x="1392" y="683" type="curve" smooth="yes"/>
      <point x="1422" y="698"/>
      <point x="1454" y="942"/>
      <point x="1410" y="942" type="curve" smooth="yes"/>
      <point x="1359" y="942"/>
      <point x="1185" y="656"/>
      <point x="1185" y="364" type="curve" smooth="yes"/>
      <point x="1185" y="291"/>
      <point x="1001" y="186"/>
      <point x="698" y="186" type="curve" smooth="yes"/>
      <point x="416" y="186"/>
      <point x="336" y="208"/>
      <point x="100" y="268" type="curve" smooth="yes"/>
      <point x="67" y="276"/>
      <point x="21" y="200"/>
      <point x="48" y="183" type="curve" smooth="yes"/>
      <point x="205" y="76"/>
      <point x="394" y="-10"/>
      <point x="682" y="-10" type="curve" smooth="yes"/>
      <point x="1023" y="-10"/>
      <point x="1179" y="139"/>
      <point x="1246" y="139" type="curve" smooth="yes"/>
      <point x="1271" y="139"/>
      <point x="1263" y="134"/>
      <point x="1279" y="134" type="curve" smooth="yes"/>
      <point x="1341" y="134"/>
      <point x="1388" y="326"/>
    </contour>
  </outline>
</glyph>
<glyph name="year-ar" format="2">
  <advance width="1741"/>
  <unicode hex="0601"/>
  <anchor x="833" y="312" name="digit"/>
  <outline>
    <contour>
      <point x="1694" y="186" type="curve" smooth="yes"/>
      <point x="1720" y="211"/>
      <point x="1668" y="251"/>
      <point x="1644" y="238" type="curve" smooth="yes"/>
      <point x="1445" y="123"/>
      <point x="1316" y="72"/>
      <point x="1046" y="72" type="curve" smooth="yes"/>
      <point x="819" y="72"/>
      <point x="629" y="164"/>
      <point x="542" y="164" type="curve" smooth="yes"/>
      <point x="475" y="164"/>
      <point x="457" y="-24"/>
      <point x="374" y="-24" type="curve" smooth="yes"/>
      <point x="329" y="-24"/>
      <point x="269" y="-3"/>
      <point x="226" y="-3" type="curve" smooth="yes"/>
      <point x="153" y="-3"/>
      <point x="86" y="-126"/>
      <point x="42" y="-229" type="curve" smooth="yes"/>
      <point x="32" y="-250"/>
      <point x="59" y="-281"/>
      <point x="70" y="-269" type="curve" smooth="yes"/>
      <point x="127" y="-213"/>
      <point x="180" y="-163"/>
      <point x="227" y="-163" type="curve" smooth="yes"/>
      <point x="277" y="-163"/>
      <point x="305" y="-182"/>
      <point x="362" y="-182" type="curve" smooth="yes"/>
      <point x="456" y="-182"/>
      <point x="506" y="-11"/>
      <point x="551" y="-11" type="curve" smooth="yes"/>
      <point x="617" y="-11"/>
      <point x="749" y="-75"/>
      <point x="1013" y="-75" type="curve" smooth="yes"/>
      <point x="1235" y="-75"/>
      <point x="1466" y="-33"/>
    </contour>
  </outline>
</glyph>
<glyph name="pagenumber-ar" format="2">
  <advance width="1875"/>
  <unicode hex="0603"/>
  <anchor x="171" y="335" name="digit"/>
  <outline>
    <contour>
      <point x="1674" y="800" type="curve" smooth="yes"/>
      <point x="1381" y="800"/>
      <point x="1124" y="277"/>
      <point x="1077" y="88" type="curve" smooth="yes"/>
      <point x="1066" y="46"/>
      <point x="1111" y="-20"/>
      <point x="1119" y="22" type="curve" smooth="yes"/>
      <point x="1219" y="463"/>
      <point x="1439" y="597"/>
      <point x="1584" y="597" type="curve" smooth="yes"/>
      <point x="1668" y="597"/>
      <point x="1725" y="553"/>
      <point x="1725" y="498" type="curve" smooth="yes"/>
      <point x="1725" y="412"/>
      <point x="1452" y="318"/>
      <point x="1202" y="318" type="curve" smooth="yes"/>
      <point x="1021" y="318"/>
      <point x="1037" y="397"/>
      <point x="992" y="397" type="curve" smooth="yes"/>
      <point x="959" y="397"/>
      <point x="891" y="137"/>
      <point x="419" y="137" type="curve" smooth="yes"/>
      <point x="285" y="137"/>
      <point x="165" y="150"/>
      <point x="81" y="185" type="curve" smooth="yes"/>
      <point x="56" y="196"/>
      <point x="25" y="136"/>
      <point x="48" y="119" type="curve" smooth="yes"/>
      <point x="150" y="41"/>
      <point x="312" y="-10"/>
      <point x="450" y="-10" type="curve" smooth="yes"/>
      <point x="843" y="-10"/>
      <point x="986" y="170"/>
      <point x="1007" y="170" type="curve" smooth="yes"/>
      <point x="1041" y="170"/>
      <point x="1037" y="149"/>
      <point x="1140" y="149" type="curve" smooth="yes"/>
      <point x="1247" y="149"/>
      <point x="1835" y="168"/>
      <point x="1835" y="591" type="curve" smooth="yes"/>
      <point x="1835" y="707"/>
      <point x="1791" y="800"/>
    </contour>
  </outline>
</glyph>
<glyph name="samvat-ar" format="2">
  <advance width="2159"/>
  <unicode hex="0604"/>
  <anchor x="206" y="450" name="digit"/>
  <outline>
    <contour>
      <point x="2119" y="913" type="curve"/>
      <point x="2119" y="1016"/>
      <point x="2060" y="1128"/>
      <point x="2033" y="1128" type="curve"/>
      <point x="1999" y="1128"/>
      <point x="1915" y="883"/>
      <point x="1915" y="873" type="curve"/>
      <point x="1915" y="866"/>
      <point x="2035" y="846"/>
      <point x="2035" y="800" type="curve"/>
      <point x="2035" y="778"/>
      <point x="2022" y="757"/>
      <point x="1987" y="757" type="curve"/>
      <point x="1908" y="757"/>
      <point x="1841" y="815"/>
      <point x="1803" y="935" type="curve"/>
      <point x="1798" y="951"/>
      <point x="1786" y="966"/>
      <point x="1776" y="966" type="curve"/>
      <point x="1758" y="966"/>
      <point x="1751" y="952"/>
      <point x="1750" y="940" type="curve"/>
      <point x="1738" y="814"/>
      <point x="1684" y="703"/>
      <point x="1578" y="700" type="curve"/>
      <point x="1478" y="696"/>
      <point x="1397" y="845"/>
      <point x="1311" y="845" type="curve"/>
      <point x="1256" y="845"/>
      <point x="1207" y="765"/>
      <point x="1157" y="645" type="curve"/>
      <point x="1136" y="595"/>
      <point x="1119" y="516"/>
      <point x="1119" y="460" type="curve"/>
      <point x="1119" y="433"/>
      <point x="1119" y="372"/>
      <point x="1139" y="314" type="curve"/>
      <point x="1076" y="227"/>
      <point x="947" y="192"/>
      <point x="671" y="192" type="curve"/>
      <point x="447" y="192"/>
      <point x="115" y="241"/>
      <point x="62" y="253" type="curve"/>
      <point x="57" y="254"/>
      <point x="40" y="222"/>
      <point x="40" y="173" type="curve"/>
      <point x="40" y="145"/>
      <point x="486" y="-34"/>
      <point x="853" y="-34" type="curve" smooth="yes"/>
      <point x="1019" y="-34"/>
      <point x="1212" y="28"/>
      <point x="1268" y="103" type="curve"/>
      <point x="1312" y="53"/>
      <point x="1406" y="16"/>
      <point x="1469" y="-1" type="curve"/>
      <point x="1511" y="-1"/>
      <point x="1534" y="184"/>
      <point x="1534" y="209" type="curve"/>
      <point x="1534" y="227"/>
      <point x="1531" y="233"/>
      <point x="1509" y="241" type="curve"/>
      <point x="1347" y="294"/>
      <point x="1227" y="355"/>
      <point x="1227" y="504" type="curve"/>
      <point x="1227" y="555"/>
      <point x="1260" y="580"/>
      <point x="1273" y="580" type="curve"/>
      <point x="1319" y="580"/>
      <point x="1417" y="438"/>
      <point x="1521" y="438" type="curve"/>
      <point x="1639" y="438"/>
      <point x="1688" y="566"/>
      <point x="1743" y="665" type="curve"/>
      <point x="1782" y="590"/>
      <point x="1834" y="513"/>
      <point x="1916" y="513" type="curve"/>
      <point x="2082" y="513"/>
      <point x="2119" y="815"/>
    </contour>
  </outline>
</glyph>
<glyph name="comma-ar" format="2">
  <advance width="604"/>
  <unicode hex="060C"/>
  <outline>
    <contour>
      <point x="342" y="181" type="line"/>
      <point x="301" y="201" type="line"/>
      <point x="299" y="218"/>
      <point x="297" y="232"/>
      <point x="297" y="248" type="curve" smooth="yes"/>
      <point x="297" y="304"/>
      <point x="334" y="355"/>
      <point x="362" y="402" type="curve"/>
      <point x="342" y="412" type="line"/>
      <point x="242" y="359"/>
      <point x="193" y="257"/>
      <point x="193" y="150" type="curve" smooth="yes"/>
      <point x="193" y="107"/>
      <point x="244" y="11"/>
      <point x="291" y="11" type="curve" smooth="yes"/>
      <point x="322" y="11"/>
      <point x="373" y="99"/>
      <point x="385" y="115" type="curve"/>
    </contour>
  </outline>
</glyph>
<glyph name="dateseparator-ar" format="2">
  <advance width="550"/>
  <unicode hex="060D"/>
  <outline>
    <contour>
      <point x="482" y="371" type="curve" smooth="yes"/>
      <point x="293" y="265"/>
      <point x="107" y="-62"/>
      <point x="41" y="-317" type="curve" smooth="yes"/>
      <point x="34" y="-344"/>
      <point x="89" y="-324"/>
      <point x="100" y="-294" type="curve" smooth="yes"/>
      <point x="157" y="-138"/>
      <point x="310" y="27"/>
      <point x="427" y="92" type="curve" smooth="yes"/>
      <point x="481" y="122"/>
      <point x="550" y="409"/>
    </contour>
  </outline>
</glyph>
<glyph name="sadabove-ar" format="2">
  <unicode hex="0610"/>
  <outline>
    <contour>
      <point x="645" y="1409"/>
      <point x="425" y="1435" type="curve"/>
      <point x="456" y="1413" type="line"/>
      <point x="449" y="1440"/>
      <point x="439" y="1457"/>
      <point x="428" y="1480" type="curve"/>
      <point x="418" y="1480"/>
      <point x="388" y="1423"/>
      <point x="388" y="1410" type="curve"/>
      <point x="398" y="1370"/>
      <point x="400" y="1253"/>
      <point x="393" y="1215" type="curve"/>
      <point x="450" y="1270" type="line"/>
      <point x="456" y="1312"/>
      <point x="463" y="1354"/>
      <point x="459" y="1380" type="curve"/>
      <point x="425" y="1360" type="line"/>
      <point x="656" y="1355"/>
      <point x="875" y="1415"/>
      <point x="875" y="1553" type="curve" smooth="yes"/>
      <point x="875" y="1605"/>
      <point x="848" y="1635"/>
      <point x="793" y="1635" type="curve" smooth="yes"/>
      <point x="660" y="1635"/>
      <point x="538" y="1488"/>
      <point x="485" y="1338" type="curve"/>
      <point x="485" y="1325"/>
      <point x="518" y="1308"/>
      <point x="530" y="1308" type="curve"/>
      <point x="563" y="1430"/>
      <point x="655" y="1545"/>
      <point x="755" y="1545" type="curve" smooth="yes"/>
      <point x="793" y="1545"/>
      <point x="810" y="1535"/>
      <point x="810" y="1510" type="curve" smooth="yes"/>
      <point x="810" y="1473"/>
    </contour>
  </outline>
</glyph>
<glyph name="ainabove-ar" format="2">
  <unicode hex="0611"/>
  <outline>
    <contour>
      <point x="413" y="1230" type="line"/>
      <point x="425" y="1321"/>
      <point x="415" y="1422"/>
      <point x="388" y="1455" type="curve"/>
      <point x="378" y="1455"/>
      <point x="349" y="1399"/>
      <point x="349" y="1392" type="curve"/>
      <point x="366" y="1340"/>
      <point x="371" y="1249"/>
      <point x="354" y="1177" type="curve"/>
    </contour>
    <contour>
      <point x="603" y="1336" type="curve"/>
      <point x="711" y="1411" type="line"/>
      <point x="632" y="1378"/>
      <point x="586" y="1425"/>
      <point x="582" y="1465" type="curve"/>
      <point x="579" y="1445" type="line"/>
      <point x="594" y="1490"/>
      <point x="657" y="1516"/>
      <point x="704" y="1516" type="curve" smooth="yes"/>
      <point x="717" y="1516"/>
      <point x="728" y="1514"/>
      <point x="738" y="1510" type="curve"/>
      <point x="742" y="1516" type="line"/>
      <point x="727" y="1553"/>
      <point x="697" y="1573"/>
      <point x="665" y="1573" type="curve" smooth="yes"/>
      <point x="614" y="1573"/>
      <point x="560" y="1520"/>
      <point x="560" y="1395" type="curve" smooth="yes"/>
      <point x="560" y="1368"/>
      <point x="575" y="1351"/>
    </contour>
    <contour>
      <point x="816" y="1459" type="line"/>
      <point x="600" y="1361"/>
      <point x="533" y="1341"/>
      <point x="404" y="1404" type="curve"/>
      <point x="412" y="1321" type="line"/>
      <point x="541" y="1287"/>
      <point x="680" y="1336"/>
      <point x="816" y="1393" type="curve"/>
    </contour>
  </outline>
</glyph>
<glyph name="absNameMarker" format="2">
  <unicode hex="0614"/>
  <anchor x="556" y="1402" name="_diaA"/>
  <anchor x="556" y="1749" name="diaA"/>
  <outline>
    <contour>
      <point x="96" y="1497" type="line"/>
      <point x="131" y="1495"/>
      <point x="166" y="1493"/>
      <point x="201" y="1493" type="curve" smooth="yes"/>
      <point x="349" y="1493"/>
      <point x="503" y="1506"/>
      <point x="649" y="1528" type="curve"/>
      <point x="637" y="1539" type="line"/>
      <point x="653" y="1446"/>
      <point x="696" y="1401"/>
      <point x="788" y="1401" type="curve" smooth="yes"/>
      <point x="913" y="1401"/>
      <point x="977" y="1589"/>
      <point x="977" y="1692" type="curve" smooth="yes"/>
      <point x="977" y="1704"/>
      <point x="977" y="1716"/>
      <point x="975" y="1729" type="curve"/>
      <point x="899" y="1675" type="line"/>
      <point x="909" y="1591"/>
      <point x="897" y="1483"/>
      <point x="788" y="1483" type="curve" smooth="yes"/>
      <point x="723" y="1483"/>
      <point x="713" y="1565"/>
      <point x="713" y="1614" type="curve" smooth="yes"/>
      <point x="713" y="1622"/>
      <point x="713" y="1630"/>
      <point x="715" y="1638" type="curve"/>
      <point x="561" y="1561"/>
      <point x="201" y="1542"/>
      <point x="20" y="1542" type="curve"/>
    </contour>
  </outline>
</glyph>
<glyph name="absTripleDotPunct" format="1">
  <advance width="626"/>
  <unicode hex="061E"/>
  <outline>
    <contour>
      <point x="414" y="364" type="line"/>
      <point x="310" y="471" type="line"/>
      <point x="206" y="364" type="line" name="sv01"/>
      <point x="310" y="260" type="line" name="ah01"/>
    </contour>
    <contour>
      <point x="270" y="106" type="line"/>
      <point x="166" y="210" type="line" name="sh01"/>
      <point x="59" y="106" type="line" name="av01"/>
      <point x="166" y="-1" type="line"/>
    </contour>
    <contour>
      <point x="561" y="106" type="line" name="sv02"/>
      <point x="454" y="210" type="line" name="sh02"/>
      <point x="350" y="106" type="line"/>
      <point x="454" y="-1" type="line"/>
    </contour>
  </outline>
</glyph>
<glyph name="absQuestionMark" format="2">
  <advance width="727"/>
  <unicode hex="061F"/>
  <outline>
    <contour>
      <point x="354" y="184" type="curve" smooth="yes"/>
      <point x="317" y="184"/>
      <point x="259" y="129"/>
      <point x="259" y="90" type="curve" smooth="yes"/>
      <point x="259" y="51"/>
      <point x="317" y="-6"/>
      <point x="354" y="-6" type="curve" smooth="yes"/>
      <point x="392" y="-6"/>
      <point x="450" y="51"/>
      <point x="450" y="90" type="curve" smooth="yes"/>
      <point x="450" y="129"/>
      <point x="392" y="184"/>
    </contour>
    <contour>
      <point x="358" y="426" type="curve" smooth="yes"/>
      <point x="365" y="407"/>
      <point x="368" y="390"/>
      <point x="368" y="375" type="curve" smooth="yes"/>
      <point x="368" y="320"/>
      <point x="327" y="299"/>
      <point x="327" y="299" type="curve"/>
      <point x="386" y="262" type="line"/>
      <point x="386" y="262"/>
      <point x="427" y="317"/>
      <point x="427" y="389" type="curve" smooth="yes"/>
      <point x="427" y="439"/>
      <point x="407" y="498"/>
      <point x="341" y="551" type="curve" smooth="yes"/>
      <point x="286" y="596"/>
      <point x="263" y="645"/>
      <point x="263" y="686" type="curve" smooth="yes"/>
      <point x="263" y="730"/>
      <point x="293" y="771"/>
      <point x="341" y="771" type="curve" smooth="yes"/>
      <point x="385" y="771"/>
      <point x="448" y="729"/>
      <point x="448" y="729" type="curve"/>
      <point x="495" y="856" type="line"/>
      <point x="466" y="876"/>
      <point x="398" y="900"/>
      <point x="332" y="900" type="curve" smooth="yes"/>
      <point x="282" y="900"/>
      <point x="233" y="886"/>
      <point x="204" y="844" type="curve" smooth="yes"/>
      <point x="175" y="802"/>
      <point x="163" y="762"/>
      <point x="163" y="725" type="curve" smooth="yes"/>
      <point x="163" y="581"/>
      <point x="338" y="476"/>
    </contour>
  </outline>
</glyph>
<glyph name="absHamza" format="2">
  <advance width="609"/>
  <unicode hex="0621"/>
  <anchor x="308" y="564" name="above"/>
  <anchor x="137" y="595" name="alef"/>
  <anchor x="304" y="0" name="below"/>
  <anchor x="310" y="632" name="diaA"/>
  <anchor x="281" y="-113" name="diaB"/>
  <outline>
    <contour>
      <point x="549" y="248" type="line"/>
      <point x="331" y="248" type="line" smooth="yes"/>
      <point x="299" y="248"/>
      <point x="211" y="268"/>
      <point x="211" y="311" type="curve" smooth="yes"/>
      <point x="211" y="350"/>
      <point x="274" y="393"/>
      <point x="309" y="393" type="curve" smooth="yes"/>
      <point x="342" y="393"/>
      <point x="368" y="371"/>
      <point x="397" y="371" type="curve" smooth="yes"/>
      <point x="426" y="371"/>
      <point x="450" y="408"/>
      <point x="450" y="436" type="curve" smooth="yes"/>
      <point x="450" y="475"/>
      <point x="401" y="514"/>
      <point x="364" y="514" type="curve" smooth="yes"/>
      <point x="313" y="514"/>
      <point x="96" y="346"/>
      <point x="96" y="291" type="curve" smooth="yes"/>
      <point x="96" y="233"/>
      <point x="137" y="178"/>
      <point x="182" y="150" type="curve"/>
      <point x="131" y="104"/>
      <point x="100" y="74"/>
      <point x="67" y="35" type="curve"/>
      <point x="104" y="0" type="line"/>
      <point x="188" y="80"/>
      <point x="303" y="141"/>
      <point x="420" y="141" type="curve" smooth="yes"/>
      <point x="440" y="141"/>
      <point x="460" y="141"/>
      <point x="481" y="137" type="curve"/>
    </contour>
  </outline>
</glyph>
<glyph name="hamza-ar" format="2">
  <advance width="609"/>
  <unicode hex="0621"/>
  <anchor x="308" y="564" name="above"/>
  <anchor x="137" y="595" name="alef"/>
  <anchor x="304" y="0" name="below"/>
  <anchor x="310" y="632" name="diaA"/>
  <anchor x="281" y="-113" name="diaB"/>
  <outline>
    <contour>
      <point x="355" y="239" type="line"/>
      <point x="281" y="232"/>
      <point x="191" y="308"/>
      <point x="191" y="331" type="curve" smooth="yes"/>
      <point x="191" y="370"/>
      <point x="244" y="413"/>
      <point x="279" y="413" type="curve" smooth="yes"/>
      <point x="322" y="413"/>
      <point x="348" y="361"/>
      <point x="397" y="361" type="curve" smooth="yes"/>
      <point x="434" y="361"/>
      <point x="455" y="392"/>
      <point x="455" y="425" type="curve" smooth="yes"/>
      <point x="455" y="464"/>
      <point x="427" y="507"/>
      <point x="364" y="507" type="curve" smooth="yes"/>
      <point x="302" y="507"/>
      <point x="94" y="368"/>
      <point x="94" y="269" type="curve" smooth="yes"/>
      <point x="94" y="243"/>
      <point x="131" y="180"/>
      <point x="200" y="155" type="curve"/>
    </contour>
    <contour>
      <point x="549" y="248" type="line"/>
      <point x="516" y="254"/>
      <point x="485" y="256"/>
      <point x="456" y="256" type="curve" smooth="yes"/>
      <point x="281" y="256"/>
      <point x="174" y="163"/>
      <point x="67" y="35" type="curve"/>
      <point x="104" y="0" type="line"/>
      <point x="192" y="84"/>
      <point x="313" y="142"/>
      <point x="425" y="142" type="curve" smooth="yes"/>
      <point x="444" y="142"/>
      <point x="463" y="141"/>
      <point x="481" y="137" type="curve"/>
    </contour>
  </outline>
</glyph>
<glyph name="absAlefHamzaAbove" format="1">
  <advance width="362"/>
  <unicode hex="0623"/>
  <outline>
    <component base="absAlef"/>
    <component base="_hamza" xOffset="211" yOffset="1388"/>
    <contour>
      <point x="195" y="1641" type="move" name="diaA"/>
    </contour>
    <contour>
      <point x="163" y="-150" type="move" name="diaB"/>
    </contour>
  </outline>
</glyph>
<glyph name="absWawHamzaAbove" format="1">
  <advance width="612"/>
  <unicode hex="0624"/>
  <outline>
    <component base="absWaw"/>
    <component base="_hamza" xOffset="412" yOffset="706"/>
    <contour>
      <point x="85" y="852" type="move" name="alef"/>
    </contour>
    <contour>
      <point x="317" y="964" type="move" name="diaA"/>
    </contour>
    <contour>
      <point x="142" y="-425" type="move" name="diaB"/>
    </contour>
  </outline>
</glyph>
<glyph name="absAlef" format="2">
  <advance width="362"/>
  <unicode hex="0627"/>
  <anchor x="195" y="1176" name="above"/>
  <anchor x="195" y="-50" name="below"/>
  <anchor x="195" y="1176" name="diaA"/>
  <anchor x="162" y="-150" name="diaB"/>
  <outline>
    <contour>
      <point x="137" y="987" type="line"/>
      <point x="127" y="674"/>
      <point x="162" y="465"/>
      <point x="152" y="-5" type="curve"/>
      <point x="183" y="0"/>
      <point x="208" y="21"/>
      <point x="215" y="54" type="curve" smooth="yes"/>
      <point x="275" y="356"/>
      <point x="232" y="811"/>
      <point x="242" y="1126" type="curve"/>
    </contour>
  </outline>
</glyph>
<glyph name="absTehMarbuta" format="1">
  <advance width="471"/>
  <unicode hex="0629"/>
  <outline>
    <component base="absAe"/>
    <component base="_dot2h" xOffset="200" yOffset="868"/>
    <contour>
      <point x="148" y="1122" type="move" name="diaA"/>
    </contour>
    <contour>
      <point x="177" y="-202" type="move" name="diaB"/>
    </contour>
  </outline>
</glyph>
<glyph name="absTeh" format="1">
  <advance width="1220"/>
  <unicode hex="062A"/>
  <outline>
    <component base="absBehNoDots"/>
    <component base="_dot2h" xOffset="624" yOffset="581"/>
    <contour>
      <point x="280" y="690" type="move" name="alef"/>
    </contour>
    <contour>
      <point x="573" y="830" type="move" name="diaA"/>
    </contour>
    <contour>
      <point x="269" y="-235" type="move" name="diaB"/>
    </contour>
  </outline>
</glyph>
<glyph name="absJeem" format="1">
  <advance width="832"/>
  <unicode hex="062C"/>
  <outline>
    <component base="absHah"/>
    <component base="_dot1" xOffset="494" yOffset="-79"/>
    <contour>
      <point x="219" y="742" type="move" name="alef"/>
    </contour>
    <contour>
      <point x="474" y="745" type="move" name="diaA"/>
    </contour>
    <contour>
      <point x="179" y="-724" type="move" name="diaB"/>
    </contour>
  </outline>
</glyph>
<glyph name="absHah" format="2">
  <advance width="827"/>
  <unicode hex="062D"/>
  <anchor x="486" y="613" name="above"/>
  <anchor x="214" y="742" name="alef"/>
  <anchor x="489" y="-79" name="center"/>
  <anchor x="469" y="745" name="diaA"/>
  <anchor x="174" y="-724" name="diaB"/>
  <outline>
    <contour>
      <point x="79" y="307" type="curve"/>
      <point x="116" y="356"/>
      <point x="180" y="417"/>
      <point x="267" y="417" type="curve" smooth="yes"/>
      <point x="323" y="417"/>
      <point x="350" y="400"/>
      <point x="390" y="396" type="curve"/>
      <point x="388" y="403" type="line"/>
      <point x="167" y="265"/>
      <point x="40" y="21"/>
      <point x="40" y="-182" type="curve" smooth="yes"/>
      <point x="40" y="-450"/>
      <point x="252" y="-672"/>
      <point x="635" y="-672" type="curve" smooth="yes"/>
      <point x="709" y="-672"/>
      <point x="861" y="-584"/>
      <point x="933" y="-521" type="curve"/>
      <point x="933" y="-492" type="line"/>
      <point x="710" y="-492" type="line" smooth="yes"/>
      <point x="374" y="-492"/>
      <point x="106" y="-445"/>
      <point x="106" y="-147" type="curve" smooth="yes"/>
      <point x="106" y="78"/>
      <point x="305" y="344"/>
      <point x="673" y="344" type="curve" smooth="yes"/>
      <point x="688" y="344"/>
      <point x="712" y="342"/>
      <point x="726" y="339" type="curve"/>
      <point x="800" y="530" type="line"/>
      <point x="755" y="526"/>
      <point x="710" y="524"/>
      <point x="665" y="524" type="curve" smooth="yes"/>
      <point x="495" y="524"/>
      <point x="436" y="574"/>
      <point x="321" y="574" type="curve" smooth="yes"/>
      <point x="169" y="574"/>
      <point x="75" y="453"/>
    </contour>
  </outline>
</glyph>
<glyph name="hah-ar" format="2">
  <advance width="827"/>
  <unicode hex="062D"/>
  <anchor x="486" y="613" name="above"/>
  <anchor x="214" y="742" name="alef"/>
  <anchor x="489" y="-79" name="center"/>
  <anchor x="469" y="745" name="diaA"/>
  <anchor x="174" y="-724" name="diaB"/>
  <outline>
    <contour>
      <point x="79" y="307" type="curve"/>
      <point x="116" y="356"/>
      <point x="180" y="417"/>
      <point x="267" y="417" type="curve" smooth="yes"/>
      <point x="313" y="417"/>
      <point x="350" y="400"/>
      <point x="390" y="396" type="curve"/>
      <point x="388" y="403" type="line"/>
      <point x="167" y="265"/>
      <point x="40" y="21"/>
      <point x="40" y="-182" type="curve" smooth="yes"/>
      <point x="40" y="-450"/>
      <point x="212" y="-700"/>
      <point x="659" y="-700" type="curve"/>
      <point x="933" y="-549" type="line"/>
      <point x="933" y="-520" type="line"/>
      <point x="710" y="-520" type="line" smooth="yes"/>
      <point x="374" y="-520"/>
      <point x="106" y="-445"/>
      <point x="106" y="-147" type="curve" smooth="yes"/>
      <point x="106" y="126"/>
      <point x="386" y="343"/>
      <point x="660" y="343" type="curve" smooth="yes"/>
      <point x="682" y="343"/>
      <point x="704" y="342"/>
      <point x="726" y="339" type="curve"/>
      <point x="800" y="519" type="line"/>
      <point x="755" y="515"/>
      <point x="710" y="513"/>
      <point x="665" y="513" type="curve" smooth="yes"/>
      <point x="495" y="513"/>
      <point x="419" y="574"/>
      <point x="321" y="574" type="curve" smooth="yes"/>
      <point x="169" y="574"/>
      <point x="79" y="453"/>
    </contour>
  </outline>
</glyph>
<glyph name="absDal" format="2">
  <advance width="580"/>
  <unicode hex="062F"/>
  <anchor x="288" y="701" name="above"/>
  <anchor x="138" y="817" name="alef"/>
  <anchor x="291" y="-89" name="below"/>
  <anchor x="288" y="834" name="diaA"/>
  <anchor x="211" y="-231" name="diaB"/>
  <anchor x="276" y="39" name="ring"/>
  <outline>
    <contour>
      <point x="497" y="240" type="curve" smooth="yes"/>
      <point x="497" y="403"/>
      <point x="364" y="625"/>
      <point x="229" y="645" type="curve" smooth="yes"/>
      <point x="214" y="647"/>
      <point x="193" y="467"/>
      <point x="208" y="465" type="curve" smooth="yes"/>
      <point x="343" y="445"/>
      <point x="457" y="329"/>
      <point x="457" y="218" type="curve" smooth="yes"/>
      <point x="457" y="185"/>
      <point x="339" y="165"/>
      <point x="255" y="165" type="curve" smooth="yes"/>
      <point x="195" y="165"/>
      <point x="134" y="171"/>
      <point x="102" y="205" type="curve"/>
      <point x="88" y="175"/>
      <point x="80" y="71"/>
      <point x="87" y="24" type="curve"/>
      <point x="119" y="-10"/>
      <point x="175" y="-15"/>
      <point x="255" y="-15" type="curve" smooth="yes"/>
      <point x="363" y="-15"/>
      <point x="497" y="56"/>
    </contour>
  </outline>
</glyph>
<glyph name="absReh" format="2">
  <advance width="590"/>
  <unicode hex="0631"/>
  <anchor x="376" y="436" name="above"/>
  <anchor x="122" y="698" name="alef"/>
  <anchor x="372" y="-340" name="below"/>
  <anchor x="158" y="99" name="center"/>
  <anchor x="280" y="697" name="diaA"/>
  <anchor x="167" y="-474" name="diaB"/>
  <anchor x="364" y="-206" name="ring"/>
  <anchor x="409" y="-4" name="through"/>
  <outline>
    <contour>
      <point x="-111" y="-256" type="curve"/>
      <point x="-46" y="-307"/>
      <point x="83" y="-344"/>
      <point x="165" y="-344" type="curve" smooth="yes"/>
      <point x="277" y="-344"/>
      <point x="364" y="-268"/>
      <point x="425" y="-148" type="curve" smooth="yes"/>
      <point x="487" y="-27"/>
      <point x="507" y="64"/>
      <point x="507" y="150" type="curve" smooth="yes"/>
      <point x="507" y="198"/>
      <point x="499" y="246"/>
      <point x="471" y="290" type="curve" smooth="yes"/>
      <point x="443" y="334"/>
      <point x="409" y="365"/>
      <point x="378" y="385" type="curve"/>
      <point x="337" y="225" type="line"/>
      <point x="368" y="199"/>
      <point x="448" y="123"/>
      <point x="448" y="82" type="curve" smooth="yes"/>
      <point x="448" y="-2"/>
      <point x="337" y="-98"/>
      <point x="278" y="-145" type="curve" smooth="yes"/>
      <point x="182" y="-221"/>
      <point x="54" y="-258"/>
      <point x="-32" y="-258" type="curve" smooth="yes"/>
      <point x="-68" y="-258"/>
      <point x="-88" y="-253"/>
      <point x="-107" y="-247" type="curve"/>
      <point x="-111" y="-247"/>
      <point x="-109" y="-256"/>
    </contour>
  </outline>
</glyph>
<glyph name="absSeen" format="2">
  <advance width="1377"/>
  <unicode hex="0633"/>
  <anchor x="965" y="459" name="above"/>
  <anchor x="288" y="464" name="alef"/>
  <anchor x="1034" y="-64" name="below"/>
  <anchor x="683" y="700" name="diaA"/>
  <anchor x="176" y="-514" name="diaB"/>
  <outline>
    <contour>
      <point x="1037" y="-15"/>
      <point x="1106" y="215"/>
      <point x="1106" y="356" type="curve" smooth="yes"/>
      <point x="1106" y="366"/>
      <point x="1089" y="372"/>
      <point x="1088" y="362" type="curve" smooth="yes"/>
      <point x="1082" y="281"/>
      <point x="967" y="165"/>
      <point x="872" y="165" type="curve" smooth="yes"/>
      <point x="796" y="165"/>
      <point x="787" y="168"/>
      <point x="733" y="211" type="curve"/>
      <point x="681" y="311" type="line"/>
      <point x="600" y="166" type="line"/>
      <point x="659" y="75"/>
      <point x="699" y="-10"/>
      <point x="697" y="-123" type="curve"/>
      <point x="702" y="-103" type="line"/>
      <point x="643" y="-201"/>
      <point x="476" y="-240"/>
      <point x="366" y="-240" type="curve" smooth="yes"/>
      <point x="221" y="-240"/>
      <point x="114" y="-188"/>
      <point x="114" y="-29" type="curve" smooth="yes"/>
      <point x="114" y="39"/>
      <point x="132" y="103"/>
      <point x="156" y="163" type="curve" smooth="yes"/>
      <point x="160" y="172"/>
      <point x="142" y="174"/>
      <point x="136" y="166" type="curve" smooth="yes"/>
      <point x="92" y="112"/>
      <point x="40" y="-19"/>
      <point x="40" y="-147" type="curve" smooth="yes"/>
      <point x="40" y="-328"/>
      <point x="143" y="-420"/>
      <point x="321" y="-420" type="curve" smooth="yes"/>
      <point x="546" y="-420"/>
      <point x="751" y="-260"/>
      <point x="751" y="-25" type="curve" smooth="yes"/>
      <point x="751" y="-5"/>
      <point x="751" y="16"/>
      <point x="748" y="38" type="curve"/>
      <point x="743" y="26" type="line"/>
      <point x="776" y="3"/>
      <point x="830" y="-15"/>
      <point x="864" y="-15" type="curve" smooth="yes"/>
    </contour>
    <contour>
      <point x="1093" y="265" type="curve"/>
      <point x="1012" y="101" type="line"/>
      <point x="1056" y="55"/>
      <point x="1125" y="21"/>
      <point x="1182" y="21" type="curve" smooth="yes"/>
      <point x="1297" y="21"/>
      <point x="1327" y="206"/>
      <point x="1327" y="317" type="curve" smooth="yes"/>
      <point x="1327" y="340"/>
      <point x="1325" y="401"/>
      <point x="1304" y="420" type="curve"/>
      <point x="1249" y="307" type="line"/>
      <point x="1267" y="279"/>
      <point x="1278" y="242"/>
      <point x="1278" y="226" type="curve" smooth="yes"/>
      <point x="1278" y="212"/>
      <point x="1245" y="205"/>
      <point x="1226" y="205" type="curve" smooth="yes"/>
      <point x="1178" y="205"/>
      <point x="1115" y="221"/>
    </contour>
  </outline>
</glyph>
<glyph name="absSad" format="2">
  <advance width="1599"/>
  <unicode hex="0635"/>
  <anchor x="965" y="556" name="above"/>
  <anchor x="285" y="464" name="alef"/>
  <anchor x="1081" y="-87" name="below"/>
  <anchor x="799" y="700" name="diaA"/>
  <anchor x="173" y="-514" name="diaB"/>
  <outline>
    <contour>
      <point x="818" y="153" type="curve"/>
      <point x="880" y="148" type="line"/>
      <point x="1013" y="285"/>
      <point x="1200" y="400"/>
      <point x="1273" y="400" type="curve" smooth="yes"/>
      <point x="1359" y="400"/>
      <point x="1442" y="360"/>
      <point x="1442" y="303" type="curve" smooth="yes"/>
      <point x="1442" y="186"/>
      <point x="768" y="117"/>
      <point x="705" y="217" type="curve" smooth="yes"/>
      <point x="691" y="244"/>
      <point x="658" y="279"/>
      <point x="648" y="307" type="curve"/>
      <point x="597" y="166" type="line"/>
      <point x="654" y="78"/>
      <point x="676" y="-4"/>
      <point x="676" y="-111" type="curve"/>
      <point x="613" y="-203"/>
      <point x="470" y="-236"/>
      <point x="363" y="-236" type="curve" smooth="yes"/>
      <point x="218" y="-236"/>
      <point x="111" y="-188"/>
      <point x="111" y="-29" type="curve" smooth="yes"/>
      <point x="111" y="39"/>
      <point x="137" y="111"/>
      <point x="148" y="163" type="curve"/>
      <point x="148" y="167"/>
      <point x="148" y="170"/>
      <point x="144" y="170" type="curve" smooth="yes"/>
      <point x="140" y="170"/>
      <point x="139" y="170"/>
      <point x="135" y="165" type="curve" smooth="yes"/>
      <point x="61" y="57"/>
      <point x="37" y="-47"/>
      <point x="37" y="-147" type="curve" smooth="yes"/>
      <point x="37" y="-328"/>
      <point x="140" y="-420"/>
      <point x="318" y="-420" type="curve" smooth="yes"/>
      <point x="511" y="-420"/>
      <point x="650" y="-315"/>
      <point x="713" y="-137" type="curve" smooth="yes"/>
      <point x="731" y="-91"/>
      <point x="744" y="-41"/>
      <point x="742" y="1" type="curve"/>
      <point x="733" y="-8" type="line"/>
      <point x="880" y="-11"/>
      <point x="1116" y="5"/>
      <point x="1254" y="61" type="curve" smooth="yes"/>
      <point x="1385" y="115"/>
      <point x="1561" y="256"/>
      <point x="1561" y="412" type="curve" smooth="yes"/>
      <point x="1561" y="498"/>
      <point x="1492" y="557"/>
      <point x="1408" y="557" type="curve" smooth="yes"/>
      <point x="1236" y="557"/>
      <point x="933" y="278"/>
    </contour>
  </outline>
</glyph>
<glyph name="absTah" format="2">
  <advance width="1124"/>
  <unicode hex="0637"/>
  <anchor x="810" y="635" name="above"/>
  <anchor x="211" y="845" name="alef"/>
  <anchor x="538" y="-66" name="below"/>
  <anchor x="475" y="1231" name="diaA"/>
  <anchor x="305" y="-202" name="diaB"/>
  <outline>
    <contour>
      <point x="898" y="543" type="curve" smooth="yes"/>
      <point x="781" y="543"/>
      <point x="474" y="331"/>
      <point x="298" y="146" type="curve"/>
      <point x="401" y="146" type="line"/>
      <point x="542" y="283"/>
      <point x="697" y="373"/>
      <point x="800" y="373" type="curve"/>
      <point x="888" y="373"/>
      <point x="947" y="348"/>
      <point x="947" y="287" type="curve" smooth="yes"/>
      <point x="947" y="210"/>
      <point x="585" y="160"/>
      <point x="373" y="162" type="curve" smooth="yes"/>
      <point x="354" y="162"/>
      <point x="259" y="166"/>
      <point x="-5" y="178" type="curve"/>
      <point x="75" y="45"/>
      <point x="210" y="-16"/>
      <point x="361" y="-16" type="curve"/>
      <point x="513" y="-16"/>
      <point x="597" y="-12"/>
      <point x="710" y="29" type="curve" smooth="yes"/>
      <point x="841" y="74"/>
      <point x="1082" y="227"/>
      <point x="1082" y="389" type="curve" smooth="yes"/>
      <point x="1082" y="467"/>
      <point x="1023" y="543"/>
    </contour>
    <contour>
      <point x="507" y="887" type="line"/>
      <point x="433" y="937" type="line"/>
      <point x="433" y="237" type="line"/>
      <point x="507" y="300" type="line"/>
    </contour>
    <component base="_strokeHead" xOffset="203" yOffset="845"/>
  </outline>
</glyph>
<glyph name="absAin" format="2">
  <advance width="800"/>
  <unicode hex="0639"/>
  <anchor x="287" y="672" name="above"/>
  <anchor x="453" y="-12" name="below"/>
  <anchor x="273" y="786" name="diaA"/>
  <anchor x="273" y="-830" name="diaB"/>
  <outline>
    <contour>
      <point x="222" y="40" type="curve"/>
      <point x="405" y="218" type="line"/>
      <point x="244" y="218"/>
      <point x="116" y="297"/>
      <point x="106" y="387" type="curve"/>
      <point x="101" y="342" type="line"/>
      <point x="134" y="443"/>
      <point x="275" y="500"/>
      <point x="381" y="500" type="curve" smooth="yes"/>
      <point x="409" y="500"/>
      <point x="435" y="496"/>
      <point x="456" y="488" type="curve" smooth="yes"/>
      <point x="460" y="486"/>
      <point x="466" y="494"/>
      <point x="466" y="499" type="curve" smooth="yes"/>
      <point x="466" y="500"/>
      <point x="466" y="500"/>
      <point x="466" y="501" type="curve" smooth="yes"/>
      <point x="432" y="583"/>
      <point x="364" y="629"/>
      <point x="293" y="629" type="curve" smooth="yes"/>
      <point x="179" y="629"/>
      <point x="58" y="510"/>
      <point x="58" y="230" type="curve" smooth="yes"/>
      <point x="58" y="169"/>
      <point x="112" y="85"/>
    </contour>
    <contour>
      <point x="633" y="225" type="curve"/>
      <point x="633" y="405" type="line"/>
      <point x="334" y="325"/>
      <point x="98" y="81"/>
      <point x="98" y="-222" type="curve" smooth="yes"/>
      <point x="98" y="-490"/>
      <point x="310" y="-672"/>
      <point x="693" y="-672" type="curve" smooth="yes"/>
      <point x="767" y="-672"/>
      <point x="919" y="-584"/>
      <point x="991" y="-521" type="curve"/>
      <point x="991" y="-492" type="line"/>
      <point x="768" y="-492" type="line" smooth="yes"/>
      <point x="432" y="-492"/>
      <point x="164" y="-485"/>
      <point x="164" y="-187" type="curve" smooth="yes"/>
      <point x="164" y="17"/>
      <point x="328" y="146"/>
    </contour>
  </outline>
</glyph>
<glyph name="absGhain" format="1">
  <advance width="800"/>
  <unicode hex="063A"/>
  <outline>
    <component base="absAin"/>
    <component base="_dot1" xOffset="237" yOffset="852"/>
    <contour>
      <point x="188" y="1049" type="move" name="diaA"/>
    </contour>
    <contour>
      <point x="273" y="-830" type="move" name="diaB"/>
    </contour>
  </outline>
</glyph>
<glyph name="absFarsiYehInvertedV" format="1">
  <advance width="1016"/>
  <unicode hex="063D"/>
  <outline>
    <component base="absYeh.noDots"/>
    <component base="_hat" xOffset="531" yOffset="724"/>
    <contour>
      <point x="340" y="980" type="move" name="alef"/>
    </contour>
    <contour>
      <point x="503" y="1153" type="move" name="diaA"/>
    </contour>
    <contour>
      <point x="260" y="-462" type="move" name="diaB"/>
    </contour>
  </outline>
</glyph>
<glyph name="absTatweel" format="2">
  <advance width="256"/>
  <unicode hex="0640"/>
  <anchor x="114" y="700" name="diaA"/>
  <anchor x="114" y="-200" name="diaB"/>
  <outline>
    <contour>
      <point x="-27" y="180" type="line"/>
      <point x="-65" y="180"/>
      <point x="-83" y="137"/>
      <point x="-83" y="90" type="curve" smooth="yes"/>
      <point x="-83" y="44"/>
      <point x="-65" y="0"/>
      <point x="-27" y="0" type="curve" smooth="yes"/>
      <point x="286" y="0" type="line" smooth="yes"/>
      <point x="323" y="0"/>
      <point x="341" y="44"/>
      <point x="341" y="90" type="curve" smooth="yes"/>
      <point x="341" y="137"/>
      <point x="323" y="180"/>
      <point x="286" y="180" type="curve" smooth="yes"/>
    </contour>
  </outline>
</glyph>
<glyph name="absFeh" format="1">
  <advance width="1220"/>
  <unicode hex="0641"/>
  <outline>
    <component base="absDotlessFeh"/>
    <component base="_dot1" xOffset="1028" yOffset="910"/>
    <contour>
      <point x="270" y="690" type="move" name="alef"/>
    </contour>
    <contour>
      <point x="605" y="732" type="move" name="diaA"/>
    </contour>
    <contour>
      <point x="226" y="-202" type="move" name="diaB"/>
    </contour>
  </outline>
</glyph>
<glyph name="absQaf" format="1">
  <advance width="863"/>
  <unicode hex="0642"/>
  <outline>
    <component base="absQafNoDots"/>
    <component base="_dot2h" xOffset="650" yOffset="678"/>
    <contour>
      <point x="253" y="599" type="move" name="alef"/>
    </contour>
    <contour>
      <point x="430" y="832" type="move" name="diaA"/>
    </contour>
    <contour>
      <point x="221" y="-401" type="move" name="diaB"/>
    </contour>
  </outline>
</glyph>
<glyph name="absKaf" format="2">
  <advance width="1014"/>
  <unicode hex="0643"/>
  <anchor x="880" y="1166" name="above"/>
  <anchor x="242" y="773" name="alef"/>
  <anchor x="729" y="-56" name="below"/>
  <anchor x="521" y="1174" name="diaA"/>
  <anchor x="300" y="-202" name="diaB"/>
  <outline>
    <contour>
      <point x="937" y="827" type="curve"/>
      <point x="846" y="891" type="line"/>
      <point x="875" y="217" type="line"/>
      <point x="798" y="183"/>
      <point x="663" y="182"/>
      <point x="574" y="180" type="curve"/>
      <point x="323" y="180" type="line" smooth="yes"/>
      <point x="204" y="180"/>
      <point x="126" y="219"/>
      <point x="126" y="304" type="curve" smooth="yes"/>
      <point x="126" y="328"/>
      <point x="130" y="358"/>
      <point x="140" y="381" type="curve"/>
      <point x="140" y="386"/>
      <point x="137" y="387"/>
      <point x="134" y="387" type="curve"/>
      <point x="103" y="374"/>
      <point x="49" y="297"/>
      <point x="49" y="218" type="curve" smooth="yes"/>
      <point x="49" y="52"/>
      <point x="124" y="0"/>
      <point x="262" y="0" type="curve" smooth="yes"/>
      <point x="731" y="0" type="line" smooth="yes"/>
      <point x="907" y="0"/>
      <point x="959" y="225"/>
      <point x="959" y="365" type="curve" smooth="yes"/>
      <point x="959" y="502"/>
      <point x="943" y="690"/>
    </contour>
    <contour>
      <point x="689" y="568" type="curve" smooth="yes"/>
      <point x="689" y="667"/>
      <point x="511" y="611"/>
      <point x="511" y="669" type="curve" smooth="yes"/>
      <point x="511" y="697"/>
      <point x="596" y="723"/>
      <point x="635" y="734" type="curve"/>
      <point x="633" y="745"/>
      <point x="619" y="811"/>
      <point x="611" y="823" type="curve"/>
      <point x="485" y="770"/>
      <point x="400" y="656"/>
      <point x="400" y="584" type="curve" smooth="yes"/>
      <point x="400" y="502"/>
      <point x="565" y="543"/>
      <point x="565" y="506" type="curve" smooth="yes"/>
      <point x="565" y="477"/>
      <point x="380" y="460"/>
      <point x="294" y="454" type="curve"/>
      <point x="335" y="427"/>
      <point x="436" y="403"/>
      <point x="483" y="403" type="curve" smooth="yes"/>
      <point x="594" y="403"/>
      <point x="689" y="497"/>
    </contour>
    <contour>
      <point x="880" y="815"/>
      <point x="950" y="784" type="curve"/>
      <point x="967" y="817"/>
      <point x="989" y="898"/>
      <point x="996" y="919" type="curve"/>
      <point x="966" y="941"/>
      <point x="907" y="993"/>
      <point x="907" y="1032" type="curve" smooth="yes"/>
      <point x="907" y="1059"/>
      <point x="913" y="1095"/>
      <point x="920" y="1119" type="curve"/>
      <point x="920" y="1123"/>
      <point x="916" y="1124"/>
      <point x="912" y="1124" type="curve"/>
      <point x="882" y="1110"/>
      <point x="789" y="958"/>
      <point x="789" y="932" type="curve" smooth="yes"/>
      <point x="789" y="879"/>
    </contour>
  </outline>
</glyph>
<glyph name="absLam" format="2">
  <advance width="701"/>
  <unicode hex="0644"/>
  <anchor x="531" y="1413" name="above"/>
  <anchor x="308" y="975" name="alef"/>
  <anchor x="521" y="-10" name="below"/>
  <anchor x="351" y="1422" name="diaA"/>
  <anchor x="221" y="-202" name="diaB"/>
  <anchor x="574" y="760" name="through"/>
  <outline>
    <contour>
      <point x="272" y="-12" type="curve" smooth="yes"/>
      <point x="567" y="-12"/>
      <point x="660" y="223"/>
      <point x="660" y="477" type="curve" smooth="yes"/>
      <point x="660" y="657"/>
      <point x="618" y="913"/>
      <point x="598" y="1089" type="curve"/>
      <point x="521" y="1151" type="line"/>
      <point x="583" y="279" type="line"/>
      <point x="585" y="304" type="line"/>
      <point x="562" y="218"/>
      <point x="397" y="167"/>
      <point x="320" y="167" type="curve" smooth="yes"/>
      <point x="200" y="167"/>
      <point x="116" y="235"/>
      <point x="116" y="376" type="curve" smooth="yes"/>
      <point x="116" y="444"/>
      <point x="135" y="510"/>
      <point x="159" y="570" type="curve" smooth="yes"/>
      <point x="161" y="575"/>
      <point x="144" y="579"/>
      <point x="141" y="575" type="curve" smooth="yes"/>
      <point x="99" y="519"/>
      <point x="42" y="386"/>
      <point x="42" y="258" type="curve" smooth="yes"/>
      <point x="42" y="95"/>
      <point x="126" y="-12"/>
    </contour>
    <component base="_strokeHead" xOffset="300" yOffset="1047"/>
  </outline>
</glyph>
<glyph name="absMeem" format="2">
  <advance width="557"/>
  <unicode hex="0645"/>
  <anchor x="288" y="412" name="above"/>
  <anchor x="147" y="563" name="alef"/>
  <anchor x="329" y="-73" name="below"/>
  <anchor x="288" y="562" name="diaA"/>
  <anchor x="113" y="-644" name="diaB"/>
  <outline>
    <contour>
      <point x="530" y="185" type="curve"/>
      <point x="528" y="228"/>
      <point x="390" y="346"/>
      <point x="273" y="346" type="curve" smooth="yes"/>
      <point x="219" y="346"/>
      <point x="194" y="323"/>
      <point x="179" y="306" type="curve" smooth="yes"/>
      <point x="153" y="277"/>
      <point x="114" y="175"/>
      <point x="114" y="156" type="curve"/>
      <point x="114" y="149"/>
      <point x="123" y="148"/>
      <point x="123" y="148" type="curve"/>
      <point x="143" y="182"/>
      <point x="181" y="193"/>
      <point x="209" y="193" type="curve" smooth="yes"/>
      <point x="253" y="193"/>
      <point x="305" y="163"/>
      <point x="328" y="115" type="curve"/>
      <point x="341" y="125" type="line"/>
      <point x="177" y="127"/>
      <point x="123" y="94"/>
      <point x="84" y="28" type="curve" smooth="yes"/>
      <point x="65" y="-4"/>
      <point x="37" y="-95"/>
      <point x="37" y="-115" type="curve" smooth="yes"/>
      <point x="37" y="-148"/>
      <point x="60" y="-437"/>
      <point x="72" y="-598" type="curve"/>
      <point x="82" y="-599"/>
      <point x="117" y="-537"/>
      <point x="117" y="-504" type="curve"/>
      <point x="104" y="-299"/>
      <point x="101" y="-96"/>
      <point x="101" y="-34" type="curve" smooth="yes"/>
      <point x="101" y="-16"/>
      <point x="110" y="-5"/>
      <point x="124" y="0" type="curve" smooth="yes"/>
      <point x="158" y="12"/>
      <point x="230" y="13"/>
      <point x="330" y="13" type="curve" smooth="yes"/>
      <point x="375" y="13"/>
      <point x="443" y="1"/>
      <point x="443" y="1" type="curve"/>
      <point x="458" y="10"/>
      <point x="524" y="151"/>
    </contour>
  </outline>
</glyph>
<glyph name="absWaw" format="2">
  <advance width="612"/>
  <unicode hex="0648"/>
  <anchor x="396" y="541" name="above"/>
  <anchor x="95" y="694" name="alef"/>
  <anchor x="396" y="-336" name="below"/>
  <anchor x="313" y="697" name="diaA"/>
  <anchor x="142" y="-425" name="diaB"/>
  <anchor x="236" y="49" name="ring"/>
  <anchor x="397" y="-51" name="through"/>
  <outline>
    <contour>
      <point x="389" y="485" type="curve" smooth="yes"/>
      <point x="284" y="485"/>
      <point x="254" y="235"/>
      <point x="254" y="165" type="curve" smooth="yes"/>
      <point x="254" y="71"/>
      <point x="301" y="-10"/>
      <point x="367" y="-10" type="curve" smooth="yes"/>
      <point x="407" y="-10"/>
      <point x="479" y="92"/>
      <point x="491" y="148" type="curve"/>
      <point x="463" y="248" type="line"/>
      <point x="449" y="218"/>
      <point x="396" y="170"/>
      <point x="367" y="170" type="curve" smooth="yes"/>
      <point x="334" y="170"/>
      <point x="309" y="206"/>
      <point x="309" y="218" type="curve" smooth="yes"/>
      <point x="309" y="245"/>
      <point x="348" y="305"/>
      <point x="375" y="305" type="curve" smooth="yes"/>
      <point x="426" y="305"/>
      <point x="480" y="191"/>
      <point x="480" y="75" type="curve" smooth="yes"/>
      <point x="480" y="41"/>
      <point x="475" y="6"/>
      <point x="464" y="-26" type="curve"/>
      <point x="482" y="21" type="line"/>
      <point x="422" y="-136"/>
      <point x="179" y="-232"/>
      <point x="-26" y="-232" type="curve" smooth="yes"/>
      <point x="-67" y="-232"/>
      <point x="-105" y="-229"/>
      <point x="-141" y="-221" type="curve"/>
      <point x="-67" y="-319"/>
      <point x="61" y="-356"/>
      <point x="152" y="-356" type="curve" smooth="yes"/>
      <point x="315" y="-356"/>
      <point x="529" y="-230"/>
      <point x="529" y="74" type="curve" smooth="yes"/>
      <point x="529" y="252"/>
      <point x="491" y="485"/>
    </contour>
  </outline>
</glyph>
<glyph name="waw-ar" format="2">
  <advance width="612"/>
  <unicode hex="0648"/>
  <anchor x="396" y="541" name="above"/>
  <anchor x="95" y="694" name="alef"/>
  <anchor x="396" y="-336" name="below"/>
  <anchor x="313" y="697" name="diaA"/>
  <anchor x="142" y="-425" name="diaB"/>
  <anchor x="236" y="49" name="ring"/>
  <anchor x="397" y="-51" name="through"/>
  <outline>
    <contour>
      <point x="389" y="485" type="curve" smooth="yes"/>
      <point x="284" y="485"/>
      <point x="254" y="235"/>
      <point x="254" y="165" type="curve" smooth="yes"/>
      <point x="254" y="71"/>
      <point x="301" y="-10"/>
      <point x="367" y="-10" type="curve" smooth="yes"/>
      <point x="407" y="-10"/>
      <point x="479" y="92"/>
      <point x="491" y="148" type="curve"/>
      <point x="463" y="248" type="line"/>
      <point x="449" y="218"/>
      <point x="396" y="170"/>
      <point x="367" y="170" type="curve" smooth="yes"/>
      <point x="334" y="170"/>
      <point x="309" y="206"/>
      <point x="309" y="218" type="curve" smooth="yes"/>
      <point x="309" y="245"/>
      <point x="348" y="305"/>
      <point x="375" y="305" type="curve" smooth="yes"/>
      <point x="426" y="305"/>
      <point x="480" y="191"/>
      <point x="480" y="75" type="curve" smooth="yes"/>
      <point x="480" y="41"/>
      <point x="475" y="6"/>
      <point x="464" y="-26" type="curve"/>
      <point x="482" y="21" type="line"/>
      <point x="422" y="-135"/>
      <point x="178" y="-233"/>
      <point x="-26" y="-233" type="curve" smooth="yes"/>
      <point x="-67" y="-233"/>
      <point x="-106" y="-229"/>
      <point x="-141" y="-221" type="curve"/>
      <point x="-148" y="-235" type="line"/>
      <point x="-79" y="-289"/>
      <point x="60" y="-355"/>
      <point x="160" y="-355" type="curve" smooth="yes"/>
      <point x="289" y="-355"/>
      <point x="529" y="-188"/>
      <point x="529" y="74" type="curve" smooth="yes"/>
      <point x="529" y="252"/>
      <point x="491" y="485"/>
    </contour>
  </outline>
</glyph>
<glyph name="absAlefMaksura" format="1">
  <advance width="1016"/>
  <unicode hex="0649"/>
  <outline>
    <component base="absYeh.noDots"/>
    <contour>
      <point x="335" y="539" type="move" name="alef"/>
    </contour>
    <contour>
      <point x="478" y="700" type="move" name="diaA"/>
    </contour>
    <contour>
      <point x="200" y="-462" type="move" name="diaB"/>
    </contour>
  </outline>
</glyph>
<glyph name="absYeh" format="1">
  <advance width="1016"/>
  <unicode hex="064A"/>
  <outline>
    <component base="_dot2h" xOffset="338" yOffset="-587"/>
    <component base="absYeh.noDots"/>
    <contour>
      <point x="335" y="539" type="move" name="alef"/>
    </contour>
    <contour>
      <point x="478" y="700" type="move" name="diaA"/>
    </contour>
    <contour>
      <point x="334" y="-777" type="move" name="diaB"/>
    </contour>
  </outline>
</glyph>
<glyph name="absFathatan" format="2">
  <unicode hex="064B"/>
  <anchor x="226" y="1053" name="_diaA"/>
  <anchor x="226" y="1437" name="diaA"/>
  <outline>
    <contour>
      <point x="59" y="1118" type="line"/>
      <point x="59" y="1051" type="line"/>
      <point x="362" y="1212" type="line"/>
      <point x="362" y="1278" type="line"/>
    </contour>
    <contour>
      <point x="59" y="1260" type="line"/>
      <point x="59" y="1190" type="line"/>
      <point x="362" y="1352" type="line"/>
      <point x="362" y="1417" type="line"/>
    </contour>
  </outline>
</glyph>
<glyph name="absDammatan" format="2">
  <unicode hex="064C"/>
  <anchor x="171" y="1027" name="_diaA"/>
  <anchor x="171" y="1492" name="diaA"/>
  <outline>
    <contour>
      <point x="107" y="1201" type="curve" smooth="yes"/>
      <point x="107" y="1242"/>
      <point x="74" y="1279"/>
      <point x="27" y="1279" type="curve" smooth="yes"/>
      <point x="-1" y="1279"/>
      <point x="-32" y="1267"/>
      <point x="-57" y="1245" type="curve"/>
      <point x="-74" y="1188" type="line"/>
      <point x="-39" y="1209"/>
      <point x="-10" y="1221"/>
      <point x="13" y="1221" type="curve" smooth="yes"/>
      <point x="36" y="1221"/>
      <point x="53" y="1207"/>
      <point x="53" y="1177" type="curve" smooth="yes"/>
      <point x="53" y="1153"/>
      <point x="41" y="1122"/>
      <point x="7" y="1101" type="curve"/>
      <point x="-31" y="1031" type="line"/>
      <point x="107" y="1075"/>
      <point x="195" y="1157"/>
      <point x="236" y="1200" type="curve"/>
      <point x="297" y="1163" type="line"/>
      <point x="332" y="1214" type="line"/>
      <point x="270" y="1255" type="line"/>
      <point x="270" y="1255"/>
      <point x="311" y="1305"/>
      <point x="330" y="1370" type="curve" smooth="yes"/>
      <point x="333" y="1380"/>
      <point x="334" y="1390"/>
      <point x="334" y="1399" type="curve" smooth="yes"/>
      <point x="334" y="1443"/>
      <point x="301" y="1472"/>
      <point x="255" y="1472" type="curve" smooth="yes"/>
      <point x="218" y="1472"/>
      <point x="120" y="1435"/>
      <point x="120" y="1339" type="curve" smooth="yes"/>
      <point x="120" y="1330"/>
      <point x="121" y="1321"/>
      <point x="123" y="1311" type="curve" smooth="yes"/>
      <point x="129" y="1284"/>
      <point x="190" y="1235"/>
      <point x="190" y="1235" type="curve"/>
      <point x="162" y="1201"/>
      <point x="136" y="1177"/>
      <point x="94" y="1151" type="curve"/>
      <point x="102" y="1166"/>
      <point x="107" y="1184"/>
    </contour>
    <contour>
      <point x="227" y="1284" type="curve"/>
      <point x="227" y="1284"/>
      <point x="182" y="1306"/>
      <point x="182" y="1345" type="curve" smooth="yes"/>
      <point x="182" y="1393"/>
      <point x="219" y="1413"/>
      <point x="234" y="1413" type="curve" smooth="yes"/>
      <point x="252" y="1413"/>
      <point x="268" y="1398"/>
      <point x="268" y="1372" type="curve" smooth="yes"/>
      <point x="268" y="1342"/>
      <point x="249" y="1307"/>
    </contour>
  </outline>
</glyph>
<glyph name="absKasratan" format="2">
  <unicode hex="064D"/>
  <anchor x="75" y="-403" name="_diaB"/>
  <anchor x="75" y="-790" name="diaB"/>
  <outline>
    <contour>
      <point x="-72" y="-703" type="line"/>
      <point x="-72" y="-770" type="line"/>
      <point x="231" y="-609" type="line"/>
      <point x="231" y="-543" type="line"/>
    </contour>
    <contour>
      <point x="-72" y="-561" type="line"/>
      <point x="-72" y="-631" type="line"/>
      <point x="231" y="-469" type="line"/>
      <point x="231" y="-404" type="line"/>
    </contour>
  </outline>
</glyph>
<glyph name="absKasratan" format="1">
  <advance width="0"/>
  <unicode hex="064D"/>
  <outline>
    <contour>
      <point x="-72" y="-703" type="line"/>
      <point x="-72" y="-770" type="line"/>
      <point x="231" y="-609" type="line"/>
      <point x="231" y="-543" type="line"/>
    </contour>
    <contour>
      <point x="-72" y="-561" type="line"/>
      <point x="-72" y="-631" type="line"/>
      <point x="231" y="-469" type="line"/>
      <point x="231" y="-404" type="line"/>
    </contour>
    <contour>
      <point x="75" y="-403" type="move" name="_diaB"/>
    </contour>
    <contour>
      <point x="75" y="-790" type="move" name="diaB"/>
    </contour>
  </outline>
</glyph>
<glyph name="fatha-ar" format="2">
  <unicode hex="064E"/>
  <anchor x="190" y="1056" name="_diaA"/>
  <anchor x="190" y="1298" name="diaA"/>
  <outline>
    <contour>
      <point x="322" y="1278" type="line"/>
      <point x="18" y="1118" type="line"/>
      <point x="18" y="1051" type="line"/>
      <point x="322" y="1212" type="line"/>
    </contour>
  </outline>
</glyph>
<glyph name="absDamma" format="2">
  <unicode hex="064F"/>
  <anchor x="187" y="1048" name="_diaA"/>
  <anchor x="187" y="1492" name="diaA"/>
  <outline>
    <contour>
      <point x="255" y="1472" type="curve" smooth="yes"/>
      <point x="218" y="1472"/>
      <point x="120" y="1435"/>
      <point x="120" y="1339" type="curve" smooth="yes"/>
      <point x="120" y="1330"/>
      <point x="121" y="1321"/>
      <point x="123" y="1311" type="curve" smooth="yes"/>
      <point x="130" y="1274"/>
      <point x="181" y="1240"/>
      <point x="297" y="1163" type="curve"/>
      <point x="332" y="1214" type="line"/>
      <point x="206" y="1294"/>
      <point x="182" y="1310"/>
      <point x="182" y="1345" type="curve" smooth="yes"/>
      <point x="182" y="1393"/>
      <point x="219" y="1413"/>
      <point x="234" y="1413" type="curve" smooth="yes"/>
      <point x="252" y="1413"/>
      <point x="268" y="1398"/>
      <point x="268" y="1372" type="curve" smooth="yes"/>
      <point x="268" y="1288"/>
      <point x="120" y="1152"/>
      <point x="-1" y="1097" type="curve"/>
      <point x="26" y="1053" type="line"/>
      <point x="171" y="1125"/>
      <point x="289" y="1234"/>
      <point x="330" y="1370" type="curve" smooth="yes"/>
      <point x="333" y="1380"/>
      <point x="334" y="1390"/>
      <point x="334" y="1399" type="curve" smooth="yes"/>
      <point x="334" y="1443"/>
      <point x="301" y="1472"/>
    </contour>
  </outline>
</glyph>
<glyph name="absKasra" format="2">
  <advance width="0"/>
  <unicode hex="0650"/>
  <anchor x="66" y="-406" name="_diaB"/>
  <anchor x="66" y="-651" name="diaB"/>
  <outline>
    <contour>
      <point x="233" y="-403" type="line"/>
      <point x="-72" y="-561" type="line"/>
      <point x="-72" y="-631" type="line"/>
      <point x="233" y="-471" type="line"/>
    </contour>
  </outline>
</glyph>
<glyph name="absShadda" format="2">
  <unicode hex="0651"/>
  <anchor x="153" y="1048" name="_diaA"/>
  <anchor x="153" y="1390" name="diaA"/>
  <outline>
    <contour>
      <point x="201" y="1118" type="curve"/>
      <point x="285" y="1118"/>
      <point x="287" y="1241"/>
      <point x="287" y="1303" type="curve" smooth="yes"/>
      <point x="287" y="1325"/>
      <point x="285" y="1348"/>
      <point x="283" y="1370" type="curve"/>
      <point x="248" y="1352" type="line"/>
      <point x="250" y="1348"/>
      <point x="252" y="1339"/>
      <point x="252" y="1335" type="curve" smooth="yes"/>
      <point x="252" y="1307"/>
      <point x="236" y="1204"/>
      <point x="197" y="1204" type="curve" smooth="yes"/>
      <point x="168" y="1204"/>
      <point x="152" y="1276"/>
      <point x="150" y="1298" type="curve"/>
      <point x="115" y="1280" type="line"/>
      <point x="127" y="1251"/>
      <point x="104" y="1141"/>
      <point x="63" y="1141" type="curve" smooth="yes"/>
      <point x="27" y="1141"/>
      <point x="8" y="1194"/>
      <point x="8" y="1225" type="curve"/>
      <point x="10" y="1229" type="line"/>
      <point x="-20" y="1212" type="line"/>
      <point x="-18" y="1171"/>
      <point x="-4" y="1049"/>
      <point x="49" y="1049" type="curve" smooth="yes"/>
      <point x="96" y="1049"/>
      <point x="143" y="1093"/>
      <point x="154" y="1133" type="curve"/>
      <point x="169" y="1124"/>
      <point x="180" y="1118"/>
    </contour>
  </outline>
</glyph>
<glyph name="absSukun" format="2">
  <unicode hex="0652"/>
  <anchor x="150" y="1039" name="_diaA"/>
  <anchor x="150" y="1421" name="diaA"/>
  <outline>
    <contour>
      <point x="305" y="1223" type="curve"/>
      <point x="305" y="1305"/>
      <point x="258" y="1401"/>
      <point x="162" y="1401" type="curve" smooth="yes"/>
      <point x="61" y="1401"/>
      <point x="12" y="1288"/>
      <point x="12" y="1202" type="curve" smooth="yes"/>
      <point x="12" y="1108"/>
      <point x="35" y="1051"/>
      <point x="139" y="1051" type="curve" smooth="yes"/>
      <point x="244" y="1051"/>
      <point x="305" y="1120"/>
    </contour>
    <contour>
      <point x="150" y="1161" type="curve"/>
      <point x="109" y="1161"/>
      <point x="76" y="1165"/>
      <point x="76" y="1217" type="curve" smooth="yes"/>
      <point x="76" y="1255"/>
      <point x="106" y="1313"/>
      <point x="150" y="1313" type="curve" smooth="yes"/>
      <point x="199" y="1313"/>
      <point x="227" y="1272"/>
      <point x="227" y="1227" type="curve" smooth="yes"/>
      <point x="227" y="1169"/>
      <point x="203" y="1161"/>
    </contour>
  </outline>
</glyph>
<glyph name="absMaddahAbove" format="2">
  <unicode hex="0653"/>
  <anchor x="256" y="1123" name="_diaA"/>
  <anchor x="256" y="1368" name="diaA"/>
  <outline>
    <contour>
      <point x="494" y="1343" type="curve"/>
      <point x="494" y="1346"/>
      <point x="492" y="1348"/>
      <point x="487" y="1348" type="curve" smooth="yes"/>
      <point x="453" y="1348"/>
      <point x="346" y="1278"/>
      <point x="264" y="1278" type="curve" smooth="yes"/>
      <point x="201" y="1278"/>
      <point x="129" y="1311"/>
      <point x="78" y="1346" type="curve"/>
      <point x="63" y="1321"/>
      <point x="-31" y="1143"/>
      <point x="-31" y="1124" type="curve" smooth="yes"/>
      <point x="-31" y="1118"/>
      <point x="-20" y="1114"/>
      <point x="-16" y="1114" type="curve" smooth="yes"/>
      <point x="6" y="1114"/>
      <point x="76" y="1200"/>
      <point x="75" y="1209" type="curve"/>
      <point x="68" y="1210" type="line"/>
      <point x="104" y="1182"/>
      <point x="174" y="1165"/>
      <point x="256" y="1165" type="curve" smooth="yes"/>
      <point x="332" y="1165"/>
      <point x="494" y="1276"/>
    </contour>
  </outline>
</glyph>
<glyph name="absUltaPesh" format="2">
  <unicode hex="0657"/>
  <anchor x="112" y="964" name="_diaA"/>
  <anchor x="112" y="1427" name="diaA"/>
  <outline>
    <contour>
      <point x="193" y="1092" type="curve"/>
      <point x="193" y="1153"/>
      <point x="174" y="1174"/>
      <point x="150" y="1174" type="curve" smooth="yes"/>
      <point x="122" y="1174"/>
      <point x="108" y="1150"/>
      <point x="87" y="1108" type="curve"/>
      <point x="94" y="1114" type="line"/>
      <point x="91" y="1194"/>
      <point x="130" y="1309"/>
      <point x="176" y="1400" type="curve"/>
      <point x="162" y="1407" type="line"/>
      <point x="102" y="1317"/>
      <point x="43" y="1225"/>
      <point x="43" y="1096" type="curve" smooth="yes"/>
      <point x="43" y="1020"/>
      <point x="78" y="983"/>
      <point x="113" y="983" type="curve" smooth="yes"/>
      <point x="147" y="983"/>
      <point x="193" y="1026"/>
    </contour>
  </outline>
</glyph>
<glyph name="absNoonGhunnaMark" format="2">
  <unicode hex="0658"/>
  <anchor x="147" y="967" name="_diaA"/>
  <anchor x="147" y="1257" name="diaA"/>
  <outline>
    <contour>
      <point x="0" y="1210" type="line"/>
      <point x="10" y="1128"/>
      <point x="39" y="987"/>
      <point x="147" y="987" type="curve" smooth="yes"/>
      <point x="248" y="987"/>
      <point x="317" y="1135"/>
      <point x="317" y="1227" type="curve"/>
      <point x="295" y="1229" type="line"/>
      <point x="289" y="1153"/>
      <point x="236" y="1071"/>
      <point x="168" y="1071" type="curve" smooth="yes"/>
      <point x="98" y="1071"/>
      <point x="53" y="1182"/>
      <point x="41" y="1237" type="curve"/>
    </contour>
  </outline>
</glyph>
<glyph name="absVowelSmallV" format="2">
  <unicode hex="065A"/>
  <anchor x="204" y="976" name="_diaA"/>
  <anchor x="204" y="1226" name="diaA"/>
  <outline>
    <contour>
      <point x="377" y="1221" type="line"/>
      <point x="330" y="1165"/>
      <point x="234" y="1069"/>
      <point x="213" y="1069" type="curve" smooth="yes"/>
      <point x="188" y="1069"/>
      <point x="102" y="1161"/>
      <point x="60" y="1218" type="curve"/>
      <point x="13" y="1176" type="line"/>
      <point x="68" y="1105"/>
      <point x="178" y="987"/>
      <point x="207" y="987" type="curve" smooth="yes"/>
      <point x="242" y="987"/>
      <point x="355" y="1128"/>
      <point x="405" y="1199" type="curve"/>
    </contour>
  </outline>
</glyph>
<glyph name="absZero" format="2">
  <advance width="881"/>
  <unicode hex="0660"/>
  <outline>
    <contour>
      <point x="441" y="649" type="curve"/>
      <point x="420" y="649"/>
      <point x="306" y="535"/>
      <point x="306" y="506" type="curve" smooth="yes"/>
      <point x="306" y="481"/>
      <point x="420" y="362"/>
      <point x="441" y="362" type="curve" smooth="yes"/>
      <point x="467" y="362"/>
      <point x="574" y="483"/>
      <point x="574" y="508" type="curve" smooth="yes"/>
      <point x="574" y="532"/>
      <point x="463" y="649"/>
    </contour>
  </outline>
</glyph>
<glyph name="absTwo" format="1">
  <advance width="881"/>
  <unicode hex="0662"/>
  <outline>
    <contour>
      <point x="190" y="829" type="line"/>
      <point x="190" y="829"/>
      <point x="307" y="674"/>
      <point x="371" y="465" type="curve" smooth="yes"/>
      <point x="422" y="297"/>
      <point x="467" y="6"/>
      <point x="467" y="0" type="curve"/>
      <point x="509" y="118"/>
      <point x="527" y="211"/>
      <point x="527" y="306" type="curve" smooth="yes"/>
      <point x="527" y="335"/>
      <point x="525" y="364"/>
      <point x="522" y="393" type="curve" smooth="yes"/>
      <point x="512" y="506"/>
      <point x="502" y="575"/>
      <point x="461" y="680" type="curve"/>
      <point x="494" y="680"/>
      <point x="639" y="715"/>
      <point x="682" y="797" type="curve" smooth="yes"/>
      <point x="705" y="840"/>
      <point x="713" y="900"/>
      <point x="713" y="955" type="curve" smooth="yes"/>
      <point x="713" y="1026"/>
      <point x="699" y="1087"/>
      <point x="686" y="1087" type="curve" smooth="yes"/>
      <point x="660" y="1087"/>
      <point x="642" y="889"/>
      <point x="485" y="889" type="curve"/>
      <point x="410" y="888"/>
      <point x="353" y="920"/>
      <point x="317" y="981" type="curve" smooth="yes"/>
      <point x="250" y="1096" type="line"/>
    </contour>
  </outline>
</glyph>
<glyph name="absThree" format="2">
  <advance width="881"/>
  <unicode hex="0663"/>
  <outline>
    <contour>
      <point x="800" y="1093" type="line"/>
      <point x="754" y="945"/>
      <point x="721" y="884"/>
      <point x="622" y="884" type="curve" smooth="yes"/>
      <point x="548" y="884"/>
      <point x="525" y="954"/>
      <point x="525" y="1093" type="curve"/>
      <point x="510" y="1093" type="line"/>
      <point x="464" y="945"/>
      <point x="431" y="884"/>
      <point x="342" y="884" type="curve" smooth="yes"/>
      <point x="291" y="884"/>
      <point x="263" y="909"/>
      <point x="240" y="961" type="curve"/>
      <point x="268" y="737" type="line"/>
      <point x="294" y="710"/>
      <point x="313" y="702"/>
      <point x="351" y="702" type="curve" smooth="yes"/>
      <point x="401" y="702"/>
      <point x="444" y="723"/>
      <point x="477" y="770" type="curve"/>
      <point x="517" y="726"/>
      <point x="566" y="702"/>
      <point x="621" y="702" type="curve" smooth="yes"/>
      <point x="736" y="702"/>
      <point x="815" y="815"/>
      <point x="815" y="1093" type="curve"/>
    </contour>
    <component base="absOne" xOffset="-170"/>
  </outline>
</glyph>
<glyph name="absFour" format="2">
  <advance width="881"/>
  <unicode hex="0664"/>
  <outline>
    <contour>
      <point x="734" y="191" type="curve"/>
      <point x="734" y="193"/>
      <point x="731" y="193"/>
      <point x="705" y="196" type="curve" smooth="yes"/>
      <point x="619" y="203"/>
      <point x="361" y="271"/>
      <point x="361" y="311" type="curve" smooth="yes"/>
      <point x="361" y="366"/>
      <point x="611" y="576"/>
      <point x="611" y="627" type="curve" smooth="yes"/>
      <point x="611" y="681"/>
      <point x="341" y="748"/>
      <point x="341" y="799" type="curve" smooth="yes"/>
      <point x="341" y="843"/>
      <point x="430" y="892"/>
      <point x="497" y="907" type="curve" smooth="yes"/>
      <point x="505" y="909"/>
      <point x="550" y="1086"/>
      <point x="544" y="1086" type="curve" smooth="yes"/>
      <point x="510" y="1086"/>
      <point x="406" y="1012"/>
      <point x="320" y="917" type="curve" smooth="yes"/>
      <point x="222" y="809"/>
      <point x="161" y="713"/>
      <point x="161" y="659" type="curve" smooth="yes"/>
      <point x="161" y="589"/>
      <point x="402" y="527"/>
      <point x="402" y="505" type="curve" smooth="yes"/>
      <point x="402" y="491"/>
      <point x="211" y="327"/>
      <point x="211" y="150" type="curve" smooth="yes"/>
      <point x="211" y="97"/>
      <point x="583" y="-1"/>
      <point x="668" y="-1" type="curve" smooth="yes"/>
      <point x="676" y="-1"/>
      <point x="734" y="180"/>
    </contour>
  </outline>
</glyph>
<glyph name="absFive" format="2">
  <advance width="881"/>
  <unicode hex="0665"/>
  <outline>
    <contour>
      <point x="388" y="889" type="curve"/>
      <point x="265" y="717"/>
      <point x="182" y="499"/>
      <point x="182" y="338" type="curve" smooth="yes"/>
      <point x="182" y="204"/>
      <point x="239" y="109"/>
      <point x="377" y="109" type="curve" smooth="yes"/>
      <point x="552" y="109"/>
      <point x="705" y="314"/>
      <point x="705" y="521" type="curve" smooth="yes"/>
      <point x="705" y="773"/>
      <point x="527" y="767"/>
    </contour>
    <contour>
      <point x="403" y="287" type="curve"/>
      <point x="296" y="287"/>
      <point x="258" y="345"/>
      <point x="258" y="429" type="curve" smooth="yes"/>
      <point x="258" y="506"/>
      <point x="291" y="606"/>
      <point x="334" y="702" type="curve"/>
      <point x="398" y="637"/>
      <point x="657" y="574"/>
      <point x="657" y="474" type="curve" smooth="yes"/>
      <point x="657" y="332"/>
      <point x="484" y="287"/>
    </contour>
  </outline>
</glyph>
<glyph name="absSix" format="2">
  <advance width="881"/>
  <unicode hex="0666"/>
  <guideline x="324" y="841" angle="0"/>
  <outline>
    <contour>
      <point x="116" y="1093" type="line"/>
      <point x="84" y="915"/>
      <point x="102" y="841"/>
      <point x="292" y="841" type="curve" smooth="yes"/>
      <point x="369" y="841"/>
      <point x="459" y="868"/>
      <point x="535" y="916" type="curve"/>
      <point x="525" y="921" type="line"/>
      <point x="525" y="619"/>
      <point x="546" y="199"/>
      <point x="694" y="-15" type="curve"/>
      <point x="758" y="239" type="line"/>
      <point x="627" y="416"/>
      <point x="574" y="733"/>
      <point x="574" y="1072" type="curve"/>
      <point x="488" y="1040"/>
      <point x="407" y="1021"/>
      <point x="333" y="1021" type="curve" smooth="yes"/>
      <point x="256" y="1021"/>
      <point x="187" y="1042"/>
      <point x="131" y="1093" type="curve"/>
    </contour>
  </outline>
</glyph>
<glyph name="absSeven" format="2">
  <advance width="881"/>
  <unicode hex="0667"/>
  <outline>
    <contour>
      <point x="437" y="-4" type="curve"/>
      <point x="437" y="-4"/>
      <point x="523" y="320"/>
      <point x="607" y="508" type="curve" smooth="yes"/>
      <point x="664" y="635"/>
      <point x="722" y="711"/>
      <point x="802" y="820" type="curve"/>
      <point x="771" y="1098" type="line"/>
      <point x="718" y="1035"/>
      <point x="634" y="944"/>
      <point x="580" y="809" type="curve" smooth="yes"/>
      <point x="521" y="662"/>
      <point x="441" y="414"/>
      <point x="441" y="410" type="curve" smooth="yes"/>
      <point x="441" y="410"/>
      <point x="359" y="693"/>
      <point x="284" y="875" type="curve" smooth="yes"/>
      <point x="238" y="985"/>
      <point x="140" y="1088"/>
      <point x="134" y="1098" type="curve"/>
      <point x="97" y="793" type="line"/>
      <point x="181" y="678"/>
      <point x="236" y="609"/>
      <point x="290" y="475" type="curve" smooth="yes"/>
      <point x="363" y="293"/>
      <point x="437" y="-4"/>
    </contour>
  </outline>
</glyph>
<glyph name="absEight" format="2">
  <advance width="881"/>
  <unicode hex="0668"/>
  <outline>
    <contour>
      <point x="465" y="1098" type="curve"/>
      <point x="465" y="1098"/>
      <point x="379" y="774"/>
      <point x="295" y="586" type="curve" smooth="yes"/>
      <point x="238" y="459"/>
      <point x="180" y="383"/>
      <point x="100" y="274" type="curve"/>
      <point x="131" y="-4" type="line"/>
      <point x="184" y="59"/>
      <point x="270" y="150"/>
      <point x="322" y="285" type="curve" smooth="yes"/>
      <point x="380" y="436"/>
      <point x="421" y="550"/>
      <point x="464" y="694" type="curve"/>
      <point x="459" y="692" type="line"/>
      <point x="493" y="566"/>
      <point x="544" y="408"/>
      <point x="618" y="219" type="curve" smooth="yes"/>
      <point x="661" y="109"/>
      <point x="762" y="6"/>
      <point x="768" y="-4" type="curve"/>
      <point x="805" y="301" type="line"/>
      <point x="721" y="416"/>
      <point x="666" y="485"/>
      <point x="612" y="619" type="curve" smooth="yes"/>
      <point x="539" y="801"/>
      <point x="465" y="1098"/>
    </contour>
  </outline>
</glyph>
<glyph name="absNine" format="2">
  <advance width="881"/>
  <unicode hex="0669"/>
  <outline>
    <contour>
      <point x="507" y="541" type="curve"/>
      <point x="463" y="710" type="line"/>
      <point x="408" y="663"/>
      <point x="274" y="692"/>
      <point x="274" y="750" type="curve" smooth="yes"/>
      <point x="274" y="770"/>
      <point x="317" y="856"/>
      <point x="362" y="856" type="curve" smooth="yes"/>
      <point x="456" y="856"/>
      <point x="450" y="642"/>
      <point x="514" y="393" type="curve" smooth="yes"/>
      <point x="547" y="263"/>
      <point x="604" y="124"/>
      <point x="692" y="0" type="curve"/>
      <point x="743" y="254" type="line"/>
      <point x="743" y="254"/>
      <point x="645" y="373"/>
      <point x="600" y="563" type="curve" smooth="yes"/>
      <point x="547" y="789"/>
      <point x="544" y="1079"/>
      <point x="402" y="1079" type="curve" smooth="yes"/>
      <point x="244" y="1079"/>
      <point x="171" y="810"/>
      <point x="171" y="671" type="curve" smooth="yes"/>
      <point x="171" y="565"/>
      <point x="214" y="481"/>
      <point x="358" y="481" type="curve" smooth="yes"/>
      <point x="420" y="481"/>
      <point x="485" y="510"/>
    </contour>
  </outline>
</glyph>
<glyph name="absPercentSign" format="2">
  <advance width="1348"/>
  <unicode hex="066A"/>
  <outline>
    <contour>
      <point x="1063" y="1260" type="line"/>
      <point x="180" y="-334" type="line"/>
      <point x="285" y="-334" type="line"/>
      <point x="1161" y="1260" type="line"/>
    </contour>
    <contour>
      <point x="227" y="985" type="curve"/>
      <point x="227" y="934"/>
      <point x="270" y="893"/>
      <point x="322" y="893" type="curve" smooth="yes"/>
      <point x="373" y="893"/>
      <point x="414" y="934"/>
      <point x="414" y="985" type="curve" smooth="yes"/>
      <point x="414" y="1036"/>
      <point x="373" y="1077"/>
      <point x="322" y="1077" type="curve" smooth="yes"/>
      <point x="270" y="1077"/>
      <point x="227" y="1036"/>
    </contour>
    <contour>
      <point x="922" y="-92" type="curve"/>
      <point x="922" y="-143"/>
      <point x="965" y="-184"/>
      <point x="1016" y="-184" type="curve" smooth="yes"/>
      <point x="1067" y="-184"/>
      <point x="1108" y="-143"/>
      <point x="1108" y="-92" type="curve" smooth="yes"/>
      <point x="1108" y="-41"/>
      <point x="1067" y="2"/>
      <point x="1016" y="2" type="curve" smooth="yes"/>
      <point x="965" y="2"/>
      <point x="922" y="-41"/>
    </contour>
  </outline>
</glyph>
<glyph name="absThousandsSeparator" format="2">
  <advance width="553"/>
  <unicode hex="066C"/>
  <outline>
    <contour>
      <point x="377" y="893" type="curve"/>
      <point x="377" y="962"/>
      <point x="346" y="1026"/>
      <point x="276" y="1026" type="curve" smooth="yes"/>
      <point x="233" y="1026"/>
      <point x="190" y="989"/>
      <point x="190" y="942" type="curve" smooth="yes"/>
      <point x="190" y="885"/>
      <point x="246" y="864"/>
      <point x="293" y="854" type="curve" smooth="yes"/>
      <point x="299" y="854"/>
      <point x="299" y="842"/>
      <point x="299" y="835" type="curve" smooth="yes"/>
      <point x="299" y="758"/>
      <point x="227" y="682"/>
      <point x="182" y="645" type="curve"/>
      <point x="213" y="608" type="line"/>
      <point x="311" y="678"/>
      <point x="377" y="801"/>
    </contour>
  </outline>
</glyph>
<glyph name="absFivePointedStar" format="2">
  <advance width="887"/>
  <unicode hex="066D"/>
  <outline>
    <contour>
      <point x="674" y="154" type="line"/>
      <point x="573" y="428" type="line"/>
      <point x="817" y="592" type="line"/>
      <point x="524" y="584" type="line"/>
      <point x="444" y="864" type="line"/>
      <point x="362" y="582" type="line"/>
      <point x="70" y="592" type="line"/>
      <point x="313" y="428" type="line"/>
      <point x="213" y="154" type="line"/>
      <point x="444" y="334" type="line"/>
    </contour>
  </outline>
</glyph>
<glyph name="asterisk-ar" format="2">
  <advance width="887"/>
  <unicode hex="066D"/>
  <outline>
    <contour>
      <point x="674" y="154" type="line"/>
      <point x="568" y="443" type="line"/>
      <point x="560" y="419" type="line"/>
      <point x="817" y="592" type="line"/>
      <point x="508" y="584" type="line"/>
      <point x="528" y="569" type="line"/>
      <point x="444" y="864" type="line"/>
      <point x="358" y="567" type="line"/>
      <point x="378" y="581" type="line"/>
      <point x="70" y="592" type="line"/>
      <point x="326" y="419" type="line"/>
      <point x="318" y="443" type="line"/>
      <point x="213" y="154" type="line"/>
      <point x="456" y="344" type="line"/>
      <point x="432" y="344" type="line"/>
    </contour>
  </outline>
</glyph>
<glyph name="absBehNoDots" format="1">
  <advance width="1220"/>
  <unicode hex="066E"/>
  <outline>
    <contour>
      <point x="173" y="489" type="curve"/>
      <point x="173" y="493"/>
      <point x="172" y="495"/>
      <point x="170" y="495" type="curve" smooth="yes"/>
      <point x="166" y="495"/>
      <point x="163" y="494"/>
      <point x="158" y="490" type="curve" smooth="yes"/>
      <point x="103" y="437"/>
      <point x="48" y="349"/>
      <point x="48" y="260" type="curve" smooth="yes"/>
      <point x="48" y="25"/>
      <point x="282" y="-18"/>
      <point x="466" y="-18" type="curve" smooth="yes"/>
      <point x="661" y="-18"/>
      <point x="1025" y="29"/>
      <point x="1105" y="158" type="curve" smooth="yes"/>
      <point x="1146" y="225"/>
      <point x="1177" y="301"/>
      <point x="1177" y="381" type="curve" smooth="yes"/>
      <point x="1177" y="479"/>
      <point x="1120" y="574"/>
      <point x="1085" y="596" type="curve"/>
      <point x="1021" y="403" type="line"/>
      <point x="1064" y="373"/>
      <point x="1100" y="325"/>
      <point x="1101" y="262" type="curve"/>
      <point x="931" y="176"/>
      <point x="718" y="150"/>
      <point x="532" y="150" type="curve" smooth="yes"/>
      <point x="413" y="150"/>
      <point x="130" y="182"/>
      <point x="130" y="346" type="curve" smooth="yes"/>
      <point x="130" y="399"/>
      <point x="163" y="462"/>
    </contour>
    <contour>
      <point x="624" y="401" type="move" name="above"/>
    </contour>
    <contour>
      <point x="280" y="690" type="move" name="alef"/>
    </contour>
    <contour>
      <point x="612" y="-68" type="move" name="below"/>
    </contour>
    <contour>
      <point x="612" y="700" type="move" name="diaA"/>
    </contour>
    <contour>
      <point x="269" y="-235" type="move" name="diaB"/>
    </contour>
    <contour>
      <point x="576" y="56" type="move" name="ring"/>
    </contour>
  </outline>
</glyph>
<glyph name="absQafNoDots" format="2">
  <advance width="863"/>
  <unicode hex="066F"/>
  <anchor x="650" y="498" name="above"/>
  <anchor x="253" y="599" name="alef"/>
  <anchor x="430" y="-365" name="below"/>
  <anchor x="430" y="700" name="diaA"/>
  <anchor x="221" y="-401" name="diaB"/>
  <outline>
    <contour>
      <point x="823" y="119" type="curve" smooth="yes"/>
      <point x="823" y="303"/>
      <point x="767" y="453"/>
      <point x="694" y="453" type="curve" smooth="yes"/>
      <point x="618" y="453"/>
      <point x="542" y="263"/>
      <point x="542" y="199" type="curve" smooth="yes"/>
      <point x="542" y="131"/>
      <point x="585" y="75"/>
      <point x="653" y="75" type="curve" smooth="yes"/>
      <point x="690" y="75"/>
      <point x="751" y="131"/>
      <point x="768" y="170" type="curve"/>
      <point x="741" y="259" type="line"/>
      <point x="732" y="236"/>
      <point x="696" y="205"/>
      <point x="661" y="205" type="curve" smooth="yes"/>
      <point x="641" y="205"/>
      <point x="598" y="222"/>
      <point x="598" y="250" type="curve" smooth="yes"/>
      <point x="598" y="275"/>
      <point x="633" y="323"/>
      <point x="661" y="323" type="curve" smooth="yes"/>
      <point x="699" y="323"/>
      <point x="766" y="221"/>
      <point x="766" y="6" type="curve"/>
      <point x="769" y="37" type="line"/>
      <point x="731" y="-78"/>
      <point x="510" y="-133"/>
      <point x="375" y="-133" type="curve" smooth="yes"/>
      <point x="188" y="-133"/>
      <point x="101" y="-47"/>
      <point x="101" y="90" type="curve" smooth="yes"/>
      <point x="101" y="146"/>
      <point x="116" y="211"/>
      <point x="146" y="282" type="curve"/>
      <point x="132" y="288" type="line"/>
      <point x="71" y="191"/>
      <point x="40" y="88"/>
      <point x="40" y="-5" type="curve" smooth="yes"/>
      <point x="40" y="-177"/>
      <point x="142" y="-315"/>
      <point x="351" y="-315" type="curve"/>
      <point x="570" y="-315"/>
      <point x="823" y="-109"/>
    </contour>
  </outline>
</glyph>
<glyph name="qafDotless-ar" format="2">
  <advance width="863"/>
  <unicode hex="066F"/>
  <anchor x="650" y="483" name="above"/>
  <anchor x="253" y="584" name="alef"/>
  <anchor x="430" y="-380" name="below"/>
  <anchor x="430" y="685" name="diaA"/>
  <anchor x="221" y="-416" name="diaB"/>
  <outline>
    <contour>
      <point x="823" y="104" type="curve" smooth="yes"/>
      <point x="823" y="288"/>
      <point x="767" y="438"/>
      <point x="694" y="438" type="curve" smooth="yes"/>
      <point x="618" y="438"/>
      <point x="542" y="248"/>
      <point x="542" y="184" type="curve" smooth="yes"/>
      <point x="542" y="116"/>
      <point x="585" y="60"/>
      <point x="653" y="60" type="curve" smooth="yes"/>
      <point x="690" y="60"/>
      <point x="751" y="116"/>
      <point x="768" y="155" type="curve"/>
      <point x="741" y="244" type="line"/>
      <point x="732" y="221"/>
      <point x="696" y="190"/>
      <point x="661" y="190" type="curve" smooth="yes"/>
      <point x="641" y="190"/>
      <point x="598" y="207"/>
      <point x="598" y="235" type="curve" smooth="yes"/>
      <point x="598" y="260"/>
      <point x="633" y="308"/>
      <point x="661" y="308" type="curve" smooth="yes"/>
      <point x="699" y="308"/>
      <point x="766" y="206"/>
      <point x="766" y="-9" type="curve"/>
      <point x="769" y="22" type="line"/>
      <point x="731" y="-93"/>
      <point x="510" y="-148"/>
      <point x="375" y="-148" type="curve" smooth="yes"/>
      <point x="188" y="-148"/>
      <point x="101" y="-62"/>
      <point x="101" y="75" type="curve" smooth="yes"/>
      <point x="101" y="131"/>
      <point x="116" y="196"/>
      <point x="146" y="267" type="curve"/>
      <point x="132" y="273" type="line"/>
      <point x="71" y="176"/>
      <point x="40" y="73"/>
      <point x="40" y="-20" type="curve" smooth="yes"/>
      <point x="40" y="-192"/>
      <point x="142" y="-330"/>
      <point x="351" y="-330" type="curve"/>
      <point x="570" y="-330"/>
      <point x="823" y="-124"/>
    </contour>
  </outline>
</glyph>
<glyph name="absSuperscriptAlef" format="2">
  <unicode hex="0670"/>
  <anchor x="109" y="676" name="_alef"/>
  <anchor x="109" y="676" name="_diaA"/>
  <anchor x="109" y="1085" name="diaA"/>
  <outline>
    <contour>
      <point x="53" y="977" type="line"/>
      <point x="61" y="895"/>
      <point x="77" y="763"/>
      <point x="80" y="700" type="curve"/>
      <point x="97" y="700"/>
      <point x="120" y="724"/>
      <point x="131" y="760" type="curve" smooth="yes"/>
      <point x="140" y="790"/>
      <point x="143" y="829"/>
      <point x="143" y="850" type="curve" smooth="yes"/>
      <point x="143" y="882"/>
      <point x="136" y="926"/>
      <point x="133" y="975" type="curve" smooth="yes"/>
      <point x="131" y="1013"/>
      <point x="131" y="1065"/>
      <point x="131" y="1065" type="curve"/>
    </contour>
  </outline>
</glyph>
<glyph name="absAlefWavyHamzaBelow" format="1">
  <advance width="362"/>
  <unicode hex="0673"/>
  <outline>
    <component base="absAlef"/>
    <component base="_wavyHamza" xOffset="229" yOffset="-276"/>
    <contour>
      <point x="195" y="1176" type="move" name="diaA"/>
    </contour>
    <contour>
      <point x="143" y="-498" type="move" name="diaB"/>
    </contour>
  </outline>
</glyph>
<glyph name="absHighHamzaAlef" format="1">
  <advance width="362"/>
  <unicode hex="0675"/>
  <outline>
    <component base="absAlef"/>
    <component base="_highHamza" xOffset="213" yOffset="1349"/>
    <contour>
      <point x="195" y="1719" type="move" name="diaA"/>
    </contour>
    <contour>
      <point x="163" y="-150" type="move" name="diaB"/>
    </contour>
  </outline>
</glyph>
<glyph name="absUHamzaAbove" format="1">
  <advance width="612"/>
  <unicode hex="0677"/>
  <outline>
    <component base="absWaw"/>
    <component base="_hamzaDamma" xOffset="414" yOffset="667"/>
    <contour>
      <point x="211" y="954" type="move" name="diaA"/>
    </contour>
    <contour>
      <point x="142" y="-425" type="move" name="diaB"/>
    </contour>
  </outline>
</glyph>
<glyph name="absBeeh" format="1">
  <advance width="1220"/>
  <unicode hex="067B"/>
  <outline>
    <component base="absBehNoDots"/>
    <component base="_dot2v" xOffset="612" yOffset="-354"/>
    <contour>
      <point x="280" y="690" type="move" name="alef"/>
    </contour>
    <contour>
      <point x="612" y="700" type="move" name="diaA"/>
    </contour>
    <contour>
      <point x="204" y="-308" type="move" name="diaB"/>
    </contour>
  </outline>
</glyph>
<glyph name="absTehRing" format="1">
  <advance width="1220"/>
  <unicode hex="067C"/>
  <outline>
    <component base="absBehNoDots"/>
    <component base="_dot2h" xOffset="624" yOffset="581"/>
    <component base="_ring" xOffset="578" yOffset="-95"/>
    <contour>
      <point x="280" y="690" type="move" name="alef"/>
    </contour>
    <contour>
      <point x="577" y="838" type="move" name="diaA"/>
    </contour>
    <contour>
      <point x="220" y="-247" type="move" name="diaB"/>
    </contour>
  </outline>
</glyph>
<glyph name="absTehThreeDotsAboveDownwards" format="1">
  <advance width="1220"/>
  <unicode hex="067D"/>
  <outline>
    <component base="absBehNoDots"/>
    <component base="_dot3d" xOffset="624" yOffset="687"/>
    <contour>
      <point x="284" y="900" type="move" name="alef"/>
    </contour>
    <contour>
      <point x="577" y="1029" type="move" name="diaA"/>
    </contour>
    <contour>
      <point x="269" y="-235" type="move" name="diaB"/>
    </contour>
  </outline>
</glyph>
<glyph name="absDalDotBelow" format="1">
  <advance width="580"/>
  <unicode hex="068A"/>
  <outline>
    <component base="absDal"/>
    <component base="_dot1" xOffset="291" yOffset="-269"/>
    <contour>
      <point x="138" y="817" type="move" name="alef"/>
    </contour>
    <contour>
      <point x="288" y="834" type="move" name="diaA"/>
    </contour>
    <contour>
      <point x="244" y="-470" type="move" name="diaB"/>
    </contour>
  </outline>
</glyph>
<glyph name="absDul" format="1">
  <advance width="580"/>
  <unicode hex="068E"/>
  <outline>
    <component base="absDal"/>
    <component base="_dot3u" xOffset="291" yOffset="981"/>
    <contour>
      <point x="114" y="1213" type="move" name="alef"/>
    </contour>
    <contour>
      <point x="288" y="1259" type="move" name="diaA"/>
    </contour>
    <contour>
      <point x="211" y="-231" type="move" name="diaB"/>
    </contour>
  </outline>
</glyph>
<glyph name="absRehSmallV" format="1">
  <advance width="590"/>
  <unicode hex="0692"/>
  <outline>
    <component base="absReh"/>
    <component base="_smallV" xOffset="376" yOffset="604"/>
    <contour>
      <point x="118" y="829" type="move" name="alef"/>
    </contour>
    <contour>
      <point x="329" y="867" type="move" name="diaA"/>
    </contour>
    <contour>
      <point x="167" y="-474" type="move" name="diaB"/>
    </contour>
  </outline>
</glyph>
<glyph name="absRehDotBelow" format="1">
  <advance width="590"/>
  <unicode hex="0694"/>
  <outline>
    <component base="absReh"/>
    <component base="_dot1" xOffset="372" yOffset="-520"/>
    <contour>
      <point x="122" y="698" type="move" name="alef"/>
    </contour>
    <contour>
      <point x="280" y="697" type="move" name="diaA"/>
    </contour>
    <contour>
      <point x="167" y="-672" type="move" name="diaB"/>
    </contour>
  </outline>
</glyph>
<glyph name="absRehSmallVBelow" format="1">
  <advance width="590"/>
  <unicode hex="0695"/>
  <outline>
    <component base="absReh"/>
    <component base="_smallV" xOffset="372" yOffset="-568"/>
    <contour>
      <point x="122" y="698" type="move" name="alef"/>
    </contour>
    <contour>
      <point x="280" y="697" type="move" name="diaA"/>
    </contour>
    <contour>
      <point x="167" y="-725" type="move" name="diaB"/>
    </contour>
  </outline>
</glyph>
<glyph name="absRehDotBelowDotAbove" format="1">
  <advance width="590"/>
  <unicode hex="0696"/>
  <outline>
    <component base="absReh"/>
    <component base="_dot1" xOffset="372" yOffset="-520"/>
    <component base="_dot1" xOffset="158" yOffset="99"/>
    <contour>
      <point x="122" y="698" type="move" name="alef"/>
    </contour>
    <contour>
      <point x="280" y="697" type="move" name="diaA"/>
    </contour>
    <contour>
      <point x="163" y="-697" type="move" name="diaB"/>
    </contour>
  </outline>
</glyph>
<glyph name="absJeh" format="1">
  <advance width="590"/>
  <unicode hex="0698"/>
  <outline>
    <component base="absReh"/>
    <component base="_dot3u" xOffset="376" yOffset="722"/>
    <contour>
      <point x="114" y="936" type="move" name="alef"/>
    </contour>
    <contour>
      <point x="272" y="1020" type="move" name="diaA"/>
    </contour>
    <contour>
      <point x="167" y="-474" type="move" name="diaB"/>
    </contour>
  </outline>
</glyph>
<glyph name="absRehFourDotsAbove" format="1">
  <advance width="590"/>
  <unicode hex="0699"/>
  <outline>
    <component base="absReh"/>
    <component base="_dot4" xOffset="376" yOffset="722"/>
    <contour>
      <point x="114" y="999" type="move" name="alef"/>
    </contour>
    <contour>
      <point x="272" y="1041" type="move" name="diaA"/>
    </contour>
    <contour>
      <point x="167" y="-474" type="move" name="diaB"/>
    </contour>
  </outline>
</glyph>
<glyph name="absSeenThreeDotsBelow" format="1">
  <advance width="1369"/>
  <unicode hex="069B"/>
  <outline>
    <component base="absSeen"/>
    <component base="_dot3d" xOffset="1026" yOffset="-350"/>
    <contour>
      <point x="280" y="464" type="move" name="alef"/>
    </contour>
    <contour>
      <point x="675" y="700" type="move" name="diaA"/>
    </contour>
    <contour>
      <point x="168" y="-514" type="move" name="diaB"/>
    </contour>
  </outline>
</glyph>
<glyph name="absDotlessFeh" format="2">
  <advance width="1210"/>
  <unicode hex="06A1"/>
  <anchor x="1028" y="730" name="above"/>
  <anchor x="270" y="690" name="alef"/>
  <anchor x="966" y="-25" name="below"/>
  <anchor x="605" y="732" name="diaA"/>
  <anchor x="226" y="-202" name="diaB"/>
  <outline>
    <contour>
      <point x="40" y="223" type="curve" smooth="yes"/>
      <point x="40" y="42"/>
      <point x="270" y="-15"/>
      <point x="454" y="-15" type="curve" smooth="yes"/>
      <point x="745" y="-15"/>
      <point x="1011" y="57"/>
      <point x="1078" y="134" type="curve" smooth="yes"/>
      <point x="1143" y="210"/>
      <point x="1170" y="319"/>
      <point x="1170" y="421" type="curve" smooth="yes"/>
      <point x="1170" y="560"/>
      <point x="1119" y="684"/>
      <point x="1046" y="684" type="curve" smooth="yes"/>
      <point x="970" y="684"/>
      <point x="894" y="494"/>
      <point x="894" y="430" type="curve" smooth="yes"/>
      <point x="894" y="362"/>
      <point x="937" y="306"/>
      <point x="1005" y="306" type="curve" smooth="yes"/>
      <point x="1042" y="306"/>
      <point x="1103" y="362"/>
      <point x="1120" y="401" type="curve"/>
      <point x="1093" y="490" type="line"/>
      <point x="1084" y="467"/>
      <point x="1048" y="436"/>
      <point x="1013" y="436" type="curve" smooth="yes"/>
      <point x="993" y="436"/>
      <point x="950" y="453"/>
      <point x="950" y="481" type="curve" smooth="yes"/>
      <point x="950" y="506"/>
      <point x="985" y="554"/>
      <point x="1013" y="554" type="curve" smooth="yes"/>
      <point x="1064" y="554"/>
      <point x="1116" y="405"/>
      <point x="1116" y="318" type="curve" smooth="yes"/>
      <point x="1116" y="299"/>
      <point x="1114" y="283"/>
      <point x="1108" y="272" type="curve"/>
      <point x="1120" y="283" type="line"/>
      <point x="950" y="187"/>
      <point x="713" y="165"/>
      <point x="522" y="165" type="curve" smooth="yes"/>
      <point x="403" y="165"/>
      <point x="139" y="170"/>
      <point x="139" y="334" type="curve" smooth="yes"/>
      <point x="139" y="376"/>
      <point x="152" y="424"/>
      <point x="175" y="475" type="curve" smooth="yes"/>
      <point x="177" y="479"/>
      <point x="170" y="484"/>
      <point x="165" y="484" type="curve" smooth="yes"/>
      <point x="164" y="484"/>
      <point x="163" y="484"/>
      <point x="162" y="483" type="curve" smooth="yes"/>
      <point x="80" y="404"/>
      <point x="40" y="308"/>
    </contour>
  </outline>
</glyph>
<glyph name="fehDotless-ar" format="2">
  <advance width="1210"/>
  <unicode hex="06A1"/>
  <anchor x="1028" y="730" name="above"/>
  <anchor x="270" y="690" name="alef"/>
  <anchor x="966" y="-25" name="below"/>
  <anchor x="605" y="732" name="diaA"/>
  <anchor x="226" y="-202" name="diaB"/>
  <outline>
    <contour>
      <point x="1109" y="262" type="curve"/>
      <point x="1120" y="283" type="line"/>
      <point x="950" y="187"/>
      <point x="713" y="165"/>
      <point x="522" y="165" type="curve" smooth="yes"/>
      <point x="403" y="165"/>
      <point x="139" y="170"/>
      <point x="139" y="334" type="curve" smooth="yes"/>
      <point x="139" y="376"/>
      <point x="152" y="424"/>
      <point x="175" y="475" type="curve"/>
      <point x="162" y="483" type="line"/>
      <point x="80" y="404"/>
      <point x="40" y="308"/>
      <point x="40" y="223" type="curve" smooth="yes"/>
      <point x="40" y="42"/>
      <point x="270" y="-15"/>
      <point x="454" y="-15" type="curve" smooth="yes"/>
      <point x="745" y="-15"/>
      <point x="1011" y="57"/>
      <point x="1078" y="134" type="curve" smooth="yes"/>
      <point x="1139" y="205"/>
      <point x="1170" y="306"/>
      <point x="1170" y="402" type="curve" smooth="yes"/>
      <point x="1170" y="564"/>
      <point x="1122" y="727"/>
      <point x="1031" y="727" type="curve" smooth="yes"/>
      <point x="926" y="727"/>
      <point x="896" y="507"/>
      <point x="896" y="437" type="curve" smooth="yes"/>
      <point x="896" y="343"/>
      <point x="943" y="292"/>
      <point x="1009" y="292" type="curve" smooth="yes"/>
      <point x="1049" y="292"/>
      <point x="1121" y="364"/>
      <point x="1133" y="420" type="curve"/>
      <point x="1105" y="520" type="line"/>
      <point x="1091" y="490"/>
      <point x="1038" y="442"/>
      <point x="1009" y="442" type="curve" smooth="yes"/>
      <point x="976" y="442"/>
      <point x="951" y="478"/>
      <point x="951" y="490" type="curve" smooth="yes"/>
      <point x="951" y="517"/>
      <point x="990" y="577"/>
      <point x="1017" y="577" type="curve" smooth="yes"/>
      <point x="1068" y="577"/>
      <point x="1148" y="417"/>
    </contour>
  </outline>
</glyph>
<glyph name="absVeh" format="1">
  <advance width="1220"/>
  <unicode hex="06A4"/>
  <outline>
    <component base="absDotlessFeh"/>
    <component base="_dot3u" xOffset="1028" yOffset="1016"/>
    <contour>
      <point x="270" y="690" type="move" name="alef"/>
    </contour>
    <contour>
      <point x="595" y="1077" type="move" name="diaA"/>
    </contour>
    <contour>
      <point x="226" y="-202" type="move" name="diaB"/>
    </contour>
  </outline>
</glyph>
<glyph name="absKeheh" format="2">
  <advance width="1334"/>
  <unicode hex="06A9"/>
  <anchor x="728" y="861" name="above"/>
  <anchor x="228" y="773" name="alef"/>
  <anchor x="812" y="-50" name="below"/>
  <anchor x="521" y="1020" name="diaA"/>
  <anchor x="286" y="-202" name="diaB"/>
  <anchor x="1058" y="935" name="ring"/>
  <outline>
    <contour>
      <point x="598" y="0" type="line"/>
      <point x="624" y="0"/>
      <point x="639" y="51"/>
      <point x="639" y="98" type="curve" smooth="yes"/>
      <point x="639" y="140"/>
      <point x="628" y="180"/>
      <point x="604" y="180" type="curve" smooth="yes"/>
      <point x="324" y="180" type="line" smooth="yes"/>
      <point x="198" y="180"/>
      <point x="139" y="242"/>
      <point x="139" y="334" type="curve" smooth="yes"/>
      <point x="139" y="376"/>
      <point x="152" y="424"/>
      <point x="175" y="475" type="curve" smooth="yes"/>
      <point x="177" y="479"/>
      <point x="170" y="484"/>
      <point x="165" y="484" type="curve" smooth="yes"/>
      <point x="164" y="484"/>
      <point x="163" y="484"/>
      <point x="162" y="483" type="curve" smooth="yes"/>
      <point x="80" y="404"/>
      <point x="40" y="308"/>
      <point x="40" y="223" type="curve" smooth="yes"/>
      <point x="40" y="101"/>
      <point x="123" y="0"/>
      <point x="289" y="0" type="curve"/>
    </contour>
    <component base="absKehehIni" xOffset="595"/>
  </outline>
</glyph>
<glyph name="absKafRing" format="1">
  <advance width="1348"/>
  <unicode hex="06AB"/>
  <outline>
    <component base="absKeheh"/>
    <component base="_ring" xOffset="1074" yOffset="784"/>
    <contour>
      <point x="242" y="773" type="move" name="alef"/>
    </contour>
    <contour>
      <point x="535" y="1020" type="move" name="diaA"/>
    </contour>
    <contour>
      <point x="300" y="-202" type="move" name="diaB"/>
    </contour>
  </outline>
</glyph>
<glyph name="absKafDotAbove" format="1">
  <advance width="1014"/>
  <unicode hex="06AC"/>
  <outline>
    <component base="absKaf"/>
    <component base="_dot1" xOffset="513" yOffset="1031"/>
    <contour>
      <point x="354" y="1137" type="move" name="alef"/>
    </contour>
    <contour>
      <point x="460" y="1209" type="move" name="diaA"/>
    </contour>
    <contour>
      <point x="300" y="-202" type="move" name="diaB"/>
    </contour>
  </outline>
</glyph>
<glyph name="absNg" format="1">
  <advance width="1014"/>
  <unicode hex="06AD"/>
  <outline>
    <component base="absKaf"/>
    <component base="_dot3u" xOffset="472" yOffset="1143"/>
    <contour>
      <point x="305" y="1350" type="move" name="alef"/>
    </contour>
    <contour>
      <point x="420" y="1424" type="move" name="diaA"/>
    </contour>
    <contour>
      <point x="300" y="-202" type="move" name="diaB"/>
    </contour>
  </outline>
</glyph>
<glyph name="absLamSmallV" format="1">
  <advance width="701"/>
  <unicode hex="06B5"/>
  <outline>
    <component base="absLam"/>
    <component base="_smallV" xOffset="531" yOffset="1581"/>
    <contour>
      <point x="293" y="928" type="move" name="alef"/>
    </contour>
    <contour>
      <point x="464" y="1774" type="move" name="diaA"/>
    </contour>
    <contour>
      <point x="221" y="-202" type="move" name="diaB"/>
    </contour>
  </outline>
</glyph>
<glyph name="absLamDotAbove" format="1">
  <advance width="701"/>
  <unicode hex="06B6"/>
  <outline>
    <component base="absLam"/>
    <component base="_dot1" xOffset="531" yOffset="1593"/>
    <contour>
      <point x="293" y="975" type="move" name="alef"/>
    </contour>
    <contour>
      <point x="468" y="1749" type="move" name="diaA"/>
    </contour>
    <contour>
      <point x="221" y="-202" type="move" name="diaB"/>
    </contour>
  </outline>
</glyph>
<glyph name="absLamThreeDotsAbove" format="1">
  <advance width="701"/>
  <unicode hex="06B7"/>
  <outline>
    <component base="absLam"/>
    <component base="_dot3u" xOffset="531" yOffset="1699"/>
    <contour>
      <point x="201" y="987" type="move" name="alef"/>
    </contour>
    <contour>
      <point x="392" y="1968" type="move" name="diaA"/>
    </contour>
    <contour>
      <point x="221" y="-202" type="move" name="diaB"/>
    </contour>
  </outline>
</glyph>
<glyph name="absLamThreeDotsBelow" format="1">
  <advance width="701"/>
  <unicode hex="06B8"/>
  <outline>
    <component base="absLam"/>
    <component base="_dot3d" xOffset="521" yOffset="-296"/>
    <contour>
      <point x="308" y="975" type="move" name="alef"/>
    </contour>
    <contour>
      <point x="351" y="1422" type="move" name="diaA"/>
    </contour>
    <contour>
      <point x="165" y="-458" type="move" name="diaB"/>
    </contour>
  </outline>
</glyph>
<glyph name="absNoonDotBelow" format="1">
  <advance width="749"/>
  <unicode hex="06B9"/>
  <outline>
    <component base="absNoonGhunna"/>
    <component base="_dot1" xOffset="329" yOffset="522"/>
    <component base="_dot1" xOffset="374" yOffset="-537"/>
    <contour>
      <point x="172" y="710" type="move" name="alef"/>
    </contour>
    <contour>
      <point x="276" y="769" type="move" name="diaA"/>
    </contour>
    <contour>
      <point x="231" y="-697" type="move" name="diaB"/>
    </contour>
  </outline>
</glyph>
<glyph name="absRnoon" format="1">
  <advance width="749"/>
  <unicode hex="06BB"/>
  <outline>
    <component base="absNoonGhunna"/>
    <component base="_tah" xOffset="329" yOffset="503"/>
    <contour>
      <point x="128" y="682" type="move" name="alef"/>
    </contour>
    <contour>
      <point x="292" y="948" type="move" name="diaA"/>
    </contour>
    <contour>
      <point x="231" y="-425" type="move" name="diaB"/>
    </contour>
  </outline>
</glyph>
<glyph name="absNoonThreeDotsAbove" format="1">
  <advance width="749"/>
  <unicode hex="06BD"/>
  <outline>
    <component base="absNoonGhunna"/>
    <component base="_dot3u" xOffset="329" yOffset="628"/>
    <contour>
      <point x="160" y="876" type="move" name="alef"/>
    </contour>
    <contour>
      <point x="280" y="948" type="move" name="diaA"/>
    </contour>
    <contour>
      <point x="231" y="-425" type="move" name="diaB"/>
    </contour>
  </outline>
</glyph>
<glyph name="absHehDoachashmee" format="2">
  <advance width="850"/>
  <unicode hex="06BE"/>
  <anchor x="481" y="750" name="above"/>
  <anchor x="246" y="753" name="alef"/>
  <anchor x="409" y="-64" name="below"/>
  <anchor x="413" y="891" name="diaA"/>
  <anchor x="150" y="-200" name="diaB"/>
  <outline>
    <contour>
      <point x="556" y="193" type="curve" smooth="yes"/>
      <point x="573" y="218"/>
      <point x="602" y="305"/>
      <point x="602" y="338" type="curve" smooth="yes"/>
      <point x="602" y="362"/>
      <point x="578" y="545"/>
      <point x="494" y="545" type="curve"/>
      <point x="390" y="545"/>
      <point x="317" y="367"/>
      <point x="317" y="289" type="curve" smooth="yes"/>
      <point x="317" y="161"/>
      <point x="506" y="86"/>
      <point x="680" y="86" type="curve" smooth="yes"/>
      <point x="705" y="86"/>
      <point x="745" y="86"/>
      <point x="766" y="102" type="curve" smooth="yes"/>
      <point x="813" y="139"/>
      <point x="817" y="231"/>
      <point x="817" y="287" type="curve" smooth="yes"/>
      <point x="817" y="375"/>
      <point x="791" y="428"/>
      <point x="721" y="485" type="curve" smooth="yes"/>
      <point x="453" y="707" type="line"/>
      <point x="444" y="706"/>
      <point x="436" y="700"/>
      <point x="432" y="692" type="curve"/>
      <point x="371" y="547" type="line"/>
      <point x="367" y="537"/>
      <point x="368" y="529"/>
      <point x="375" y="522" type="curve"/>
      <point x="519" y="477"/>
      <point x="698" y="334"/>
      <point x="715" y="317" type="curve" smooth="yes"/>
      <point x="750" y="285"/>
      <point x="774" y="248"/>
      <point x="774" y="233" type="curve" smooth="yes"/>
      <point x="774" y="219"/>
      <point x="752" y="219"/>
      <point x="741" y="219" type="curve" smooth="yes"/>
      <point x="660" y="219"/>
      <point x="367" y="279"/>
      <point x="367" y="324" type="curve" smooth="yes"/>
      <point x="367" y="354"/>
      <point x="434" y="440"/>
      <point x="465" y="440" type="curve"/>
      <point x="494" y="440"/>
      <point x="547" y="358"/>
      <point x="547" y="332" type="curve" smooth="yes"/>
      <point x="547" y="226"/>
      <point x="210" y="36"/>
      <point x="2" y="0" type="curve"/>
      <point x="2" y="0"/>
      <point x="4" y="-14"/>
      <point x="27" y="-14" type="curve" smooth="yes"/>
      <point x="174" y="-14"/>
      <point x="423" y="0"/>
    </contour>
  </outline>
</glyph>
<glyph name="absHehYehAbove" format="1">
  <advance width="471"/>
  <unicode hex="06C0"/>
  <outline>
    <component base="absAe"/>
    <component base="_hamza" xOffset="216" yOffset="900"/>
    <contour>
      <point x="33" y="1106" type="move" name="alef"/>
    </contour>
    <contour>
      <point x="237" y="1153" type="move" name="diaA"/>
    </contour>
    <contour>
      <point x="177" y="-202" type="move" name="diaB"/>
    </contour>
  </outline>
</glyph>
<glyph name="absOe" format="1">
  <advance width="612"/>
  <unicode hex="06C6"/>
  <outline>
    <component base="absWaw"/>
    <component base="_smallV" xOffset="396" yOffset="662"/>
    <contour>
      <point x="75" y="884" type="move" name="alef"/>
    </contour>
    <contour>
      <point x="313" y="915" type="move" name="diaA"/>
    </contour>
    <contour>
      <point x="142" y="-425" type="move" name="diaB"/>
    </contour>
  </outline>
</glyph>
<glyph name="absWawTwoDotsAbove" format="1">
  <advance width="612"/>
  <unicode hex="06CA"/>
  <outline>
    <component base="absWaw"/>
    <component base="_dot2h" xOffset="396" yOffset="674"/>
    <contour>
      <point x="83" y="821" type="move" name="alef"/>
    </contour>
    <contour>
      <point x="313" y="883" type="move" name="diaA"/>
    </contour>
    <contour>
      <point x="142" y="-425" type="move" name="diaB"/>
    </contour>
  </outline>
</glyph>
<glyph name="absYehSmallV" format="1">
  <advance width="1016"/>
  <unicode hex="06CE"/>
  <outline>
    <component base="_smallV" xOffset="538" yOffset="822"/>
    <component base="absYeh.noDots"/>
    <contour>
      <point x="340" y="1027" type="move" name="alef"/>
    </contour>
    <contour>
      <point x="503" y="1073" type="move" name="diaA"/>
    </contour>
    <contour>
      <point x="260" y="-462" type="move" name="diaB"/>
    </contour>
  </outline>
</glyph>
<glyph name="absYehThreeDotsBelow" format="1">
  <advance width="1016"/>
  <unicode hex="06D1"/>
  <outline>
    <component base="_dot3d" xOffset="338" yOffset="-693"/>
    <component base="absYeh.noDots"/>
    <contour>
      <point x="335" y="539" type="move" name="alef"/>
    </contour>
    <contour>
      <point x="478" y="700" type="move" name="diaA"/>
    </contour>
    <contour>
      <point x="273" y="-952" type="move" name="diaB"/>
    </contour>
  </outline>
</glyph>
<glyph name="absYehBarree" format="2">
  <advance width="1178"/>
  <unicode hex="06D2"/>
  <anchor x="385" y="286" name="above"/>
  <anchor x="621" y="-503" name="below"/>
  <anchor x="389" y="530" name="diaA"/>
  <anchor x="336" y="-620" name="diaB"/>
  <outline>
    <contour>
      <point x="1165" y="-237" type="curve"/>
      <point x="1004" y="-265"/>
      <point x="824" y="-278"/>
      <point x="663" y="-278" type="curve" smooth="yes"/>
      <point x="402" y="-278"/>
      <point x="147" y="-244"/>
      <point x="147" y="-197" type="curve" smooth="yes"/>
      <point x="147" y="-84"/>
      <point x="550" y="-128"/>
      <point x="589" y="125" type="curve"/>
      <point x="582" y="122" type="line"/>
      <point x="604" y="78"/>
      <point x="662" y="34"/>
      <point x="688" y="13" type="curve"/>
      <point x="688" y="13"/>
      <point x="698" y="33"/>
      <point x="698" y="54" type="curve" smooth="yes"/>
      <point x="698" y="59"/>
      <point x="697" y="63"/>
      <point x="694" y="66" type="curve" smooth="yes"/>
      <point x="625" y="134"/>
      <point x="597" y="175"/>
      <point x="591" y="228" type="curve" smooth="yes"/>
      <point x="589" y="244"/>
      <point x="559" y="244"/>
      <point x="557" y="230" type="curve" smooth="yes"/>
      <point x="507" y="-81"/>
      <point x="77" y="148"/>
      <point x="77" y="-317" type="curve" smooth="yes"/>
      <point x="77" y="-443"/>
      <point x="324" y="-456"/>
      <point x="533" y="-456" type="curve" smooth="yes"/>
      <point x="749" y="-456"/>
      <point x="1023" y="-440"/>
      <point x="1100" y="-364" type="curve" smooth="yes"/>
      <point x="1115" y="-349"/>
      <point x="1165" y="-258"/>
    </contour>
  </outline>
</glyph>
<glyph name="absAe" format="2">
  <advance width="471"/>
  <unicode hex="06D5"/>
  <anchor x="200" y="688" name="above"/>
  <anchor x="237" y="-52" name="below"/>
  <anchor x="177" y="830" name="diaA"/>
  <anchor x="177" y="-202" name="diaB"/>
  <outline>
    <contour>
      <point x="185" y="405" type="curve"/>
      <point x="152" y="438" type="line"/>
      <point x="100" y="366"/>
      <point x="62" y="235"/>
      <point x="62" y="151" type="curve" smooth="yes"/>
      <point x="62" y="58"/>
      <point x="103" y="-3"/>
      <point x="202" y="-3" type="curve" smooth="yes"/>
      <point x="331" y="-3"/>
      <point x="413" y="192"/>
      <point x="413" y="300" type="curve" smooth="yes"/>
      <point x="413" y="531"/>
      <point x="204" y="505"/>
      <point x="179" y="646" type="curve"/>
      <point x="152" y="601"/>
      <point x="130" y="527"/>
      <point x="130" y="474" type="curve" smooth="yes"/>
      <point x="130" y="432"/>
      <point x="133" y="421"/>
      <point x="193" y="393" type="curve" smooth="yes"/>
      <point x="253" y="365"/>
      <point x="349" y="277"/>
      <point x="349" y="257" type="curve" smooth="yes"/>
      <point x="349" y="214"/>
      <point x="241" y="175"/>
      <point x="206" y="175" type="curve"/>
      <point x="146" y="175"/>
      <point x="128" y="226"/>
      <point x="128" y="278" type="curve" smooth="yes"/>
      <point x="128" y="306"/>
      <point x="153" y="377"/>
    </contour>
  </outline>
</glyph>
<glyph name="absSmallHighSadLamAlefMaksura" format="2">
  <unicode hex="06D6"/>
  <anchor x="-20" y="1007" name="_diaA"/>
  <anchor x="-20" y="1734" name="diaA"/>
  <outline>
    <contour>
      <point x="389" y="1448" type="curve" smooth="yes"/>
      <point x="273" y="1448"/>
      <point x="104" y="1248"/>
      <point x="104" y="1155" type="curve" smooth="yes"/>
      <point x="104" y="1147"/>
      <point x="115" y="1135"/>
      <point x="117" y="1135" type="curve"/>
      <point x="145" y="1247"/>
      <point x="226" y="1376"/>
      <point x="354" y="1376" type="curve" smooth="yes"/>
      <point x="391" y="1376"/>
      <point x="422" y="1354"/>
      <point x="422" y="1337" type="curve"/>
      <point x="422" y="1317"/>
      <point x="299" y="1264"/>
      <point x="158" y="1264" type="curve" smooth="yes"/>
      <point x="59" y="1264"/>
      <point x="63" y="1321"/>
      <point x="59" y="1321" type="curve" smooth="yes"/>
      <point x="52" y="1321"/>
      <point x="35" y="1264"/>
      <point x="-14" y="1264" type="curve" smooth="yes"/>
      <point x="-72" y="1264"/>
      <point x="-70" y="1296"/>
      <point x="-76" y="1358" type="curve" smooth="yes"/>
      <point x="-82" y="1421"/>
      <point x="-94" y="1597"/>
      <point x="-98" y="1677" type="curve" smooth="yes"/>
      <point x="-98" y="1700"/>
      <point x="-106" y="1714"/>
      <point x="-117" y="1714" type="curve" smooth="yes"/>
      <point x="-127" y="1714"/>
      <point x="-129" y="1675"/>
      <point x="-129" y="1667" type="curve" smooth="yes"/>
      <point x="-129" y="1587"/>
      <point x="-111" y="1475"/>
      <point x="-111" y="1346" type="curve" smooth="yes"/>
      <point x="-111" y="1311"/>
      <point x="-127" y="1278"/>
      <point x="-152" y="1270" type="curve" smooth="yes"/>
      <point x="-197" y="1251"/>
      <point x="-240" y="1243"/>
      <point x="-283" y="1212" type="curve" smooth="yes"/>
      <point x="-344" y="1167"/>
      <point x="-354" y="1139"/>
      <point x="-354" y="1108" type="curve" smooth="yes"/>
      <point x="-354" y="1094"/>
      <point x="-352" y="1065"/>
      <point x="-338" y="1059" type="curve" smooth="yes"/>
      <point x="-287" y="1034"/>
      <point x="-135" y="1026"/>
      <point x="-61" y="1026" type="curve" smooth="yes"/>
      <point x="-4" y="1026"/>
      <point x="102" y="1030"/>
      <point x="141" y="1040" type="curve" smooth="yes"/>
      <point x="197" y="1055"/>
      <point x="287" y="1087"/>
      <point x="287" y="1092" type="curve" smooth="yes"/>
      <point x="287" y="1098"/>
      <point x="287" y="1100"/>
      <point x="281" y="1100" type="curve" smooth="yes"/>
      <point x="270" y="1100"/>
      <point x="141" y="1094"/>
      <point x="74" y="1094" type="curve" smooth="yes"/>
      <point x="-82" y="1094"/>
      <point x="-176" y="1100"/>
      <point x="-281" y="1112" type="curve" smooth="yes"/>
      <point x="-299" y="1114"/>
      <point x="-322" y="1120"/>
      <point x="-322" y="1139" type="curve" smooth="yes"/>
      <point x="-322" y="1169"/>
      <point x="-242" y="1184"/>
      <point x="-215" y="1192" type="curve" smooth="yes"/>
      <point x="-174" y="1202"/>
      <point x="-133" y="1219"/>
      <point x="-102" y="1292" type="curve"/>
      <point x="-84" y="1233"/>
      <point x="-66" y="1200"/>
      <point x="-14" y="1200" type="curve" smooth="yes"/>
      <point x="10" y="1200"/>
      <point x="33" y="1219"/>
      <point x="41" y="1245" type="curve"/>
      <point x="55" y="1212"/>
      <point x="97" y="1200"/>
      <point x="130" y="1200" type="curve" smooth="yes"/>
      <point x="222" y="1202"/>
      <point x="459" y="1243"/>
      <point x="459" y="1368" type="curve" smooth="yes"/>
      <point x="459" y="1399"/>
      <point x="438" y="1448"/>
    </contour>
  </outline>
</glyph>
<glyph name="absSmallHighQafLamAlefMaksura" format="2">
  <unicode hex="06D7"/>
  <anchor x="-14" y="1007" name="_diaA"/>
  <anchor x="-14" y="1734" name="diaA"/>
  <outline>
    <contour>
      <point x="201" y="1634" type="curve"/>
      <point x="201" y="1636"/>
      <point x="160" y="1669"/>
      <point x="156" y="1669" type="curve" smooth="yes"/>
      <point x="152" y="1669"/>
      <point x="125" y="1630"/>
      <point x="125" y="1630" type="curve"/>
      <point x="121" y="1624"/>
      <point x="121" y="1626"/>
      <point x="117" y="1628" type="curve"/>
      <point x="117" y="1628"/>
      <point x="82" y="1659"/>
      <point x="76" y="1659" type="curve" smooth="yes"/>
      <point x="72" y="1659"/>
      <point x="43" y="1614"/>
      <point x="43" y="1610" type="curve" smooth="yes"/>
      <point x="43" y="1606"/>
      <point x="84" y="1575"/>
      <point x="88" y="1575" type="curve" smooth="yes"/>
      <point x="92" y="1575"/>
      <point x="119" y="1614"/>
      <point x="119" y="1614" type="curve"/>
      <point x="121" y="1618"/>
      <point x="121" y="1618"/>
      <point x="125" y="1616" type="curve"/>
      <point x="125" y="1616"/>
      <point x="164" y="1585"/>
      <point x="168" y="1585" type="curve" smooth="yes"/>
      <point x="172" y="1585"/>
      <point x="201" y="1628"/>
    </contour>
    <contour>
      <point x="131" y="1493" type="curve" smooth="yes"/>
      <point x="92" y="1493"/>
      <point x="66" y="1389"/>
      <point x="66" y="1368" type="curve" smooth="yes"/>
      <point x="66" y="1335"/>
      <point x="74" y="1307"/>
      <point x="115" y="1307" type="curve" smooth="yes"/>
      <point x="154" y="1307"/>
      <point x="176" y="1341"/>
      <point x="184" y="1368" type="curve"/>
      <point x="151" y="1406" type="line"/>
      <point x="151" y="1392"/>
      <point x="129" y="1378"/>
      <point x="121" y="1378" type="curve" smooth="yes"/>
      <point x="106" y="1378"/>
      <point x="98" y="1393"/>
      <point x="98" y="1401" type="curve" smooth="yes"/>
      <point x="98" y="1407"/>
      <point x="106" y="1417"/>
      <point x="115" y="1417" type="curve" smooth="yes"/>
      <point x="138" y="1417"/>
      <point x="199" y="1348"/>
      <point x="199" y="1323" type="curve" smooth="yes"/>
      <point x="199" y="1278"/>
      <point x="53" y="1264"/>
      <point x="27" y="1264" type="curve" smooth="yes"/>
      <point x="-31" y="1264"/>
      <point x="-39" y="1296"/>
      <point x="-45" y="1358" type="curve" smooth="yes"/>
      <point x="-53" y="1421"/>
      <point x="-66" y="1597"/>
      <point x="-68" y="1677" type="curve" smooth="yes"/>
      <point x="-68" y="1700"/>
      <point x="-76" y="1714"/>
      <point x="-86" y="1714" type="curve" smooth="yes"/>
      <point x="-98" y="1714"/>
      <point x="-100" y="1675"/>
      <point x="-100" y="1667" type="curve" smooth="yes"/>
      <point x="-100" y="1587"/>
      <point x="-82" y="1475"/>
      <point x="-82" y="1346" type="curve" smooth="yes"/>
      <point x="-82" y="1311"/>
      <point x="-96" y="1278"/>
      <point x="-121" y="1270" type="curve" smooth="yes"/>
      <point x="-166" y="1251"/>
      <point x="-211" y="1243"/>
      <point x="-252" y="1212" type="curve" smooth="yes"/>
      <point x="-315" y="1167"/>
      <point x="-324" y="1139"/>
      <point x="-324" y="1108" type="curve" smooth="yes"/>
      <point x="-324" y="1094"/>
      <point x="-322" y="1065"/>
      <point x="-307" y="1059" type="curve" smooth="yes"/>
      <point x="-256" y="1034"/>
      <point x="-106" y="1026"/>
      <point x="-31" y="1026" type="curve" smooth="yes"/>
      <point x="27" y="1026"/>
      <point x="131" y="1030"/>
      <point x="172" y="1040" type="curve" smooth="yes"/>
      <point x="227" y="1055"/>
      <point x="317" y="1087"/>
      <point x="317" y="1092" type="curve"/>
      <point x="317" y="1098"/>
      <point x="317" y="1100"/>
      <point x="309" y="1100" type="curve" smooth="yes"/>
      <point x="301" y="1100"/>
      <point x="172" y="1094"/>
      <point x="104" y="1094" type="curve" smooth="yes"/>
      <point x="-53" y="1094"/>
      <point x="-145" y="1100"/>
      <point x="-250" y="1112" type="curve" smooth="yes"/>
      <point x="-268" y="1114"/>
      <point x="-291" y="1120"/>
      <point x="-291" y="1139" type="curve" smooth="yes"/>
      <point x="-291" y="1169"/>
      <point x="-211" y="1184"/>
      <point x="-186" y="1192" type="curve"/>
      <point x="-140" y="1203"/>
      <point x="-99" y="1221"/>
      <point x="-66" y="1307" type="curve"/>
      <point x="-76" y="1305" type="line"/>
      <point x="-58" y="1238"/>
      <point x="-39" y="1200"/>
      <point x="27" y="1200" type="curve" smooth="yes"/>
      <point x="82" y="1200"/>
      <point x="156" y="1212"/>
      <point x="195" y="1260" type="curve" smooth="yes"/>
      <point x="213" y="1280"/>
      <point x="219" y="1315"/>
      <point x="219" y="1337" type="curve" smooth="yes"/>
      <point x="219" y="1413"/>
      <point x="160" y="1493"/>
    </contour>
  </outline>
</glyph>
<glyph name="absSmallHighMeemInitialForm" format="2">
  <unicode hex="06D8"/>
  <anchor x="0" y="987" name="_diaA"/>
  <anchor x="0" y="1234" name="diaA"/>
  <outline>
    <contour>
      <point x="73" y="1216" type="curve" smooth="yes"/>
      <point x="13" y="1216"/>
      <point x="-31" y="1024"/>
      <point x="-147" y="1024" type="curve" smooth="yes"/>
      <point x="-170" y="1024"/>
      <point x="-187" y="985"/>
      <point x="-123" y="985" type="curve" smooth="yes"/>
      <point x="4" y="985"/>
      <point x="-12" y="1163"/>
      <point x="54" y="1163" type="curve" smooth="yes"/>
      <point x="75" y="1163"/>
      <point x="92" y="1128"/>
      <point x="92" y="1110" type="curve" smooth="yes"/>
      <point x="92" y="1101"/>
      <point x="85" y="1097"/>
      <point x="78" y="1097" type="curve" smooth="yes"/>
      <point x="66" y="1097"/>
      <point x="19" y="1119"/>
      <point x="11" y="1131" type="curve"/>
      <point x="-12" y="1081" type="line"/>
      <point x="8" y="1066"/>
      <point x="51" y="1039"/>
      <point x="75" y="1039" type="curve" smooth="yes"/>
      <point x="114" y="1039"/>
      <point x="129" y="1088"/>
      <point x="129" y="1115" type="curve" smooth="yes"/>
      <point x="129" y="1135"/>
      <point x="96" y="1216"/>
    </contour>
  </outline>
</glyph>
<glyph name="lamAlefabove-ar" format="2">
  <unicode hex="06D9"/>
  <anchor x="0" y="970" name="_diaA"/>
  <anchor x="0" y="1591" name="diaA"/>
  <outline>
    <contour>
      <point x="106" y="1571" type="line"/>
      <point x="88" y="1559"/>
      <point x="82" y="1509"/>
      <point x="82" y="1497" type="curve" smooth="yes"/>
      <point x="82" y="1475"/>
      <point x="90" y="1438"/>
      <point x="90" y="1411" type="curve" smooth="yes"/>
      <point x="90" y="1292"/>
      <point x="50" y="1095"/>
      <point x="-39" y="1067" type="curve" smooth="yes"/>
      <point x="-51" y="1061"/>
      <point x="-70" y="1059"/>
      <point x="-88" y="1059" type="curve" smooth="yes"/>
      <point x="-92" y="1059"/>
      <point x="-92" y="997"/>
      <point x="-86" y="997" type="curve"/>
      <point x="-28" y="997" type="line"/>
      <point x="54" y="997"/>
      <point x="94" y="1027"/>
      <point x="94" y="1065" type="curve" smooth="yes"/>
      <point x="94" y="1170"/>
      <point x="-85" y="1420"/>
      <point x="-197" y="1526" type="curve" smooth="yes"/>
      <point x="-203" y="1532"/>
      <point x="-223" y="1548"/>
      <point x="-225" y="1548" type="curve" smooth="yes"/>
      <point x="-233" y="1548"/>
      <point x="-252" y="1495"/>
      <point x="-252" y="1485" type="curve" smooth="yes"/>
      <point x="-252" y="1466"/>
      <point x="-236" y="1442"/>
      <point x="-219" y="1425" type="curve" smooth="yes"/>
      <point x="-207" y="1411"/>
      <point x="-182" y="1384"/>
      <point x="-176" y="1384" type="curve" smooth="yes"/>
      <point x="-172" y="1384"/>
      <point x="-156" y="1397"/>
      <point x="-154" y="1401" type="curve"/>
      <point x="-86" y="1331"/>
      <point x="61" y="1140"/>
      <point x="61" y="1073" type="curve"/>
      <point x="61" y="1061"/>
      <point x="-4" y="1058"/>
      <point x="3" y="1059" type="curve"/>
      <point x="-3" y="1055" type="line"/>
      <point x="79" y="1099"/>
      <point x="117" y="1296"/>
      <point x="117" y="1399" type="curve" smooth="yes"/>
      <point x="117" y="1456"/>
      <point x="119" y="1493"/>
      <point x="147" y="1516" type="curve"/>
    </contour>
  </outline>
</glyph>
<glyph name="absSmallHighRoundedZero" format="1">
  <advance width="0"/>
  <unicode hex="06DF"/>
  <outline>
    <component base="absSukun"/>
    <contour>
      <point x="150" y="1039" type="move" name="_diaA"/>
    </contour>
    <contour>
      <point x="150" y="1421" type="move" name="diaA"/>
    </contour>
  </outline>
</glyph>
<glyph name="absSmallHighDotlessHeadOfKhah" format="2">
  <unicode hex="06E1"/>
  <anchor x="0" y="974" name="_diaA"/>
  <anchor x="0" y="1250" name="diaA"/>
  <outline>
    <contour>
      <point x="183" y="1111" type="curve" smooth="yes"/>
      <point x="183" y="1118"/>
      <point x="154" y="1145"/>
      <point x="143" y="1147" type="curve" smooth="yes"/>
      <point x="54" y="1161"/>
      <point x="14" y="1219"/>
      <point x="-58" y="1219" type="curve" smooth="yes"/>
      <point x="-121" y="1219"/>
      <point x="-145" y="1134"/>
      <point x="-145" y="1127" type="curve" smooth="yes"/>
      <point x="-145" y="1125"/>
      <point x="-144" y="1123"/>
      <point x="-142" y="1123" type="curve" smooth="yes"/>
      <point x="-138" y="1123"/>
      <point x="-108" y="1158"/>
      <point x="-68" y="1158" type="curve" smooth="yes"/>
      <point x="-5" y="1158"/>
      <point x="26" y="1113"/>
      <point x="86" y="1103" type="curve"/>
      <point x="83" y="1110" type="line"/>
      <point x="30" y="1073"/>
      <point x="-31" y="1047"/>
      <point x="-117" y="1038" type="curve" smooth="yes"/>
      <point x="-162" y="1033"/>
      <point x="-173" y="1030"/>
      <point x="-173" y="1021" type="curve" smooth="yes"/>
      <point x="-173" y="1013"/>
      <point x="-117" y="995"/>
      <point x="-67" y="995" type="curve" smooth="yes"/>
      <point x="-21" y="995"/>
      <point x="28" y="1006"/>
      <point x="84" y="1037" type="curve" smooth="yes"/>
      <point x="129" y="1062"/>
      <point x="183" y="1100"/>
    </contour>
  </outline>
</glyph>
<glyph name="hahabove-ar" format="2">
  <unicode hex="06E1"/>
  <anchor x="0" y="994" name="_diaA"/>
  <anchor x="48.463" y="1241.336" name="above"/>
  <anchor x="-75.483" y="1300.119" name="alef"/>
  <anchor x="-23" y="982" name="below"/>
  <anchor x="0" y="1250" name="diaA"/>
  <anchor x="-81" y="890" name="diaB"/>
  <outline>
    <contour>
      <point x="-144" y="1004" type="line"/>
      <point x="37" y="1004"/>
      <point x="7" y="1094"/>
      <point x="191" y="1099" type="curve"/>
      <point x="158" y="1156" type="line"/>
      <point x="53" y="1156"/>
      <point x="48" y="1214"/>
      <point x="-49" y="1214" type="curve" smooth="yes"/>
      <point x="-100" y="1214"/>
      <point x="-134" y="1179"/>
      <point x="-143" y="1131" type="curve"/>
      <point x="-136" y="1128" type="line"/>
      <point x="-123" y="1141"/>
      <point x="-101" y="1154"/>
      <point x="-70" y="1154" type="curve" smooth="yes"/>
      <point x="-14" y="1154"/>
      <point x="27" y="1105"/>
      <point x="127" y="1105" type="curve"/>
      <point x="133" y="1134" type="line"/>
      <point x="10" y="1134"/>
      <point x="5" y="1036"/>
      <point x="-177" y="1036" type="curve"/>
    </contour>
  </outline>
</glyph>
<glyph name="absSmallHighMadda" format="2">
  <advance width="0"/>
  <unicode hex="06E4"/>
  <anchor x="0" y="1117" name="_diaA"/>
  <anchor x="0" y="1277" name="diaA"/>
  <outline>
    <contour>
      <point x="195" y="1245" type="curve"/>
      <point x="195" y="1251"/>
      <point x="193" y="1257"/>
      <point x="184" y="1257" type="curve" smooth="yes"/>
      <point x="174" y="1257"/>
      <point x="121" y="1231"/>
      <point x="8" y="1231" type="curve" smooth="yes"/>
      <point x="-33" y="1231"/>
      <point x="-80" y="1237"/>
      <point x="-96" y="1237" type="curve" smooth="yes"/>
      <point x="-117" y="1237"/>
      <point x="-147" y="1229"/>
      <point x="-147" y="1198" type="curve" smooth="yes"/>
      <point x="-147" y="1182"/>
      <point x="-129" y="1145"/>
      <point x="-111" y="1145" type="curve" smooth="yes"/>
      <point x="-98" y="1145"/>
      <point x="-106" y="1180"/>
      <point x="-92" y="1180" type="curve" smooth="yes"/>
      <point x="-92" y="1180"/>
      <point x="-35" y="1176"/>
      <point x="0" y="1176" type="curve" smooth="yes"/>
      <point x="49" y="1176"/>
      <point x="195" y="1217"/>
    </contour>
  </outline>
</glyph>
<glyph name="maddalong-ar" format="2">
  <unicode hex="06E4"/>
  <anchor x="0" y="1117" name="_diaA"/>
  <anchor x="0" y="1277" name="diaA"/>
  <outline>
    <contour>
      <point x="189" y="1260" type="line"/>
      <point x="166" y="1250"/>
      <point x="103" y="1226"/>
      <point x="7" y="1226" type="curve" smooth="yes"/>
      <point x="-47" y="1226"/>
      <point x="-92" y="1238"/>
      <point x="-117" y="1238" type="curve" smooth="yes"/>
      <point x="-132" y="1238"/>
      <point x="-143" y="1234"/>
      <point x="-143" y="1213" type="curve" smooth="yes"/>
      <point x="-143" y="1193"/>
      <point x="-131" y="1165"/>
      <point x="-118" y="1143" type="curve"/>
      <point x="-99" y="1150" type="line"/>
      <point x="-102" y="1156"/>
      <point x="-106" y="1167"/>
      <point x="-106" y="1175" type="curve" smooth="yes"/>
      <point x="-106" y="1178"/>
      <point x="-105" y="1181"/>
      <point x="-103" y="1183" type="curve" smooth="yes"/>
      <point x="-101" y="1185"/>
      <point x="-98" y="1186"/>
      <point x="-93" y="1186" type="curve" smooth="yes"/>
      <point x="-77" y="1186"/>
      <point x="-44" y="1178"/>
      <point x="5" y="1178" type="curve" smooth="yes"/>
      <point x="65" y="1178"/>
      <point x="146" y="1206"/>
      <point x="193" y="1240" type="curve"/>
    </contour>
  </outline>
</glyph>
<glyph name="absPlaceOfSajdah" format="2">
  <advance width="750"/>
  <unicode hex="06E9"/>
  <outline>
    <contour>
      <point x="641" y="0" type="line"/>
      <point x="612" y="14"/>
      <point x="580" y="29"/>
      <point x="555" y="51" type="curve" smooth="yes"/>
      <point x="541" y="63"/>
      <point x="530" y="80"/>
      <point x="530" y="96" type="curve" smooth="yes"/>
      <point x="530" y="626" type="line"/>
      <point x="517" y="609" type="line"/>
      <point x="584" y="610"/>
      <point x="612" y="667"/>
      <point x="612" y="711" type="curve" smooth="yes"/>
      <point x="612" y="766"/>
      <point x="602" y="801"/>
      <point x="510" y="850" type="curve" smooth="yes"/>
      <point x="430" y="893"/>
      <point x="397" y="961"/>
      <point x="385" y="1040" type="curve" smooth="yes"/>
      <point x="375" y="1100" type="line"/>
      <point x="365" y="1040" type="line" smooth="yes"/>
      <point x="352" y="961"/>
      <point x="319" y="893"/>
      <point x="240" y="850" type="curve" smooth="yes"/>
      <point x="147" y="801"/>
      <point x="137" y="766"/>
      <point x="137" y="711" type="curve" smooth="yes"/>
      <point x="137" y="667"/>
      <point x="168" y="610"/>
      <point x="232" y="609" type="curve"/>
      <point x="219" y="626" type="line"/>
      <point x="219" y="96" type="line" smooth="yes"/>
      <point x="219" y="80"/>
      <point x="211" y="63"/>
      <point x="195" y="51" type="curve"/>
      <point x="172" y="29"/>
      <point x="137" y="14"/>
      <point x="109" y="0" type="curve"/>
    </contour>
    <contour>
      <point x="594" y="711" type="curve"/>
      <point x="594" y="662"/>
      <point x="553" y="633"/>
      <point x="510" y="629" type="curve"/>
      <point x="510" y="96" type="line" smooth="yes"/>
      <point x="510" y="72"/>
      <point x="524" y="51"/>
      <point x="541" y="37" type="curve" smooth="yes"/>
      <point x="552" y="29"/>
      <point x="559" y="20"/>
      <point x="573" y="15" type="curve"/>
      <point x="579" y="20" type="line"/>
      <point x="172" y="20" type="line"/>
      <point x="180" y="15" type="line"/>
      <point x="188" y="20"/>
      <point x="201" y="29"/>
      <point x="209" y="37" type="curve" smooth="yes"/>
      <point x="225" y="51"/>
      <point x="240" y="72"/>
      <point x="240" y="96" type="curve" smooth="yes"/>
      <point x="240" y="629" type="line"/>
      <point x="197" y="633"/>
      <point x="156" y="662"/>
      <point x="156" y="711" type="curve" smooth="yes"/>
      <point x="156" y="752"/>
      <point x="156" y="782"/>
      <point x="250" y="834" type="curve" smooth="yes"/>
      <point x="322" y="872"/>
      <point x="355" y="940"/>
      <point x="378" y="1009" type="curve"/>
      <point x="371" y="1009" type="line"/>
      <point x="396" y="940"/>
      <point x="429" y="872"/>
      <point x="500" y="834" type="curve" smooth="yes"/>
      <point x="594" y="782"/>
      <point x="594" y="752"/>
    </contour>
    <contour>
      <point x="522" y="713" type="curve"/>
      <point x="522" y="731"/>
      <point x="504" y="760"/>
      <point x="459" y="786" type="curve" smooth="yes"/>
      <point x="418" y="809"/>
      <point x="389" y="844"/>
      <point x="375" y="893" type="curve"/>
      <point x="362" y="844"/>
      <point x="332" y="809"/>
      <point x="293" y="786" type="curve" smooth="yes"/>
      <point x="248" y="760"/>
      <point x="227" y="731"/>
      <point x="227" y="713" type="curve" smooth="yes"/>
      <point x="227" y="675"/>
      <point x="274" y="648"/>
      <point x="314" y="654" type="curve"/>
      <point x="303" y="669" type="line"/>
      <point x="303" y="72" type="line"/>
      <point x="446" y="72" type="line"/>
      <point x="446" y="669" type="line"/>
      <point x="435" y="654" type="line"/>
      <point x="475" y="648"/>
      <point x="522" y="675"/>
    </contour>
  </outline>
</glyph>
<glyph name="absEmptyCentreLowStop" format="2">
  <unicode hex="06EA"/>
  <anchor x="0" y="-213" name="_diaB"/>
  <anchor x="0" y="-485" name="diaB"/>
  <outline>
    <contour>
      <point x="113" y="-352" type="line"/>
      <point x="0" y="-240" type="line"/>
      <point x="-113" y="-352" type="line"/>
      <point x="0" y="-465" type="line"/>
    </contour>
    <contour>
      <point x="95" y="-341" type="line"/>
      <point x="-11" y="-447" type="line"/>
      <point x="11" y="-447" type="line"/>
      <point x="-95" y="-341" type="line"/>
      <point x="-95" y="-363" type="line"/>
      <point x="11" y="-257" type="line"/>
      <point x="-11" y="-257" type="line"/>
      <point x="95" y="-363" type="line"/>
    </contour>
  </outline>
</glyph>
<glyph name="absEmptyCentreHighStop" format="2">
  <unicode hex="06EB"/>
  <anchor x="0" y="959" name="_diaA"/>
  <anchor x="0" y="1232" name="diaA"/>
  <outline>
    <contour>
      <point x="113" y="1100" type="line"/>
      <point x="0" y="1212" type="line"/>
      <point x="-113" y="1100" type="line"/>
      <point x="0" y="987" type="line"/>
    </contour>
    <contour>
      <point x="84" y="1100" type="line"/>
      <point x="0" y="1016" type="line"/>
      <point x="-84" y="1100" type="line"/>
      <point x="0" y="1184" type="line"/>
    </contour>
  </outline>
</glyph>
<glyph name="absSmallLowMeem" format="2">
  <unicode hex="06ED"/>
  <anchor x="17" y="-285" name="_diaB"/>
  <anchor x="17" y="-817" name="diaB"/>
  <outline>
    <contour>
      <point x="135" y="-428" type="curve"/>
      <point x="135" y="-387"/>
      <point x="70" y="-317"/>
      <point x="33" y="-317" type="curve" smooth="yes"/>
      <point x="-8" y="-317"/>
      <point x="-29" y="-336"/>
      <point x="-45" y="-373" type="curve" smooth="yes"/>
      <point x="-51" y="-383"/>
      <point x="-57" y="-406"/>
      <point x="-57" y="-408" type="curve" smooth="yes"/>
      <point x="-57" y="-412"/>
      <point x="-53" y="-412"/>
      <point x="-51" y="-412" type="curve" smooth="yes"/>
      <point x="-33" y="-412"/>
      <point x="-18" y="-387"/>
      <point x="-2" y="-387" type="curve" smooth="yes"/>
      <point x="14" y="-387"/>
      <point x="35" y="-397"/>
      <point x="39" y="-408" type="curve"/>
      <point x="-45" y="-432"/>
      <point x="-72" y="-446"/>
      <point x="-82" y="-500" type="curve" smooth="yes"/>
      <point x="-90" y="-539"/>
      <point x="-94" y="-555"/>
      <point x="-94" y="-578" type="curve" smooth="yes"/>
      <point x="-94" y="-639"/>
      <point x="-57" y="-678"/>
      <point x="-39" y="-795" type="curve"/>
      <point x="-39" y="-797"/>
      <point x="-39" y="-797"/>
      <point x="-37" y="-797" type="curve" smooth="yes"/>
      <point x="-31" y="-797"/>
      <point x="-23" y="-764"/>
      <point x="-23" y="-760" type="curve" smooth="yes"/>
      <point x="-23" y="-750"/>
      <point x="-76" y="-575"/>
      <point x="-76" y="-557" type="curve" smooth="yes"/>
      <point x="-76" y="-535"/>
      <point x="-63" y="-516"/>
      <point x="-29" y="-500" type="curve" smooth="yes"/>
      <point x="8" y="-483"/>
      <point x="39" y="-479"/>
      <point x="88" y="-479" type="curve" smooth="yes"/>
      <point x="90" y="-479"/>
      <point x="117" y="-479"/>
      <point x="117" y="-479" type="curve"/>
      <point x="127" y="-479"/>
      <point x="135" y="-436"/>
    </contour>
  </outline>
</glyph>
<glyph name="absEasternZero" format="2">
  <advance width="881"/>
  <unicode hex="06F0"/>
  <outline>
    <contour>
      <point x="461" y="649" type="curve"/>
      <point x="440" y="649"/>
      <point x="326" y="535"/>
      <point x="326" y="506" type="curve" smooth="yes"/>
      <point x="326" y="481"/>
      <point x="440" y="362"/>
      <point x="461" y="362" type="curve" smooth="yes"/>
      <point x="487" y="362"/>
      <point x="594" y="483"/>
      <point x="594" y="508" type="curve" smooth="yes"/>
      <point x="594" y="532"/>
      <point x="483" y="649"/>
    </contour>
  </outline>
</glyph>
<glyph name="absEasternFour" format="2">
  <advance width="881"/>
  <unicode hex="06F4"/>
  <outline>
    <contour>
      <point x="583" y="677" type="line"/>
      <point x="702" y="801" type="line"/>
      <point x="663" y="771"/>
      <point x="625" y="759"/>
      <point x="590" y="759" type="curve" smooth="yes"/>
      <point x="492" y="759"/>
      <point x="419" y="816"/>
      <point x="412" y="882" type="curve"/>
      <point x="407" y="837" type="line"/>
      <point x="440" y="938"/>
      <point x="581" y="972"/>
      <point x="687" y="972" type="curve" smooth="yes"/>
      <point x="715" y="972"/>
      <point x="741" y="968"/>
      <point x="762" y="960" type="curve"/>
      <point x="772" y="973" type="line"/>
      <point x="738" y="1055"/>
      <point x="670" y="1101"/>
      <point x="599" y="1101" type="curve" smooth="yes"/>
      <point x="485" y="1101"/>
      <point x="364" y="1005"/>
      <point x="364" y="765" type="curve"/>
    </contour>
    <contour>
      <point x="265" y="859" type="curve"/>
      <point x="300" y="632" type="line"/>
      <point x="321" y="595"/>
      <point x="365" y="567"/>
      <point x="472" y="567" type="curve" smooth="yes"/>
      <point x="612" y="567"/>
      <point x="708" y="715"/>
      <point x="764" y="846" type="curve"/>
      <point x="747" y="856" type="line"/>
      <point x="709" y="781"/>
      <point x="622" y="751"/>
      <point x="532" y="751" type="curve" smooth="yes"/>
      <point x="419" y="751"/>
      <point x="301" y="798"/>
    </contour>
    <component base="absOne" xOffset="-170"/>
  </outline>
</glyph>
<glyph name="absEasternFive" format="2">
  <advance width="881"/>
  <unicode hex="06F5"/>
  <outline>
    <contour>
      <point x="475" y="948" type="curve"/>
      <point x="384" y="896"/>
      <point x="123" y="559"/>
      <point x="123" y="301" type="curve" smooth="yes"/>
      <point x="123" y="186"/>
      <point x="188" y="86"/>
      <point x="284" y="86" type="curve" smooth="yes"/>
      <point x="330" y="86"/>
      <point x="381" y="109"/>
      <point x="434" y="161" type="curve"/>
      <point x="415" y="162" type="line"/>
      <point x="463" y="110"/>
      <point x="511" y="89"/>
      <point x="555" y="89" type="curve" smooth="yes"/>
      <point x="681" y="89"/>
      <point x="762" y="247"/>
      <point x="762" y="366" type="curve" smooth="yes"/>
      <point x="762" y="590"/>
      <point x="580" y="877"/>
    </contour>
    <contour>
      <point x="231" y="322" type="curve" smooth="yes"/>
      <point x="222" y="332"/>
      <point x="218" y="345"/>
      <point x="218" y="360" type="curve" smooth="yes"/>
      <point x="218" y="467"/>
      <point x="408" y="678"/>
      <point x="457" y="696" type="curve"/>
      <point x="449" y="696" type="line"/>
      <point x="494" y="677"/>
      <point x="685" y="478"/>
      <point x="685" y="375" type="curve" smooth="yes"/>
      <point x="685" y="338"/>
      <point x="629" y="276"/>
      <point x="550" y="276" type="curve" smooth="yes"/>
      <point x="513" y="276"/>
      <point x="472" y="291"/>
      <point x="434" y="332" type="curve"/>
      <point x="403" y="291"/>
      <point x="367" y="277"/>
      <point x="335" y="277" type="curve" smooth="yes"/>
      <point x="287" y="277"/>
      <point x="245" y="307"/>
    </contour>
  </outline>
</glyph>
<glyph name="absEasternSix" format="2">
  <advance width="881"/>
  <unicode hex="06F6"/>
  <outline>
    <contour>
      <point x="611" y="947" type="curve"/>
      <point x="565" y="1003"/>
      <point x="474" y="1038"/>
      <point x="403" y="1038" type="curve" smooth="yes"/>
      <point x="247" y="1038"/>
      <point x="208" y="845"/>
      <point x="208" y="727" type="curve" smooth="yes"/>
      <point x="208" y="709"/>
      <point x="214" y="647"/>
      <point x="222" y="633" type="curve"/>
      <point x="241" y="579"/>
      <point x="312" y="546"/>
      <point x="357" y="518" type="curve"/>
      <point x="355" y="530" type="line"/>
      <point x="245" y="412"/>
      <point x="137" y="219"/>
      <point x="88" y="54" type="curve"/>
      <point x="137" y="0" type="line"/>
      <point x="248" y="158"/>
      <point x="393" y="350"/>
      <point x="493" y="443" type="curve" smooth="yes"/>
      <point x="585" y="528"/>
      <point x="689" y="613"/>
      <point x="779" y="675" type="curve"/>
      <point x="779" y="863" type="line"/>
      <point x="490" y="658" type="line"/>
      <point x="516" y="667" type="line"/>
      <point x="388" y="664"/>
      <point x="316" y="702"/>
      <point x="269" y="812" type="curve"/>
      <point x="268" y="793" type="line"/>
      <point x="334" y="883"/>
      <point x="441" y="952"/>
      <point x="555" y="952" type="curve" smooth="yes"/>
      <point x="574" y="952"/>
      <point x="592" y="950"/>
    </contour>
  </outline>
</glyph>
<glyph name="absDadDotBelow" format="1">
  <advance width="1599"/>
  <unicode hex="06FB"/>
  <outline>
    <component base="absSad"/>
    <component base="_dot1" xOffset="965" yOffset="736"/>
    <component base="_dot1" xOffset="1081" yOffset="-267"/>
    <contour>
      <point x="285" y="464" type="move" name="alef"/>
    </contour>
    <contour>
      <point x="799" y="890" type="move" name="diaA"/>
    </contour>
    <contour>
      <point x="173" y="-514" type="move" name="diaB"/>
    </contour>
  </outline>
</glyph>
<glyph name="absSignSindhiAmpersand" format="1">
  <advance width="609"/>
  <unicode hex="06FD"/>
  <outline>
    <component base="absHamza"/>
    <component base="_lines" xOffset="304"/>
    <contour>
      <point x="310" y="620" type="move" name="diaA"/>
    </contour>
    <contour>
      <point x="289" y="-510" type="move" name="diaB"/>
    </contour>
  </outline>
</glyph>
<glyph name="absSignSindhiPostpositionMen" format="1">
  <advance width="912"/>
  <unicode hex="06FE"/>
  <outline>
    <component base="absMeem.sindhi"/>
    <component base="_lines" xOffset="637"/>
    <contour>
      <point x="486" y="733" type="move" name="diaA"/>
    </contour>
    <contour>
      <point x="150" y="-251" type="move" name="diaB"/>
    </contour>
  </outline>
</glyph>
<glyph name="absBehThreeDotsAboveDotBelow" format="1">
  <advance width="1220"/>
  <unicode hex="0751"/>
  <outline>
    <component base="absBehNoDots"/>
    <component base="_dot3u" xOffset="624" yOffset="687"/>
    <component base="_dot1" xOffset="612" yOffset="-248"/>
    <contour>
      <point x="280" y="690" type="move" name="alef"/>
    </contour>
    <contour>
      <point x="573" y="968" type="move" name="diaA"/>
    </contour>
    <contour>
      <point x="212" y="-296" type="move" name="diaB"/>
    </contour>
  </outline>
</glyph>
<glyph name="absBehTwoDotsAboveThreeDotsUpBelow" format="1">
  <advance width="1220"/>
  <unicode hex="0753"/>
  <outline>
    <component base="absBehNoDots"/>
    <component base="_dot2h" xOffset="624" yOffset="581"/>
    <component base="_dot3u" xOffset="612" yOffset="-354"/>
    <contour>
      <point x="280" y="690" type="move" name="alef"/>
    </contour>
    <contour>
      <point x="569" y="838" type="move" name="diaA"/>
    </contour>
    <contour>
      <point x="184" y="-340" type="move" name="diaB"/>
    </contour>
  </outline>
</glyph>
<glyph name="absDalInvSmallVBelow" format="1">
  <advance width="580"/>
  <unicode hex="075A"/>
  <outline>
    <component base="absDal"/>
    <component base="_invSmallV" xOffset="291" yOffset="-317"/>
    <contour>
      <point x="138" y="817" type="move" name="alef"/>
    </contour>
    <contour>
      <point x="288" y="834" type="move" name="diaA"/>
    </contour>
    <contour>
      <point x="260" y="-482" type="move" name="diaB"/>
    </contour>
  </outline>
</glyph>
<glyph name="absRehBar" format="1">
  <advance width="590"/>
  <unicode hex="075B"/>
  <outline>
    <component base="absReh"/>
    <component base="_bar" xOffset="409" yOffset="-34"/>
    <contour>
      <point x="122" y="698" type="move" name="alef"/>
    </contour>
    <contour>
      <point x="280" y="697" type="move" name="diaA"/>
    </contour>
    <contour>
      <point x="167" y="-474" type="move" name="diaB"/>
    </contour>
  </outline>
</glyph>
<glyph name="absAinTwoDotsVertAbove" format="1">
  <advance width="800"/>
  <unicode hex="075F"/>
  <outline>
    <component base="absAin"/>
    <component base="_dot2v" xOffset="237" yOffset="958"/>
    <contour>
      <point x="188" y="1255" type="move" name="diaA"/>
    </contour>
    <contour>
      <point x="273" y="-830" type="move" name="diaB"/>
    </contour>
  </outline>
</glyph>
<glyph name="absFehThreeDotsUpBelow" format="1">
  <advance width="1220"/>
  <unicode hex="0761"/>
  <outline>
    <component base="absDotlessFeh"/>
    <component base="_dot3u" xOffset="966" yOffset="-311"/>
    <contour>
      <point x="270" y="690" type="move" name="alef"/>
    </contour>
    <contour>
      <point x="605" y="732" type="move" name="diaA"/>
    </contour>
    <contour>
      <point x="226" y="-202" type="move" name="diaB"/>
    </contour>
  </outline>
</glyph>
<glyph name="absKehehThreeDotsUpBelow" format="1">
  <advance width="1348"/>
  <unicode hex="0764"/>
  <outline>
    <component base="absKeheh"/>
    <component base="_dot3u" xOffset="826" yOffset="-336"/>
    <contour>
      <point x="242" y="773" type="move" name="alef"/>
    </contour>
    <contour>
      <point x="535" y="1020" type="move" name="diaA"/>
    </contour>
    <contour>
      <point x="215" y="-202" type="move" name="diaB"/>
    </contour>
  </outline>
</glyph>
<glyph name="absMeemDotAbove" format="1">
  <advance width="557"/>
  <unicode hex="0765"/>
  <outline>
    <component base="absMeem"/>
    <component base="_dot1" xOffset="317" yOffset="638"/>
    <contour>
      <point x="139" y="809" type="move" name="alef"/>
    </contour>
    <contour>
      <point x="297" y="901" type="move" name="diaA"/>
    </contour>
    <contour>
      <point x="109" y="-719" type="move" name="diaB"/>
    </contour>
  </outline>
</glyph>
<glyph name="absMeemDotBelow" format="1">
  <advance width="557"/>
  <unicode hex="0766"/>
  <outline>
    <component base="absMeem"/>
    <component base="_dot1" xOffset="363" yOffset="-261"/>
    <contour>
      <point x="147" y="563" type="move" name="alef"/>
    </contour>
    <contour>
      <point x="273" y="619" type="move" name="diaA"/>
    </contour>
    <contour>
      <point x="109" y="-719" type="move" name="diaB"/>
    </contour>
  </outline>
</glyph>
<glyph name="absNoonTwoDotsBelow" format="1">
  <advance width="749"/>
  <unicode hex="0767"/>
  <outline>
    <component base="absNoonGhunna"/>
    <component base="_dot1" xOffset="329" yOffset="522"/>
    <component base="_dot2h" xOffset="374" yOffset="-537"/>
    <contour>
      <point x="172" y="710" type="move" name="alef"/>
    </contour>
    <contour>
      <point x="276" y="769" type="move" name="diaA"/>
    </contour>
    <contour>
      <point x="345" y="-737" type="move" name="diaB"/>
    </contour>
  </outline>
</glyph>
<glyph name="absNoonRetro" format="1">
  <advance width="749"/>
  <unicode hex="0768"/>
  <outline>
    <component base="absNoonGhunna"/>
    <component base="_dot1_tah" xOffset="329" yOffset="522"/>
    <contour>
      <point x="128" y="920" type="move" name="alef"/>
    </contour>
    <contour>
      <point x="292" y="1158" type="move" name="diaA"/>
    </contour>
    <contour>
      <point x="231" y="-425" type="move" name="diaB"/>
    </contour>
  </outline>
</glyph>
<glyph name="absNoonSmallV" format="1">
  <advance width="749"/>
  <unicode hex="0769"/>
  <outline>
    <component base="absNoonGhunna"/>
    <component base="_dot1_smallV" xOffset="329" yOffset="522"/>
    <contour>
      <point x="148" y="1003" type="move" name="alef"/>
    </contour>
    <contour>
      <point x="276" y="1020" type="move" name="diaA"/>
    </contour>
    <contour>
      <point x="231" y="-425" type="move" name="diaB"/>
    </contour>
  </outline>
</glyph>
<glyph name="absLamBar" format="1">
  <advance width="701"/>
  <unicode hex="076A"/>
  <outline>
    <component base="absLam"/>
    <component base="_bar" xOffset="574" yOffset="730"/>
    <contour>
      <point x="308" y="975" type="move" name="alef"/>
    </contour>
    <contour>
      <point x="351" y="1422" type="move" name="diaA"/>
    </contour>
    <contour>
      <point x="221" y="-202" type="move" name="diaB"/>
    </contour>
  </outline>
</glyph>
<glyph name="absHahSmallTahAbove" format="1">
  <advance width="832"/>
  <unicode hex="0772"/>
  <outline>
    <component base="absHah"/>
    <component base="_tah" xOffset="491" yOffset="774"/>
    <contour>
      <point x="223" y="920" type="move" name="alef"/>
    </contour>
    <contour>
      <point x="438" y="1203" type="move" name="diaA"/>
    </contour>
    <contour>
      <point x="179" y="-724" type="move" name="diaB"/>
    </contour>
  </outline>
</glyph>
<glyph name="absRehLoop" format="2">
  <advance width="604"/>
  <unicode hex="08AA"/>
  <anchor x="136" y="698" name="alef"/>
  <anchor x="294" y="697" name="diaA"/>
  <anchor x="236" y="-530" name="diaB"/>
  <outline>
    <contour>
      <point x="439" y="-148" type="curve"/>
      <point x="501" y="-27"/>
      <point x="521" y="64"/>
      <point x="521" y="150" type="curve" smooth="yes"/>
      <point x="521" y="198"/>
      <point x="513" y="246"/>
      <point x="485" y="290" type="curve" smooth="yes"/>
      <point x="457" y="334"/>
      <point x="423" y="365"/>
      <point x="392" y="385" type="curve"/>
      <point x="351" y="225" type="line"/>
      <point x="382" y="199"/>
      <point x="462" y="123"/>
      <point x="462" y="82" type="curve" smooth="yes"/>
      <point x="462" y="-2"/>
      <point x="351" y="-98"/>
      <point x="292" y="-145" type="curve"/>
      <point x="183" y="-232"/>
      <point x="100" y="-265"/>
      <point x="24" y="-265" type="curve" smooth="yes"/>
      <point x="-10" y="-265"/>
      <point x="-29" y="-253"/>
      <point x="-29" y="-231" type="curve" smooth="yes"/>
      <point x="-29" y="-218"/>
      <point x="-17" y="-192"/>
      <point x="33" y="-192" type="curve" smooth="yes"/>
      <point x="124" y="-192"/>
      <point x="258" y="-249"/>
      <point x="399" y="-382" type="curve"/>
      <point x="405" y="-382"/>
      <point x="417" y="-370"/>
      <point x="418" y="-364" type="curve"/>
      <point x="322" y="-256"/>
      <point x="139" y="-94"/>
      <point x="0" y="-94" type="curve" smooth="yes"/>
      <point x="-63" y="-94"/>
      <point x="-111" y="-134"/>
      <point x="-111" y="-191" type="curve" smooth="yes"/>
      <point x="-111" y="-298"/>
      <point x="99" y="-344"/>
      <point x="179" y="-344" type="curve" smooth="yes"/>
      <point x="305" y="-344"/>
      <point x="362" y="-274"/>
    </contour>
  </outline>
</glyph>
<glyph name="absShortVowelMark" format="2">
  <unicode hex="08FF"/>
  <anchor x="107" y="973" name="_diaA"/>
  <anchor x="107" y="1286" name="diaA"/>
  <outline>
    <contour>
      <point x="18" y="1194" type="line"/>
      <point x="74" y="1184"/>
      <point x="154" y="1186"/>
      <point x="154" y="1118" type="curve" smooth="yes"/>
      <point x="154" y="1063"/>
      <point x="88" y="1038"/>
      <point x="-4" y="1012" type="curve"/>
      <point x="0" y="987" type="line"/>
      <point x="115" y="991"/>
      <point x="238" y="1047"/>
      <point x="238" y="1139" type="curve" smooth="yes"/>
      <point x="238" y="1247"/>
      <point x="127" y="1255"/>
      <point x="45" y="1266" type="curve"/>
    </contour>
  </outline>
</glyph>
<glyph name="rightToLeftMark" format="2">
  <advance width="0"/>
  <unicode hex="200F"/>
  <outline>
    <contour>
      <point x="50" y="961" type="line"/>
      <point x="50" y="1141" type="line"/>
      <point x="-110" y="1051" type="line"/>
    </contour>
  </outline>
</glyph>
<glyph name="emdash" format="1">
  <advance width="1485"/>
  <unicode hex="2014"/>
  <outline>
    <contour>
      <point x="1485" y="340" type="line"/>
      <point x="1485" y="397" type="line"/>
      <point x="0" y="397" type="line"/>
      <point x="0" y="340" type="line"/>
    </contour>
  </outline>
</glyph>
<glyph name="quoteleft.arab" format="2">
  <advance width="604"/>
  <unicode hex="2018"/>
  <outline>
    <contour>
      <point x="344" y="1382" type="line"/>
      <point x="332" y="1399"/>
      <point x="283" y="1487"/>
      <point x="252" y="1487" type="curve" smooth="yes"/>
      <point x="203" y="1487"/>
      <point x="152" y="1391"/>
      <point x="152" y="1348" type="curve" smooth="yes"/>
      <point x="152" y="1241"/>
      <point x="203" y="1139"/>
      <point x="303" y="1085" type="curve"/>
      <point x="324" y="1096" type="line"/>
      <point x="295" y="1143"/>
      <point x="256" y="1196"/>
      <point x="256" y="1249" type="curve" smooth="yes"/>
      <point x="256" y="1266"/>
      <point x="258" y="1280"/>
      <point x="260" y="1296" type="curve"/>
      <point x="301" y="1317" type="line"/>
    </contour>
  </outline>
</glyph>
<glyph name="quotedblleft.arab" format="2">
  <advance width="909"/>
  <unicode hex="201C"/>
  <outline>
    <contour>
      <point x="344" y="1382" type="line"/>
      <point x="332" y="1399"/>
      <point x="283" y="1487"/>
      <point x="252" y="1487" type="curve" smooth="yes"/>
      <point x="203" y="1487"/>
      <point x="152" y="1391"/>
      <point x="152" y="1348" type="curve" smooth="yes"/>
      <point x="152" y="1241"/>
      <point x="203" y="1139"/>
      <point x="303" y="1085" type="curve"/>
      <point x="324" y="1096" type="line"/>
      <point x="295" y="1143"/>
      <point x="256" y="1196"/>
      <point x="256" y="1249" type="curve" smooth="yes"/>
      <point x="256" y="1266"/>
      <point x="258" y="1280"/>
      <point x="260" y="1296" type="curve"/>
      <point x="301" y="1317" type="line"/>
    </contour>
    <contour>
      <point x="649" y="1382" type="line"/>
      <point x="637" y="1399"/>
      <point x="588" y="1487"/>
      <point x="557" y="1487" type="curve" smooth="yes"/>
      <point x="508" y="1487"/>
      <point x="457" y="1391"/>
      <point x="457" y="1348" type="curve" smooth="yes"/>
      <point x="457" y="1241"/>
      <point x="508" y="1139"/>
      <point x="608" y="1085" type="curve"/>
      <point x="629" y="1096" type="line"/>
      <point x="600" y="1143"/>
      <point x="561" y="1196"/>
      <point x="561" y="1249" type="curve" smooth="yes"/>
      <point x="561" y="1266"/>
      <point x="563" y="1280"/>
      <point x="565" y="1296" type="curve"/>
      <point x="606" y="1317" type="line"/>
    </contour>
  </outline>
</glyph>
<glyph name="quotedblright.arab" format="1">
  <advance width="909"/>
  <unicode hex="201D"/>
  <outline>
    <contour>
      <point x="184" y="1188" type="line"/>
      <point x="197" y="1171"/>
      <point x="246" y="1083"/>
      <point x="279" y="1083" type="curve" smooth="yes"/>
      <point x="326" y="1083"/>
      <point x="377" y="1178"/>
      <point x="377" y="1223" type="curve" smooth="yes"/>
      <point x="377" y="1329"/>
      <point x="326" y="1430"/>
      <point x="225" y="1485" type="curve"/>
      <point x="205" y="1473" type="line"/>
      <point x="236" y="1427"/>
      <point x="272" y="1374"/>
      <point x="272" y="1319" type="curve" smooth="yes"/>
      <point x="272" y="1305"/>
      <point x="270" y="1288"/>
      <point x="268" y="1274" type="curve"/>
      <point x="227" y="1253" type="line"/>
    </contour>
    <contour>
      <point x="489" y="1188" type="line"/>
      <point x="502" y="1171"/>
      <point x="551" y="1083"/>
      <point x="584" y="1083" type="curve" smooth="yes"/>
      <point x="631" y="1083"/>
      <point x="682" y="1178"/>
      <point x="682" y="1223" type="curve" smooth="yes"/>
      <point x="682" y="1329"/>
      <point x="631" y="1430"/>
      <point x="530" y="1485" type="curve"/>
      <point x="510" y="1473" type="line"/>
      <point x="541" y="1427"/>
      <point x="578" y="1374"/>
      <point x="578" y="1319" type="curve" smooth="yes"/>
      <point x="578" y="1305"/>
      <point x="575" y="1288"/>
      <point x="573" y="1274" type="curve"/>
      <point x="532" y="1253" type="line"/>
    </contour>
  </outline>
</glyph>
<glyph name="ellipsis" format="2">
  <advance width="2048"/>
  <unicode hex="2026"/>
  <outline>
    <contour>
      <point x="299" y="186" type="curve"/>
      <point x="260" y="186"/>
      <point x="205" y="131"/>
      <point x="205" y="92" type="curve" smooth="yes"/>
      <point x="205" y="53"/>
      <point x="260" y="-2"/>
      <point x="299" y="-2" type="curve" smooth="yes"/>
      <point x="338" y="-2"/>
      <point x="393" y="53"/>
      <point x="393" y="92" type="curve" smooth="yes"/>
      <point x="393" y="131"/>
      <point x="338" y="186"/>
    </contour>
    <contour>
      <point x="999" y="186" type="curve"/>
      <point x="961" y="186"/>
      <point x="905" y="131"/>
      <point x="905" y="92" type="curve" smooth="yes"/>
      <point x="905" y="53"/>
      <point x="961" y="-2"/>
      <point x="999" y="-2" type="curve" smooth="yes"/>
      <point x="1036" y="-2"/>
      <point x="1094" y="53"/>
      <point x="1094" y="92" type="curve" smooth="yes"/>
      <point x="1094" y="131"/>
      <point x="1036" y="186"/>
    </contour>
    <contour>
      <point x="1700" y="186" type="curve"/>
      <point x="1661" y="186"/>
      <point x="1604" y="131"/>
      <point x="1604" y="92" type="curve" smooth="yes"/>
      <point x="1604" y="53"/>
      <point x="1661" y="-2"/>
      <point x="1700" y="-2" type="curve" smooth="yes"/>
      <point x="1737" y="-2"/>
      <point x="1792" y="53"/>
      <point x="1792" y="92" type="curve" smooth="yes"/>
      <point x="1792" y="131"/>
      <point x="1737" y="186"/>
    </contour>
  </outline>
</glyph>
<glyph name="absLigatureAllah" format="2">
  <advance width="1307"/>
  <unicode hex="FDF2"/>
  <outline>
    <contour>
      <point x="372" y="397" type="curve"/>
      <point x="357" y="497" type="line"/>
      <point x="308" y="483"/>
      <point x="139" y="381"/>
      <point x="108" y="342" type="curve" smooth="yes"/>
      <point x="67" y="291"/>
      <point x="30" y="177"/>
      <point x="30" y="109" type="curve" smooth="yes"/>
      <point x="30" y="60"/>
      <point x="128" y="50"/>
      <point x="164" y="50" type="curve" smooth="yes"/>
      <point x="274" y="50"/>
      <point x="357" y="105"/>
      <point x="406" y="214" type="curve"/>
      <point x="381" y="306" type="line"/>
      <point x="373" y="277"/>
      <point x="246" y="242"/>
      <point x="227" y="242" type="curve" smooth="yes"/>
      <point x="190" y="242"/>
      <point x="153" y="259"/>
      <point x="153" y="271" type="curve" smooth="yes"/>
      <point x="153" y="284"/>
      <point x="312" y="377"/>
    </contour>
    <contour>
      <point x="789" y="1022" type="curve" smooth="yes"/>
      <point x="873" y="1022"/>
      <point x="875" y="1145"/>
      <point x="875" y="1207" type="curve" smooth="yes"/>
      <point x="875" y="1229"/>
      <point x="873" y="1252"/>
      <point x="871" y="1274" type="curve"/>
      <point x="836" y="1256" type="line"/>
      <point x="838" y="1252"/>
      <point x="840" y="1230"/>
      <point x="840" y="1226" type="curve" smooth="yes"/>
      <point x="844" y="1190"/>
      <point x="824" y="1108"/>
      <point x="785" y="1108" type="curve" smooth="yes"/>
      <point x="756" y="1108"/>
      <point x="740" y="1180"/>
      <point x="738" y="1202" type="curve"/>
      <point x="703" y="1184" type="line"/>
      <point x="715" y="1155"/>
      <point x="692" y="1045"/>
      <point x="651" y="1045" type="curve" smooth="yes"/>
      <point x="615" y="1045"/>
      <point x="596" y="1098"/>
      <point x="596" y="1129" type="curve"/>
      <point x="598" y="1133" type="line"/>
      <point x="568" y="1116" type="line"/>
      <point x="570" y="1075"/>
      <point x="584" y="953"/>
      <point x="637" y="953" type="curve" smooth="yes"/>
      <point x="684" y="953"/>
      <point x="717" y="1006"/>
      <point x="742" y="1037" type="curve"/>
      <point x="760" y="1032"/>
      <point x="768" y="1022"/>
    </contour>
    <contour>
      <point x="664" y="1557" type="line"/>
      <point x="664" y="1557"/>
      <point x="664" y="1489"/>
      <point x="674" y="1426" type="curve" smooth="yes"/>
      <point x="690" y="1331"/>
      <point x="688" y="1278"/>
      <point x="688" y="1278" type="curve"/>
      <point x="688" y="1278"/>
      <point x="733" y="1278"/>
      <point x="748" y="1389" type="curve" smooth="yes"/>
      <point x="756" y="1446"/>
      <point x="742" y="1522"/>
      <point x="740" y="1645" type="curve"/>
    </contour>
    <contour>
      <point x="327" y="605" type="line"/>
      <point x="364" y="185"/>
      <point x="431" y="0"/>
      <point x="579" y="0" type="curve" smooth="yes"/>
      <point x="728" y="0"/>
      <point x="759" y="95"/>
      <point x="786" y="180" type="curve"/>
      <point x="798" y="121"/>
      <point x="889" y="0"/>
      <point x="977" y="0" type="curve" smooth="yes"/>
      <point x="1171" y="0"/>
      <point x="1207" y="114"/>
      <point x="1207" y="365" type="curve" smooth="yes"/>
      <point x="1207" y="502"/>
      <point x="1190" y="680"/>
      <point x="1184" y="817" type="curve"/>
      <point x="1093" y="876" type="line"/>
      <point x="1123" y="217" type="line"/>
      <point x="1093" y="196"/>
      <point x="1059" y="184"/>
      <point x="979" y="184" type="curve" smooth="yes"/>
      <point x="875" y="184"/>
      <point x="834" y="324"/>
      <point x="827" y="424" type="curve" smooth="yes"/>
      <point x="786" y="968" type="line"/>
      <point x="690" y="862" type="line"/>
      <point x="725" y="403"/>
      <point x="731" y="365"/>
      <point x="731" y="324" type="curve" smooth="yes"/>
      <point x="731" y="214"/>
      <point x="674" y="185"/>
      <point x="593" y="185" type="curve"/>
      <point x="494" y="185"/>
      <point x="456" y="267"/>
      <point x="442" y="332" type="curve" smooth="yes"/>
      <point x="413" y="461"/>
      <point x="395" y="596"/>
      <point x="383" y="728" type="curve"/>
    </contour>
    <component base="_strokeHead" xOffset="867" yOffset="781"/>
  </outline>
</glyph>
<glyph name="_bar" format="1">
  <advance width="0"/>
  <outline>
    <contour>
      <point x="-157" y="88" type="line"/>
      <point x="-186" y="20" type="line"/>
      <point x="153" y="-20" type="line"/>
      <point x="190" y="48" type="line"/>
    </contour>
    <contour>
      <point x="0" y="30" type="move" name="_through"/>
    </contour>
  </outline>
</glyph>
<glyph name="_damma.filled" format="1">
  <advance width="0"/>
  <outline>
    <contour>
      <point x="-9" y="223" type="curve" smooth="yes"/>
      <point x="-38" y="223"/>
      <point x="-95" y="199"/>
      <point x="-95" y="148" type="curve" smooth="yes"/>
      <point x="-95" y="104"/>
      <point x="-58" y="76"/>
      <point x="-23" y="76" type="curve" smooth="yes"/>
      <point x="-15" y="76"/>
      <point x="-1" y="77"/>
      <point x="5" y="80" type="curve"/>
      <point x="5" y="-10"/>
      <point x="-23" y="-50"/>
      <point x="-94" y="-100" type="curve"/>
      <point x="-82" y="-122" type="line"/>
      <point x="-26" y="-99"/>
      <point x="74" y="-23"/>
      <point x="74" y="118" type="curve" smooth="yes"/>
      <point x="74" y="174"/>
      <point x="53" y="223"/>
    </contour>
    <contour>
      <point x="-19" y="-174" type="move" name="_above"/>
    </contour>
  </outline>
</glyph>
<glyph name="_dot4" format="1">
  <advance width="0"/>
  <outline>
    <contour>
      <point x="212" y="-105" type="line" name="sv03"/>
      <point x="105" y="-1" type="line"/>
      <point x="1" y="-105" type="line"/>
      <point x="105" y="-212" type="line" name="sh03"/>
    </contour>
    <contour>
      <point x="-1" y="-105" type="line"/>
      <point x="-105" y="-1" type="line"/>
      <point x="-212" y="-105" type="line" name="av01"/>
      <point x="-105" y="-212" type="line" name="sh02"/>
    </contour>
    <contour>
      <point x="212" y="105" type="line" name="sv02"/>
      <point x="105" y="212" type="line" name="sh01"/>
      <point x="1" y="105" type="line"/>
      <point x="105" y="1" type="line"/>
    </contour>
    <contour>
      <point x="-1" y="105" type="line"/>
      <point x="-105" y="212" type="line" name="ah01"/>
      <point x="-212" y="105" type="line" name="sv01"/>
      <point x="-105" y="1" type="line"/>
    </contour>
    <contour>
      <point x="0" y="-286" type="move" name="_above"/>
    </contour>
    <contour>
      <point x="0" y="286" type="move" name="_below"/>
    </contour>
    <contour>
      <point x="0" y="0" type="move" name="_center"/>
    </contour>
  </outline>
</glyph>
<glyph name="_lines" format="1">
  <advance width="0"/>
  <outline>
    <contour>
      <point x="-74" y="-328" type="line"/>
      <point x="-74" y="-63" type="line"/>
      <point x="-141" y="-119" type="line"/>
      <point x="-141" y="-383" type="line"/>
    </contour>
    <contour>
      <point x="141" y="-328" type="line"/>
      <point x="141" y="-63" type="line"/>
      <point x="74" y="-119" type="line"/>
      <point x="74" y="-383" type="line"/>
    </contour>
    <contour>
      <point x="0" y="0" type="move" name="_below"/>
    </contour>
  </outline>
</glyph>
<glyph name="_madda" format="1">
  <advance width="0"/>
  <outline>
    <contour>
      <point x="238" y="158" type="curve"/>
      <point x="238" y="160"/>
      <point x="236" y="164"/>
      <point x="233" y="164" type="curve" smooth="yes"/>
      <point x="197" y="164"/>
      <point x="92" y="94"/>
      <point x="10" y="94" type="curve" smooth="yes"/>
      <point x="-55" y="94"/>
      <point x="-127" y="127"/>
      <point x="-178" y="160" type="curve"/>
      <point x="-193" y="135"/>
      <point x="-287" y="-43"/>
      <point x="-287" y="-59" type="curve" smooth="yes"/>
      <point x="-287" y="-66"/>
      <point x="-276" y="-70"/>
      <point x="-272" y="-70" type="curve" smooth="yes"/>
      <point x="-252" y="-70"/>
      <point x="-190" y="4"/>
      <point x="-182" y="23" type="curve"/>
      <point x="-145" y="-4"/>
      <point x="-78" y="-20"/>
      <point x="0" y="-20" type="curve" smooth="yes"/>
      <point x="76" y="-20"/>
      <point x="238" y="92"/>
    </contour>
    <contour>
      <point x="0" y="-85" type="move" name="_above"/>
    </contour>
    <contour>
      <point x="0" y="164" type="move" name="_below"/>
    </contour>
  </outline>
</glyph>
<glyph name="_absSwashKaf" format="2">
  <advance width="600"/>
  <outline>
    <contour>
      <point x="202" y="180" type="line"/>
      <point x="202" y="0" type="line"/>
      <point x="664" y="0" type="line" smooth="yes"/>
      <point x="974" y="0"/>
      <point x="1095" y="220"/>
      <point x="1095" y="339" type="curve" smooth="yes"/>
      <point x="1095" y="443"/>
      <point x="1013" y="512"/>
      <point x="892" y="512" type="curve" smooth="yes"/>
      <point x="214" y="512" type="line" smooth="yes"/>
      <point x="135" y="512"/>
      <point x="102" y="537"/>
      <point x="102" y="549" type="curve" smooth="yes"/>
      <point x="102" y="623"/>
      <point x="286" y="766"/>
      <point x="456" y="766" type="curve" smooth="yes"/>
      <point x="505" y="766"/>
      <point x="556" y="752"/>
      <point x="565" y="694" type="curve"/>
      <point x="567" y="707"/>
      <point x="599" y="850"/>
      <point x="599" y="852" type="curve" smooth="yes"/>
      <point x="599" y="915"/>
      <point x="522" y="930"/>
      <point x="473" y="930" type="curve" smooth="yes"/>
      <point x="283" y="930"/>
      <point x="50" y="669"/>
      <point x="50" y="500" type="curve" smooth="yes"/>
      <point x="50" y="418"/>
      <point x="92" y="358"/>
      <point x="191" y="358" type="curve" smooth="yes"/>
      <point x="871" y="358" type="line" smooth="yes"/>
      <point x="988" y="358"/>
      <point x="1026" y="317"/>
      <point x="1026" y="227" type="curve" smooth="yes"/>
      <point x="1026" y="212"/>
      <point x="974" y="180"/>
      <point x="882" y="180" type="curve" smooth="yes"/>
    </contour>
  </outline>
</glyph>
<glyph name="_bar" format="2">
  <advance width="0"/>
  <anchor x="0" y="30" name="_through"/>
  <outline>
    <contour>
      <point x="-157" y="88" type="line"/>
      <point x="-186" y="20" type="line"/>
      <point x="153" y="-20" type="line"/>
      <point x="190" y="48" type="line"/>
    </contour>
  </outline>
</glyph>
<glyph name="_dot1" format="1">
  <advance width="0"/>
  <outline>
    <contour>
      <point x="0" y="104" type="line"/>
      <point x="-104" y="0" type="line"/>
      <point x="0" y="-104" type="line"/>
      <point x="104" y="0" type="line"/>
    </contour>
    <contour>
      <point x="0" y="-180" type="move" name="_above"/>
    </contour>
    <contour>
      <point x="0" y="180" type="move" name="_below"/>
    </contour>
    <contour>
      <point x="0" y="0" type="move" name="_center"/>
    </contour>
  </outline>
</glyph>
<glyph name="_dot1_hat" format="2">
  <anchor x="0" y="-180" name="_above"/>
  <anchor x="0" y="449" name="_below"/>
  <outline>
    <contour>
      <point x="104" y="0" type="line"/>
      <point x="0" y="104" type="line"/>
      <point x="-104" y="0" type="line"/>
      <point x="0" y="-104" type="line"/>
    </contour>
    <contour>
      <point x="-221" y="24" type="line"/>
      <point x="-186" y="80"/>
      <point x="-84" y="237"/>
      <point x="-6" y="237" type="curve" smooth="yes"/>
      <point x="79" y="237"/>
      <point x="164" y="83"/>
      <point x="198" y="20" type="curve"/>
      <point x="272" y="73" type="line"/>
      <point x="231" y="159"/>
      <point x="124" y="360"/>
      <point x="14" y="360" type="curve" smooth="yes"/>
      <point x="-73" y="360"/>
      <point x="-211" y="102"/>
      <point x="-244" y="32" type="curve"/>
    </contour>
  </outline>
</glyph>
<glyph name="_dot1_tah" format="2">
  <anchor x="0" y="-180" name="_above"/>
  <anchor x="0" y="689" name="_below"/>
  <anchor x="0" y="187" name="_center"/>
  <outline>
    <contour>
      <point x="104" y="0" type="line"/>
      <point x="0" y="104" type="line"/>
      <point x="-104" y="0" type="line"/>
      <point x="0" y="-104" type="line"/>
    </contour>
    <component base="absTah" xScale="0.37" yScale="0.37" xOffset="-199" yOffset="166"/>
  </outline>
</glyph>
<glyph name="_dot2h_tah" format="2">
  <anchor x="0" y="-180" name="_above"/>
  <anchor x="0" y="636" name="_below"/>
  <anchor x="0" y="188" name="_center"/>
  <outline>
    <contour>
      <point x="-1" y="0" type="line"/>
      <point x="-105" y="104" type="line"/>
      <point x="-212" y="0" type="line"/>
      <point x="-105" y="-104" type="line"/>
    </contour>
    <contour>
      <point x="212" y="0" type="line"/>
      <point x="105" y="104" type="line"/>
      <point x="1" y="0" type="line"/>
      <point x="105" y="-104" type="line"/>
    </contour>
    <component base="absTah" xScale="0.37" yScale="0.37" xOffset="-199" yOffset="165"/>
  </outline>
</glyph>
<glyph name="_dot2v" format="2">
  <advance width="0"/>
  <anchor x="0" y="-286" name="_above"/>
  <anchor x="0" y="286" name="_below"/>
  <anchor x="0" y="0" name="_center"/>
  <outline>
    <contour>
      <point x="104" y="-105" type="line"/>
      <point x="0" y="-1" type="line"/>
      <point x="-104" y="-105" type="line" name="av01"/>
      <point x="0" y="-212" type="line" name="ah01"/>
    </contour>
    <contour>
      <point x="104" y="105" type="line"/>
      <point x="0" y="212" type="line" name="ah02"/>
      <point x="-104" y="105" type="line" name="sv01"/>
      <point x="0" y="1" type="line"/>
    </contour>
  </outline>
</glyph>
<glyph name="_dot3d" format="2">
  <advance width="0"/>
  <anchor x="0" y="-286" name="_above"/>
  <anchor x="0" y="286" name="_below"/>
  <anchor x="0" y="0" name="_center"/>
  <outline>
    <contour>
      <point x="212" y="104" type="line" name="sv01"/>
      <point x="105" y="211" type="line"/>
      <point x="1" y="104" type="line"/>
      <point x="105" y="0" type="line" name="sh02"/>
    </contour>
    <contour>
      <point x="-1" y="104" type="line"/>
      <point x="-105" y="211" type="line"/>
      <point x="-212" y="104" type="line" name="sv02"/>
      <point x="-105" y="0" type="line" name="sh01"/>
    </contour>
    <contour>
      <point x="104" y="-104" type="line" name="av01"/>
      <point x="0" y="0" type="line" name="ah01"/>
      <point x="-104" y="-104" type="line"/>
      <point x="0" y="-211" type="line"/>
    </contour>
  </outline>
</glyph>
<glyph name="_dot3h" format="2">
  <advance width="0"/>
  <anchor x="0" y="-180" name="_above"/>
  <anchor x="0" y="180" name="_below"/>
  <anchor x="0" y="0" name="_center"/>
  <outline>
    <contour>
      <point x="-105" y="0" type="line"/>
      <point x="-209" y="104" type="line"/>
      <point x="-316" y="0" type="line"/>
      <point x="-209" y="-104" type="line"/>
    </contour>
    <contour>
      <point x="107" y="0" type="line"/>
      <point x="0" y="104" type="line"/>
      <point x="-104" y="0" type="line"/>
      <point x="0" y="-104" type="line"/>
    </contour>
    <contour>
      <point x="319" y="0" type="line"/>
      <point x="212" y="104" type="line"/>
      <point x="108" y="0" type="line"/>
      <point x="212" y="-104" type="line"/>
    </contour>
  </outline>
</glyph>
<glyph name="_dot3u" format="2">
  <anchor x="0" y="-286" name="_above"/>
  <anchor x="0" y="286" name="_below"/>
  <anchor x="0" y="0" name="_center"/>
  <outline>
    <contour>
      <point x="212" y="-104" type="line"/>
      <point x="105" y="0" type="line"/>
      <point x="1" y="-104" type="line"/>
      <point x="105" y="-211" type="line"/>
    </contour>
    <contour>
      <point x="-1" y="-104" type="line"/>
      <point x="-105" y="0" type="line"/>
      <point x="-212" y="-104" type="line"/>
      <point x="-105" y="-211" type="line"/>
    </contour>
    <contour>
      <point x="104" y="104" type="line"/>
      <point x="0" y="211" type="line"/>
      <point x="-104" y="104" type="line"/>
      <point x="0" y="0" type="line"/>
    </contour>
  </outline>
</glyph>
<glyph name="_dot3u_tah" format="2">
  <anchor x="0" y="-286" name="_above"/>
  <anchor x="0" y="727" name="_below"/>
  <outline>
    <contour>
      <point x="104" y="104" type="line"/>
      <point x="0" y="211" type="line"/>
      <point x="-104" y="104" type="line"/>
      <point x="0" y="0" type="line"/>
    </contour>
    <contour>
      <point x="-1" y="-104" type="line"/>
      <point x="-105" y="0" type="line"/>
      <point x="-212" y="-104" type="line"/>
      <point x="-105" y="-211" type="line"/>
    </contour>
    <contour>
      <point x="212" y="-104" type="line"/>
      <point x="105" y="0" type="line"/>
      <point x="1" y="-104" type="line"/>
      <point x="105" y="-211" type="line"/>
    </contour>
    <contour>
      <point x="-82" y="282" type="curve" smooth="yes"/>
      <point x="24" y="282"/>
      <point x="207" y="320"/>
      <point x="207" y="433" type="curve" smooth="yes"/>
      <point x="207" y="469"/>
      <point x="159" y="491"/>
      <point x="131" y="491" type="curve" smooth="yes"/>
      <point x="100" y="491"/>
      <point x="17" y="432"/>
      <point x="-10" y="411" type="curve"/>
      <point x="-10" y="561" type="line"/>
      <point x="0" y="561" type="line"/>
      <point x="20" y="620" type="line"/>
      <point x="0" y="623"/>
      <point x="-14" y="640"/>
      <point x="-14" y="661" type="curve" smooth="yes"/>
      <point x="-14" y="664"/>
      <point x="-11" y="674"/>
      <point x="-11" y="681" type="curve" smooth="yes"/>
      <point x="-11" y="684"/>
      <point x="-12" y="685"/>
      <point x="-13" y="685" type="curve" smooth="yes"/>
      <point x="-21" y="685"/>
      <point x="-55" y="628"/>
      <point x="-55" y="616" type="curve" smooth="yes"/>
      <point x="-55" y="601"/>
      <point x="-49" y="594"/>
      <point x="-37" y="583" type="curve"/>
      <point x="-37" y="392" type="line"/>
      <point x="-88" y="345" type="line"/>
      <point x="-205" y="356" type="line"/>
      <point x="-178" y="309"/>
      <point x="-135" y="282"/>
    </contour>
    <contour>
      <point x="94" y="427" type="curve" smooth="yes"/>
      <point x="115" y="427"/>
      <point x="156" y="421"/>
      <point x="156" y="392" type="curve" smooth="yes"/>
      <point x="156" y="362"/>
      <point x="4" y="345"/>
      <point x="-20" y="345" type="curve" smooth="yes"/>
      <point x="-23" y="345"/>
      <point x="-37" y="345"/>
      <point x="-37" y="349" type="curve" smooth="yes"/>
      <point x="-37" y="378"/>
      <point x="68" y="427"/>
    </contour>
  </outline>
</glyph>
<glyph name="_dot4" format="2">
  <anchor x="0" y="-286" name="_above"/>
  <anchor x="0" y="286" name="_below"/>
  <anchor x="0" y="0" name="_center"/>
  <outline>
    <contour>
      <point x="212" y="-105" type="line"/>
      <point x="105" y="-1" type="line"/>
      <point x="1" y="-105" type="line"/>
      <point x="105" y="-212" type="line"/>
    </contour>
    <contour>
      <point x="-1" y="-105" type="line"/>
      <point x="-105" y="-1" type="line"/>
      <point x="-212" y="-105" type="line"/>
      <point x="-105" y="-212" type="line"/>
    </contour>
    <contour>
      <point x="212" y="105" type="line"/>
      <point x="105" y="212" type="line"/>
      <point x="1" y="105" type="line"/>
      <point x="105" y="1" type="line"/>
    </contour>
    <contour>
      <point x="-1" y="105" type="line"/>
      <point x="-105" y="212" type="line"/>
      <point x="-212" y="105" type="line"/>
      <point x="-105" y="1" type="line"/>
    </contour>
  </outline>
</glyph>
<glyph name="_hamza" format="2">
  <anchor x="-16" y="-212" name="_above"/>
  <anchor x="-27" y="240" name="_below"/>
  <outline>
    <contour>
      <point x="-97" y="-81" type="curve"/>
      <point x="12" y="-8" type="line"/>
      <point x="-67" y="-28"/>
      <point x="-114" y="8"/>
      <point x="-118" y="48" type="curve"/>
      <point x="-121" y="28" type="line"/>
      <point x="-106" y="73"/>
      <point x="-43" y="99"/>
      <point x="4" y="99" type="curve" smooth="yes"/>
      <point x="17" y="99"/>
      <point x="28" y="97"/>
      <point x="38" y="93" type="curve"/>
      <point x="50" y="115" type="line"/>
      <point x="32" y="140"/>
      <point x="-3" y="156"/>
      <point x="-35" y="156" type="curve" smooth="yes"/>
      <point x="-86" y="156"/>
      <point x="-140" y="103"/>
      <point x="-140" y="-22" type="curve" smooth="yes"/>
      <point x="-140" y="-49"/>
      <point x="-125" y="-66"/>
    </contour>
    <contour>
      <point x="156" y="9" type="line"/>
      <point x="-24" y="9"/>
      <point x="-111" y="-52"/>
      <point x="-208" y="-146" type="curve"/>
      <point x="-189" y="-173" type="line"/>
      <point x="-81" y="-80"/>
      <point x="11" y="-62"/>
      <point x="112" y="-62" type="curve"/>
    </contour>
  </outline>
</glyph>
<glyph name="_hat" format="2">
  <advance width="0"/>
  <anchor x="0" y="0" name="_above"/>
  <outline>
    <contour>
      <point x="-229" y="-8" type="line"/>
      <point x="-195" y="49"/>
      <point x="-92" y="205"/>
      <point x="-14" y="205" type="curve" smooth="yes"/>
      <point x="72" y="205"/>
      <point x="156" y="51"/>
      <point x="190" y="-12" type="curve"/>
      <point x="264" y="41" type="line"/>
      <point x="225" y="127"/>
      <point x="115" y="328"/>
      <point x="6" y="328" type="curve" smooth="yes"/>
      <point x="-80" y="328"/>
      <point x="-219" y="70"/>
      <point x="-252" y="0" type="curve"/>
    </contour>
  </outline>
</glyph>
<glyph name="_hook" format="2">
  <anchor x="0" y="225" name="_below"/>
  <outline>
    <contour>
      <point x="78" y="-141" type="curve"/>
      <point x="78" y="-70"/>
      <point x="49" y="-59"/>
      <point x="-10" y="-35" type="curve"/>
      <point x="-15" y="-20"/>
      <point x="-17" y="-5"/>
      <point x="-17" y="10" type="curve" smooth="yes"/>
      <point x="-17" y="75"/>
      <point x="23" y="137"/>
      <point x="72" y="182" type="curve"/>
      <point x="84" y="225" type="line"/>
      <point x="-13" y="182"/>
      <point x="-82" y="25"/>
      <point x="-82" y="-88" type="curve" smooth="yes"/>
      <point x="-82" y="-157"/>
      <point x="-57" y="-209"/>
      <point x="4" y="-209" type="curve" smooth="yes"/>
      <point x="39" y="-209"/>
      <point x="78" y="-180"/>
    </contour>
  </outline>
</glyph>
